<?xml version="1.0" standalone="no"?>
<!DOCTYPE svg PUBLIC "-//W3C//DTD SVG 1.1//EN" "http://www.w3.org/Graphics/SVG/1.1/DTD/svg11.dtd" >
<svg>
<metadata>
Created by FontForge 20090622 at Sat Dec 16 20:48:10 2017
 By ffonts
</metadata>
<defs>
<font id="Barbaro-Roman" horiz-adv-x="412" >
  <font-face 
    font-family="Barbaro"
    font-weight="400"
    font-stretch="normal"
    units-per-em="1000"
    panose-1="0 0 0 0 0 0 0 0 0 0"
    ascent="750"
    descent="-250"
    x-height="732"
    cap-height="810"
    bbox="-60 -93 644 1037"
    underline-thickness="50"
    underline-position="-50"
    unicode-range="U+000D-U+201D"
  />
<missing-glyph horiz-adv-x="133" 
 />
    <glyph glyph-name=".notdef" horiz-adv-x="133" 
 />
    <glyph glyph-name="NULL" horiz-adv-x="0" 
 />
    <glyph glyph-name="NULL" horiz-adv-x="0" 
 />
    <glyph glyph-name="nonmarkingreturn" unicode="&#xd;" horiz-adv-x="133" 
 />
    <glyph glyph-name="space" unicode=" " horiz-adv-x="133" 
 />
    <glyph glyph-name="E" unicode="E" horiz-adv-x="383" 
d="M268 101q14 1 26 6.5t20 10.5q10 6 17 14l-20 -132h-311q8 12 15 24q6 11 11 23.5t5 24.5v678q0 10 -5 21t-11 20q-7 11 -15 21h309l20 -132q-9 8 -19 14q-9 5 -20 10t-25 7h-3h-130v-242h97h1q11 0 21 4.5t18 10.5q9 7 17 16v-163q-6 8 -14 15q-7 6 -17.5 11t-24.5 5
h-98v-267h136v0z" />
    <glyph glyph-name="F" unicode="F" horiz-adv-x="376" 
d="M329 680q-9 8 -20 15q-9 6 -21.5 11t-26.5 5h-129v-304h97h1q9 0 19 4.5t18 10.5q10 7 19 16v-163q-8 8 -17 15q-8 6 -18 11t-21 5h-1h-97v-242q0 -12 4.5 -23.5t10.5 -20.5q7 -11 16 -20h-163q8 11 15 22q6 10 11 21t5 22v692q0 9 -5 18.5t-11 17.5q-7 10 -15 19h309
l20 -132v0z" />
    <glyph glyph-name="G" unicode="G" horiz-adv-x="416" 
d="M176 441h170v-100v-183q0 -33 -12.5 -61.5t-34 -50t-50 -34t-61.5 -12.5h-30q-33 0 -61.5 12.5t-50 34t-34 50t-12.5 61.5v515q0 33 12.5 61.5t34 50t50 34t61.5 12.5h31q33 0 61.5 -12.5t49.5 -34t33.5 -50t12.5 -61.5v-31q0 -14 5 -28t11 -25q7 -13 16 -25h-167
q9 8 16 18q6 8 11 19t5 24v48q0 23 -16 38.5t-38 15.5h-31q-23 0 -38.5 -15.5t-15.5 -38.5v-515q0 -23 15.5 -38.5t38.5 -15.5h30q23 0 38.5 15.5t15.5 38.5v182q-14 1 -26 -3t-21 -8.5t-14 -9t-5 -5.5v127z" />
    <glyph glyph-name="H" unicode="H" horiz-adv-x="459" 
d="M379 66q0 -14 4.5 -26t10.5 -21q7 -11 16 -19h-163q8 9 15 20q6 9 11 20t5 24v287h-146v-285q0 -14 4.5 -26t10.5 -21q7 -11 16 -19h-163q8 9 15 20q6 9 11 20t5 24v685q0 11 -5 21.5t-11 19.5q-7 11 -15 20h163q-9 -8 -16 -17q-6 -8 -10.5 -18.5t-4.5 -24.5v-298h146
v297q0 11 -5 21.5t-11 19.5q-7 11 -15 20h163q-9 -8 -16 -17q-6 -8 -10.5 -18.5t-4.5 -24.5v-684v0z" />
    <glyph glyph-name="I" unicode="I" horiz-adv-x="221" 
d="M166 810q-9 -7 -16 -17q-6 -8 -10.5 -19t-4.5 -24v-684q0 -14 4.5 -26t10.5 -21q7 -11 16 -19h-166q8 9 15 20q6 9 11 20t5 24v684q0 11 -5 22t-11 20q-7 11 -15 20h166v0z" />
    <glyph glyph-name="J" unicode="J" horiz-adv-x="397" 
d="M137 264q-9 -8 -16 -18q-6 -8 -10.5 -19.5t-4.5 -24.5v-44q0 -22 15.5 -38t38.5 -16h2q22 0 37.5 15.5t15.5 38.5v594q0 10 -5 20t-11 18q-7 10 -15 18h167q-9 -9 -16 -19q-6 -8 -11 -19t-5 -21v-591q0 -33 -12.5 -61.5t-33.5 -50t-50 -34t-62 -12.5l-1 1
q-33 0 -61.5 12.5t-50 33.5t-34 49.5t-12.5 61.5v43q0 12 -5 23t-11 20q-7 11 -15 20h166v0z" />
    <glyph glyph-name="K" unicode="K" horiz-adv-x="466" 
d="M258 0l7.5 7.5t12.5 15.5t9.5 19.5t-0.5 19.5l-96 260l-59 -133v-126q0 -11 4.5 -22t10.5 -20q7 -11 16 -21h-163q8 11 15 22q6 9 11 19.5t5 20.5v697q0 9 -5 18t-11 17q-7 9 -15 18h163q-9 -10 -16 -21q-6 -9 -10.5 -18.5t-4.5 -16.5v-357l150 354q10 18 1 36t-21 23
h188q-14 -9 -25 -19q-11 -9 -21 -20t-17 -23l-129 -315l46 -120.5l43.5 -118.5l33 -92.5t15.5 -42.5q4 -10 12.5 -20.5l16.5 -19.5q10 -11 21 -21h-188v0z" />
    <glyph glyph-name="L" unicode="L" horiz-adv-x="357" 
d="M229 100q13 0 27 6t25.5 14t20.5 16t13 13l-34 -149h-281q9 12 16 24q6 11 11 23.5t5 24.5v2v676q0 15 -5 27t-11 20q-7 10 -15 17h166q-16 -10 -24 -28t-8 -32v-654h94v0z" />
    <glyph glyph-name="M" unicode="M" horiz-adv-x="565" 
d="M501 0h-163q8 10 15 20q6 8 11 18t5 18v422l-119 -450l-118 449v-410q0 -14 5 -26t11 -21q7 -11 16 -20h-164q9 12 16 24q6 11 11 22.5t5 21.5v684q0 8 -5 18t-11 18q-7 10 -16 19h192q-9 -8 -16 -18q-6 -8 -10 -18t-1 -21l86 -368l85 366q2 11 -1.5 21.5t-9.5 18.5
q-7 10 -16 19h192q-9 -10 -16 -21q-6 -10 -10.5 -22t-4.5 -26v-673q0 -13 4.5 -24.5t10.5 -20.5q7 -11 16 -20z" />
    <glyph glyph-name="N" unicode="N" horiz-adv-x="478" 
d="M427 810q-9 -9 -16 -19q-6 -8 -11 -18t-5 -19v-690q0 -13 5 -24t11 -20q7 -11 16 -20h-170q11 9 18 21q6 10 9.5 24.5t-2.5 31.5l-150 423v-437q0 -14 5 -25.5t11 -19.5q7 -10 16 -18h-164q9 8 16 19q6 9 11 20.5t5 24.5l-1 690q0 7 -5 16.5t-11 18.5q-7 11 -15 21h180
q-10 -10 -17 -21q-6 -10 -10 -21.5t-1 -23.5l143 -433v443q0 9 -5 19t-11 18q-7 10 -16 19h164v0z" />
    <glyph glyph-name="O" unicode="O" 
d="M190 828q33 0 61.5 -13t50 -35.5t34 -51.5t12.5 -62v-508q0 -33 -12.5 -62t-34.5 -51t-50.5 -35t-61.5 -13l-30 -1q-33 0 -61.5 13t-50.5 35.5t-34.5 51.5t-12.5 62v508q0 33 12.5 62t34.5 51.5t50.5 35.5t61.5 13h31zM244 664q0 22 -16 41t-38 19h-31q-23 0 -38.5 -19
t-15.5 -41v-504q0 -22 15.5 -41t38.5 -19l30 1q23 0 38.5 18.5t15.5 40.5z" />
    <glyph glyph-name="P" unicode="P" 
d="M31 751q0 11 -5 22.5t-11 21.5l-15 23h201q33 0 61.5 -12.5t50 -34t34 -50t12.5 -61.5v-262q0 -33 -12.5 -61.5t-34 -50t-50 -34t-61.5 -12.5l-69 1v-179q0 -9 4.5 -19.5t10.5 -20.5q7 -11 16 -22h-163q8 10 15 21q6 9 11 18.5t5 16.5v695zM255 660q0 23 -15.5 38.5
t-38.5 15.5h-69v-370h69q23 0 38.5 16t15.5 38v262z" />
    <glyph glyph-name="Q" unicode="Q" 
d="M335 43q6 -2 13.5 2.5t14.5 9.5q8 6 17 15v-163q-8 10 -17 19q-8 8 -18.5 13.5t-22.5 7.5q-35 2 -59 18t-38 40q-20 -5 -37 -5h-30q-33 0 -61.5 12.5t-50 34t-34 50t-12.5 61.5v500q0 33 12.5 61.5t34 50t50 34t61.5 12.5h31q33 0 61.5 -12.5t49.5 -34t33.5 -50
t12.5 -61.5v-500q0 -28 -9 -53t-25 -45q9 -14 23 -17zM188 104q23 0 38.5 15.5t15.5 38.5l1 500q0 23 -16 38.5t-38 15.5h-31q-23 0 -38.5 -15.5t-15.5 -38.5v-500q0 -23 15.5 -38.5t38.5 -15.5h30z" />
    <glyph glyph-name="R" unicode="R" horiz-adv-x="422" 
d="M350 63q0 -12 4.5 -23.5t10.5 -20.5q7 -11 16 -19h-164q8 10 15 21q6 10 11 22t5 24v1v-1v148q0 23 -15.5 38t-37.5 15h-63v-200q0 -13 4.5 -24.5t10.5 -21.5q7 -11 16 -22h-163q8 12 15 24q6 11 11 23t5 23v680q0 13 -5 25.5t-11 22.5q-7 11 -15 22h199q33 0 61.5 -12.5
t50 -34t34 -50t12.5 -61.5v-211q0 -37 -16 -69t-44 -54q24 -21 38.5 -51t14.5 -65v-149zM199 394q23 0 38.5 15.5t15.5 37.5v215q0 23 -15.5 38.5t-38.5 15.5h-67v-322h67z" />
    <glyph glyph-name="S" unicode="S" horiz-adv-x="399" 
d="M379 573h-165q9 8 16 18q6 8 11 18t5 20v10q0 39 -17.5 58t-43.5 19q-27 0 -44.5 -19t-17.5 -58q0 -37 16.5 -71t41 -68t53.5 -69t53.5 -73.5t41 -82.5t16.5 -95q0 -184 -164 -184q-42 0 -73.5 9t-52.5 30t-31.5 56.5t-10.5 88.5v20q0 10 -5 20t-11 18q-7 10 -16 18h166
q-9 -9 -16 -19q-6 -8 -11 -18t-5 -19v-27q0 -38 18 -57t45 -19q26 0 45 19t19 57q0 37 -16.5 71t-41.5 68t-54.5 69t-54.5 74t-41.5 82.5t-16.5 94.5q0 97 41 140.5t124 43.5q82 0 123.5 -43.5t41.5 -140.5q0 -13 5 -23.5t11 -18.5q7 -10 16 -17z" />
    <glyph glyph-name="T" unicode="T" horiz-adv-x="430" 
d="M108 0q9 9 16 19q6 8 11 17.5t5 19.5v655h-69q-12 0 -26.5 -8.5t-26.5 -19.5q-15 -12 -29 -27l28 152h355l28 -152q-14 15 -29 27q-13 11 -27.5 19.5t-26.5 8.5h-73v-657q0 -9 5 -18.5t11 -17.5q7 -10 17 -18h-169v0z" />
    <glyph glyph-name="U" unicode="U" horiz-adv-x="457" 
d="M409 812q-9 -8 -16 -19q-6 -9 -11 -20.5t-5 -23.5v-591q0 -33 -12.5 -61.5t-33.5 -50t-49.5 -34t-61.5 -12.5h-30q-33 0 -62 12.5t-50.5 34t-34 50t-12.5 61.5v597q0 11 -5 21t-11 18q-7 10 -15 18h167q-9 -8 -16 -18q-6 -8 -11 -18t-5 -20v-598q0 -23 16 -38.5t38 -15.5
h30q23 0 38.5 15.5t15.5 38.5v598q0 8 -5 18.5t-11 18.5q-7 10 -15 19h167z" />
    <glyph glyph-name="V" unicode="V" horiz-adv-x="461" 
d="M433 811q-10 -8 -19 -17q-8 -8 -14.5 -18.5t-8.5 -24.5l-125 -685q-2 -12 0.5 -23t6.5 -19.5t8.5 -14t6.5 -8.5l2 -2h-171h-1q9 8 15 19q5 9 8 21.5t1 26.5l-123 685q-3 14 -9.5 24.5t-14.5 18.5q-9 9 -19 17h162q-7 -9 -12 -20q-5 -9 -7.5 -19.5t-0.5 -21.5l86 -474
l87 474q2 11 -0.5 21.5t-7.5 19.5q-5 11 -12 20h162z" />
    <glyph glyph-name="W" unicode="W" horiz-adv-x="671" 
d="M644 811q-10 -8 -19 -17q-8 -8 -14.5 -18.5t-8.5 -24.5l-125 -684q-2 -14 1.5 -26.5t8.5 -21.5q6 -11 15 -19h-1h-167l2 2q2 3 6.5 8.5t8.5 14t6 19.5t0 23l-57 384l-57 -384q-2 -12 0.5 -23t6.5 -19.5t8.5 -14t6.5 -8.5l2 -2h-167h-1q9 8 15 19q5 9 8 21.5t1 26.5
l-122 684q-3 14 -9.5 24.5t-14.5 18.5q-9 9 -19 17h163q-7 -9 -12 -20q-5 -9 -7.5 -19.5t-0.5 -21.5l81 -467l65 456q0 2 0.5 2.5t0.5 2.5q2 13 -4 24.5t-14 21.5q-10 11 -22 21h21h142h21q-12 -10 -21 -21q-8 -9 -14.5 -20.5t-4.5 -22.5q0 -4 1 -5l65 -459l83 467
q2 11 -0.5 21.5t-7.5 19.5q-5 11 -12 20h163z" />
    <glyph glyph-name="X" unicode="X" horiz-adv-x="444" 
d="M377 64q4 -13 12.5 -24t17.5 -20q11 -11 22 -20h-168q5 8 9 19q3 9 4.5 21t-3.5 26l-59 182l-59 -182q-5 -14 -4 -26t4 -21q4 -11 10 -19h-167q11 9 22 20q9 9 17 20t13 24l110 339l-111 341q-5 14 -13.5 24.5t-16.5 18.5q-10 9 -21 17h167q-5 -9 -9 -20
q-3 -9 -4.5 -19.5t2.5 -21.5l60 -185l60 185q4 11 2.5 21.5t-4.5 19.5q-4 11 -9 20h168q-12 -8 -22 -17q-9 -8 -17 -18.5t-13 -24.5l-110 -341l110 -339v0z" />
    <glyph glyph-name="Y" unicode="Y" horiz-adv-x="410" 
d="M411 811q-9 -7 -18 -15q-8 -7 -15 -15.5t-10 -18.5q-2 -5 -9 -28.5l-17.5 -58l-23 -77.5l-25.5 -87l-68 -232v-2v1v-206q0 -11 5 -23.5t11 -23.5q7 -12 16 -25h-164q9 13 16 25q6 11 11 22.5t5 20.5v211l-69 232l-25.5 87l-23 78.5l-17.5 59t-8 28.5q-4 10 -10.5 18.5
t-13.5 14.5q-8 7 -18 13h177q-11 -8 -19 -18q-7 -8 -11.5 -18t-0.5 -21l89 -317l90 319q3 8 -1.5 18.5t-11.5 18.5q-8 10 -18 19h177z" />
    <glyph glyph-name="Z" unicode="Z" horiz-adv-x="374" 
d="M256 100q18 0 32.5 7t25.5 16q12 11 22 24l-26 -148h-310l206 706h-105q-18 0 -33.5 -7.5t-26.5 -16.5q-13 -11 -23 -23l30 149h299l-209 -707h118v0z" />
    <glyph glyph-name="zero" unicode="0" horiz-adv-x="407" 
d="M189 741q33 0 61.5 -12.5t49.5 -34t33.5 -50t12.5 -61.5v-425q0 -33 -12.5 -61.5t-34 -49.5t-50 -33.5t-61.5 -12.5l-30 -1q-33 0 -61.5 12.5t-50 34t-34 50t-12.5 61.5v425q0 33 12.5 61.5t34 50t50 34t61.5 12.5h31zM243 583q0 22 -16 38t-38 16h-31q-23 0 -38.5 -16
t-15.5 -38v-425q0 -22 15.5 -38t38.5 -16l30 1q23 0 38.5 15.5t15.5 37.5z" />
    <glyph glyph-name="two" unicode="2" horiz-adv-x="416" 
d="M331 102v-101h-330v94l-1 78q0 51 16.5 89.5t41 69.5t53.5 56.5t53.5 51.5t41 54.5t16.5 65.5q0 38 -14.5 54t-41.5 16t-42 -16t-15 -54v-14q0 -11 4 -20.5t9 -17.5q5 -10 13 -18h-132v59q0 96 41.5 140t124.5 44q82 0 124 -42t42 -138q0 -51 -16.5 -89t-40.5 -68
t-53 -55t-53 -50t-40.5 -53t-16.5 -65v-71h115v58q0 18 -5.5 32.5t-11.5 25.5q-7 12 -16 21h134v-137z" />
    <glyph glyph-name="three" unicode="3" horiz-adv-x="409" 
d="M185 318h-4h4zM309 376q24 -22 38.5 -52.5t14.5 -65.5v-100q0 -33 -12.5 -62t-34 -51t-50 -35t-61.5 -13h-23h-23q-33 0 -61.5 13t-50 35t-34 51t-12.5 62v15v-2v68h134q-9 -9 -15 -20q-6 -9 -10.5 -21t-4.5 -25v-15q0 -23 15.5 -38.5t38.5 -15.5h6h17h17h6q22 0 38 15.5
t16 38.5v100q0 23 -16 41.5t-38 18.5h-6h-13h-6q-16 0 -28.5 -5t-22.5 -11q-11 -7 -21 -16v174q10 -9 21 -16q10 -6 22.5 -11t26.5 -5h21q22 0 37.5 18.5t15.5 40.5v88q0 22 -15.5 38t-37.5 16h-24h-10q-23 0 -42 -16t-19 -38v-9v4q0 -15 4.5 -27.5t10.5 -21.5q7 -11 16 -19
h-134v61v12q0 33 12.5 62t33.5 51t50 35t62 13h16h23q33 0 61.5 -13t50 -35t34 -51t12.5 -62v-88q0 -32 -12.5 -61t-33.5 -50z" />
    <glyph glyph-name="D" unicode="D" horiz-adv-x="422" 
d="M31 751q0 8 -5 21t-11 24l-15 28h200q33 0 62 -12.5t50 -34t33.5 -50t12.5 -61.5v-509q0 -33 -12.5 -61.5t-33.5 -49.5t-49.5 -33.5t-61.5 -12.5h-201q8 13 15 27q6 12 11 25.5t5 27.5v671zM254 666q0 23 -15.5 38.5t-37.5 15.5h-69v-616h69q22 0 37.5 15.5t15.5 37.5
v509z" />
    <glyph glyph-name="a" unicode="a" horiz-adv-x="426" 
d="M232 0q10 11 17 22q6 10 10.5 23t2.5 27l-4 28.5t-4 25.5l-4 26h-133l-11 -82q-2 -12 2.5 -24.5t10.5 -22.5q7 -12 16 -23h-163q8 8 14 17q5 8 9.5 16.5t6.5 16.5q1 4 4.5 31.5t10 70.5l14 97l15.5 110l15.5 110t14 96.5t10 69.5t4.5 30q2 11 -3 22.5t-11 21.5
q-7 11 -16 23h248q-10 -12 -17 -23q-6 -10 -10.5 -21.5t-2.5 -20.5q0 -2 4 -28.5l10 -68.5l13.5 -95l15 -108.5l15 -109.5l14 -97l10.5 -71.5t5 -32.5q2 -9 7 -19t10 -18q6 -10 14 -19h-164zM236 253l-52 367l-52 -367h104z" />
    <glyph glyph-name="b" unicode="b" 
d="M305 373q24 -21 38.5 -51.5t14.5 -65.5v-98q0 -33 -12.5 -61.5t-34 -50t-50 -34t-61.5 -12.5l-200 1q9 11 16 25q6 11 11 26.5t5 32.5v574q0 14 -5 27t-11 24q-7 11 -16 22h193q33 0 61.5 -12.5t50 -33.5t34 -49.5t12.5 -61.5v-90q0 -32 -12.5 -61t-33.5 -51zM133 431h60
q23 0 38.5 16t15.5 38v90q0 22 -15.5 37.5t-38.5 15.5h-60v-197zM254 256q0 22 -15.5 37.5t-38.5 15.5h-67v-205h67q23 0 38.5 15.5t15.5 38.5v98z" />
    <glyph glyph-name="c" unicode="c" horiz-adv-x="409" 
d="M242 194q0 14 -5 26t-11 21q-7 11 -15 20h166q-9 -8 -16 -19q-6 -9 -10.5 -20.5t-4.5 -22.5v-41q0 -33 -12.5 -62t-34 -50.5t-50 -34.5t-61.5 -13h-30q-33 0 -61.5 12.5t-50 34.5t-34 50.5t-12.5 61.5v425q0 33 12.5 62t34 50.5t50 34.5t61.5 13h31q33 0 61.5 -13
t49.5 -34.5t33.5 -50.5t12.5 -62v-30q0 -14 5 -26t11 -21q7 -11 16 -19h-167q9 8 16 18q6 8 11 19t5 25v34q0 23 -16 38.5t-38 15.5h-31q-23 0 -38.5 -15.5t-15.5 -38.5v-425q0 -22 15.5 -37.5t38.5 -15.5h30q23 0 38.5 15.5t15.5 38.5v36v0z" />
    <glyph glyph-name="d" unicode="d" horiz-adv-x="422" 
d="M31 659q0 8 -5 21t-11 24l-15 28h200q33 0 62 -12.5t50 -34t33.5 -50t12.5 -61.5v-417q0 -33 -12.5 -61.5t-33.5 -49.5t-49.5 -33.5t-61.5 -12.5h-201q8 13 15 27q6 12 11 25.5t5 27.5v579zM254 574q0 23 -15.5 38.5t-37.5 15.5h-69v-524h69q22 0 37.5 15.5t15.5 37.5
v417z" />
    <glyph glyph-name="e" unicode="e" horiz-adv-x="389" 
d="M268 101q14 1 26.5 7t22.5 14q11 9 21 19l-27 -141h-311q8 12 15 24q6 11 11 23.5t5 24.5v599q0 10 -5 21t-11 20q-7 11 -15 21h309l27 -142q-11 10 -22 19q-10 8 -22.5 14t-26.5 8h-3h-130v-224h97h1q11 0 21 4.5t18 10.5q9 7 17 16v-163q-6 8 -14 15q-7 6 -17.5 11
t-24.5 5h-98v-206h136v0z" />
    <glyph glyph-name="f" unicode="f" horiz-adv-x="376" 
d="M337 590q-12 11 -24 20q-11 8 -24.5 14.5t-27.5 6.5h-129v-224h97h1q9 0 19 4.5t18 10.5q10 7 19 16v-163q-8 8 -17 15q-8 6 -18 11t-21 5h-1h-97v-242q0 -12 4.5 -23.5t10.5 -20.5q7 -11 16 -20h-163q8 11 15 22q6 10 11 21t5 22v612q0 9 -5 18.5t-11 17.5q-7 10 -15 19
h309l28 -142v0z" />
    <glyph glyph-name="g" unicode="g" horiz-adv-x="416" 
d="M176 373h170v-100v-115q0 -33 -12.5 -62t-34 -50.5t-50 -34.5t-61.5 -13h-30q-33 0 -61.5 13t-50 34.5t-34 50.5t-12.5 62v424q0 33 12.5 62t34 50.5t50 34.5t61.5 13h31q33 0 61.5 -13t49.5 -34.5t33.5 -50.5t12.5 -62v-37q0 -14 5 -26t11 -21q7 -11 16 -19h-167
q9 8 16 18q6 8 11 19t5 24v42q0 23 -16 39.5t-38 16.5h-31q-23 0 -38.5 -16.5t-15.5 -39.5v-424q0 -23 15.5 -39.5t38.5 -16.5h30q23 0 38.5 16.5t15.5 39.5v114q-14 1 -26 -3t-21 -8.5t-14 -9t-5 -5.5v127z" />
    <glyph glyph-name="h" unicode="h" horiz-adv-x="459" 
d="M379 66q0 -14 4.5 -26t10.5 -21q7 -11 16 -19h-163q8 9 15 20q6 9 11 20t5 24v243h-146v-241q0 -14 4.5 -26t10.5 -21q7 -11 16 -19h-163q8 9 15 20q6 9 11 20t5 24v607q0 11 -5 21.5t-11 19.5q-7 11 -15 20h163q-9 -8 -16 -17q-6 -8 -10.5 -18.5t-4.5 -24.5v-264h146
v263q0 11 -5 21.5t-11 19.5q-7 11 -15 20h163q-9 -8 -16 -17q-6 -8 -10.5 -18.5t-4.5 -24.5v-606v0z" />
    <glyph glyph-name="i" unicode="i" horiz-adv-x="225" 
d="M166 732q-9 -7 -16 -17q-6 -8 -10.5 -19t-4.5 -24v-606q0 -14 4.5 -26t10.5 -21q7 -11 16 -19h-166q8 9 15 20q6 9 11 20t5 24v606q0 11 -5 22t-11 20q-7 11 -15 20h166v0z" />
    <glyph glyph-name="j" unicode="j" horiz-adv-x="397" 
d="M137 264q-9 -8 -16 -18q-6 -8 -10.5 -19.5t-4.5 -24.5v-44q0 -22 15.5 -38t38.5 -16h2q22 0 37.5 15.5t15.5 38.5v518q0 10 -5 20t-11 18q-7 10 -15 18h167q-9 -9 -16 -19q-6 -8 -11 -19t-5 -21v-515q0 -33 -12.5 -61.5t-33.5 -50t-50 -34t-62 -12.5l-1 1
q-33 0 -61.5 12.5t-50 33.5t-34 49.5t-12.5 61.5v43q0 12 -5 23t-11 20q-7 11 -15 20h166v0z" />
    <glyph glyph-name="k" unicode="k" horiz-adv-x="474" 
d="M266 0l7.5 7.5t12.5 15.5t9.5 19.5t-0.5 19.5l-104 260l-59 -111v-148q0 -11 4.5 -22t10.5 -20q7 -11 16 -21h-163q8 11 15 22q6 9 11 19.5t5 20.5v617q0 9 -5 18t-11 17q-7 9 -15 18h163q-9 -10 -16 -21q-6 -9 -10.5 -18.5t-4.5 -16.5v-277l146 274q10 18 1 36t-21 23
h188q-14 -9 -25 -19q-11 -9 -21 -20t-17 -23l-125 -235l47 -120.5l46.5 -118.5l36 -92.5l16.5 -42.5q4 -10 12.5 -20.5l16.5 -19.5q10 -11 21 -21h-188v0z" />
    <glyph glyph-name="l" unicode="l" horiz-adv-x="358" 
d="M229 100q13 0 27 6t25.5 14t20.5 16t13 13l-34 -149h-281q9 12 16 24q6 11 11 23.5t5 24.5v2v594q0 15 -5 27t-11 20q-7 10 -15 17h166q-16 -10 -24 -28t-8 -32v-572h94v0z" />
    <glyph glyph-name="m" unicode="m" horiz-adv-x="565" 
d="M501 0h-163q8 10 15 20q6 8 11 18t5 18v422l-119 -403l-118 402v-410q0 -14 5 -26t11 -21q7 -11 16 -20h-164q9 12 16 24q6 11 11 22.5t5 21.5v609q0 8 -5 18t-11 18q-7 10 -16 19h192q-9 -8 -16 -18q-6 -8 -10 -18t-1 -21l86 -293l85 291q2 11 -1.5 21.5t-9.5 18.5
q-7 10 -16 19h192q-9 -10 -16 -21q-6 -10 -10.5 -22t-4.5 -26v-598q0 -13 4.5 -24.5t10.5 -20.5q7 -11 16 -20z" />
    <glyph glyph-name="n" unicode="n" horiz-adv-x="478" 
d="M427 732q-9 -9 -16 -19q-6 -8 -11 -18t-5 -19v-612q0 -13 5 -24t11 -20q7 -11 16 -20h-170q11 9 18 21q6 10 9.5 24.5t-2.5 31.5l-150 372v-386q0 -14 5 -25.5t11 -19.5q7 -10 16 -18h-164q9 8 16 19q6 9 11 20.5t5 24.5l-1 612q0 7 -5 16.5t-11 18.5q-7 11 -15 21h180
q-10 -10 -17 -21q-6 -10 -10 -21.5t-1 -23.5l143 -356v366q0 9 -5 19t-11 18q-7 10 -16 19h164v0z" />
    <glyph glyph-name="o" unicode="o" 
d="M190 742q33 0 61.5 -12.5t50 -34.5t34 -50.5t12.5 -61.5v-425q0 -33 -12.5 -61.5t-34.5 -50.5t-50.5 -34.5t-61.5 -12.5l-30 -1q-33 0 -61.5 13t-50.5 34.5t-34.5 50.5t-12.5 62v425q0 33 12.5 61.5t34.5 50.5t50.5 34.5t61.5 12.5h31zM244 577q0 22 -16 41.5t-38 19.5
h-31q-23 0 -38.5 -19.5t-15.5 -41.5v-413q0 -22 15.5 -42t38.5 -20l30 1q23 0 38.5 19.5t15.5 41.5z" />
    <glyph glyph-name="p" unicode="p" 
d="M31 665q0 11 -5 22.5t-11 21.5l-15 23h201q33 0 61.5 -12.5t50 -34t34 -50t12.5 -61.5v-176q0 -33 -12.5 -61.5t-34 -50t-50 -34t-61.5 -12.5l-69 1v-179q0 -9 4.5 -19.5t10.5 -20.5q7 -11 16 -22h-163q8 10 15 21q6 9 11 18.5t5 16.5v609zM255 574q0 23 -15.5 38.5
t-38.5 15.5h-69v-284h69q23 0 38.5 16t15.5 38v176z" />
    <glyph glyph-name="q" unicode="q" 
d="M335 43q6 -2 13.5 2.5t14.5 9.5q8 6 17 15v-163q-8 10 -17 19q-8 8 -18.5 13.5t-22.5 7.5q-35 2 -59 18t-38 40q-20 -5 -37 -5h-30q-33 0 -61.5 12.5t-50 34t-34 50t-12.5 61.5v424q0 33 12.5 61.5t34 50t50 34t61.5 12.5h31q33 0 61.5 -12.5t49.5 -34t33.5 -50
t12.5 -61.5v-424q0 -28 -9 -53t-25 -45q9 -14 23 -17zM188 104q23 0 38.5 15.5t15.5 38.5l1 424q0 23 -16 38.5t-38 15.5h-31q-23 0 -38.5 -15.5t-15.5 -38.5v-424q0 -23 15.5 -38.5t38.5 -15.5h30z" />
    <glyph glyph-name="r" unicode="r" horiz-adv-x="422" 
d="M220 -1q2 1 6.5 5t9 11t7.5 18.5t0 27.5l-57 179h-54v-179q0 -9 4.5 -19.5t10.5 -20.5q7 -11 16 -22h-163q8 10 15 21q6 9 11 18.5t5 16.5v609q0 11 -5 22.5t-11 21.5l-15 23h201q33 0 61.5 -12.5t50 -34t34 -50t12.5 -61.5v-176q0 -42 -20.5 -77.5t-54.5 -56.5l34 -101
l34 -102q5 -14 13.5 -25t16.5 -19q10 -10 20 -17h-182zM132 343h69q23 0 38.5 16t15.5 38v176q0 23 -15.5 38.5t-38.5 15.5h-69v-284z" />
    <glyph glyph-name="s" unicode="s" horiz-adv-x="399" 
d="M379 493h-165q9 8 16 18q6 8 11 18t5 20v10q0 39 -17.5 58t-43.5 19q-27 0 -44.5 -19t-17.5 -58q0 -37 16.5 -65t41 -53t53.5 -49.5t53.5 -54.5t41 -68t16.5 -89q0 -185 -164 -185q-42 0 -73.5 9t-52.5 30.5t-31.5 57t-10.5 88.5v20q0 10 -5 20t-11 18q-7 10 -16 18h166
q-9 -9 -16 -19q-6 -8 -11 -18t-5 -19v-27q0 -38 18 -57t45 -19q26 0 45 19t19 57q0 37 -16.5 65t-41.5 53t-54.5 50t-54.5 55t-41.5 67.5t-16.5 88.5q0 97 41 141t124 44q82 0 123.5 -44t41.5 -141q0 -13 5 -23.5t11 -18.5q7 -10 16 -17z" />
    <glyph glyph-name="t" unicode="t" horiz-adv-x="430" 
d="M108 0q9 9 16 19q6 8 11 17.5t5 19.5v578h-69q-12 0 -26.5 -8.5t-26.5 -19.5q-15 -12 -29 -27l28 153h355l28 -153q-14 15 -29 27q-13 11 -27.5 19.5t-26.5 8.5h-73v-580q0 -9 5 -18.5t11 -17.5q7 -10 17 -18h-169v0z" />
    <glyph glyph-name="u" unicode="u" horiz-adv-x="457" 
d="M409 732q-9 -8 -16 -19q-6 -9 -11 -20.5t-5 -23.5v-511q0 -33 -12.5 -61.5t-33.5 -50t-49.5 -34t-61.5 -12.5h-30q-33 0 -62 12.5t-50.5 34t-34 50t-12.5 61.5v517q0 11 -5 21t-11 18q-7 10 -15 18h167q-9 -8 -16 -18q-6 -8 -11 -18t-5 -20v-518q0 -23 16 -38.5t38 -15.5
h30q23 0 38.5 15.5t15.5 38.5v518q0 8 -5 18.5t-11 18.5q-7 10 -15 19h167z" />
    <glyph glyph-name="v" unicode="v" horiz-adv-x="435" 
d="M407 733q-10 -8 -19 -17q-8 -8 -14.5 -18.5t-8.5 -24.5l-110 -605q-2 -12 0.5 -23t6.5 -19.5t8.5 -14t6.5 -8.5l2 -2h-171h-1q9 8 15 19q5 9 8 21.5t1 26.5l-109 605q-3 14 -9.5 24.5t-14.5 18.5q-9 9 -19 17h163q-7 -9 -12 -20q-5 -9 -7.5 -19.5t-0.5 -21.5l72 -422
l72 422q2 11 -0.5 21.5t-7.5 19.5q-5 11 -12 20h161z" />
    <glyph glyph-name="w" unicode="w" horiz-adv-x="623" 
d="M598 733q-10 -8 -19 -17q-8 -8 -14.5 -18.5t-8.5 -24.5l-109 -605q-2 -14 1.5 -26.5t8.5 -21.5q6 -11 15 -19h-1h-167l2 2q2 3 6.5 8.5t8.5 14t6 19.5t0 23l-57 323l-57 -323q-2 -12 0.5 -23t6.5 -19.5t8.5 -14t6.5 -8.5l2 -2h-167h-1q9 8 15 19q5 9 8 21.5t1 26.5
l-108 605q-3 14 -9.5 24.5t-14.5 18.5q-9 9 -19 17h163q-7 -9 -12 -20q-5 -9 -7.5 -19.5t-0.5 -21.5l67 -388l65 377q0 2 0.5 2.5t0.5 2.5q2 13 -4 24.5t-14 21.5q-10 11 -22 21h21h142h21q-12 -10 -21 -21q-8 -9 -14.5 -20.5t-4.5 -22.5q0 -4 1 -5l65 -380l67 388
q2 11 -0.5 21.5t-7.5 19.5q-5 11 -12 20h163z" />
    <glyph glyph-name="x" unicode="x" horiz-adv-x="488" 
d="M277 0l7.5 7.5t12.5 15.5t9.5 19.5t-0.5 19.5l-78 194l-77 -194q-4 -9 -0.5 -19.5t9.5 -19.5t12 -15.5t8 -7.5h-188q10 9 20 20q8 9 16 19.5t13 21.5l14 34.5l30 74.5l40 100l45 112l-116 289l-1 3q-5 11 -12.5 21.5t-15.5 18.5q-10 10 -20 19h188q-11 -10 -19 -21
q-7 -9 -11 -20t0 -22q8 -21 19 -47l20.5 -51l25.5 -64l46 115q11 26 19 47q4 11 0.5 22t-10.5 20q-8 11 -19 21h188q-10 -9 -20 -19q-8 -8 -16 -18.5t-13 -21.5l-1 -3l-115 -289l44.5 -112l40.5 -100l29.5 -74.5l13.5 -34.5q4 -11 12.5 -21.5l16.5 -19.5q10 -11 21 -20h-188
v0z" />
    <glyph glyph-name="y" unicode="y" horiz-adv-x="407" 
d="M403 733q-9 -7 -18 -15q-8 -7 -15 -15.5t-10 -18.5q-2 -5 -8.5 -25l-16 -49.5l-20.5 -65.5l-23 -73l-61 -193h-1v-206q0 -11 5 -23.5t11 -23.5q7 -12 16 -25h-164q9 13 16 25q6 11 11 22.5t5 20.5v211l-62 194l-23.5 73l-21 65.5l-16 50t-7.5 25.5q-4 10 -10.5 18.5
t-13.5 14.5q-8 7 -18 13h177q-11 -8 -19 -18q-7 -8 -11.5 -18t-0.5 -21l76 -240l77 241q3 8 -1.5 18.5t-11.5 18.5q-8 10 -18 19h177z" />
    <glyph glyph-name="z" unicode="z" horiz-adv-x="363" 
d="M239 100q18 0 32.5 7t25.5 16q12 11 22 24l-28 -148h-291l186 631h-100q-18 0 -33.5 -7.5t-26.5 -16.5q-13 -11 -23 -23l34 149h288l-189 -632h103v0z" />
    <glyph glyph-name="four" unicode="4" horiz-adv-x="461" 
d="M224 647q4 8 5 20t-1.5 24t-8.5 23t-17 18h157q-9 -7 -15 -17q-5 -8 -9.5 -19t-4.5 -24v-456h14q14 0 26.5 4.5t21.5 10.5q11 6 19 15v-159q-9 8 -20 14q-9 5 -20.5 10t-23.5 5h-17v-50q0 -14 4.5 -26t10.5 -21q7 -11 16 -19h-163q8 9 15 20q6 9 11 20t5 24v52h-229v100z
M229 216v241l-124 -241h124z" />
    <glyph glyph-name="five" unicode="5" horiz-adv-x="403" 
d="M328 158q0 -33 -12.5 -61.5t-34 -50t-50.5 -34t-62 -12.5h-169v104v79v66h129q-8 -9 -14 -20q-5 -9 -9.5 -20.5t-4.5 -23.5v-81h69q22 0 38 16t16 38v184q0 23 -16 38.5t-38 15.5h-170v328v3h313v-132q-8 8 -19 15q-9 6 -20.5 11t-23.5 5h-149v-126h69q33 0 61.5 -12.5
t50 -34t34 -50t12.5 -61.5v-184z" />
    <glyph glyph-name="six" unicode="6" horiz-adv-x="418" 
d="M189 456q33 0 61.5 -12.5t50 -34t34 -50t12.5 -61.5l-1 -140q0 -32 -12 -60t-33 -49.5t-49 -34t-60 -13.5h-4h-15l-15 -1q-33 0 -61.5 12.5t-50 34t-34 50t-12.5 61.5v425q0 33 12.5 61.5t34 50t50 34t61.5 12.5h31q33 0 61.5 -12.5t49.5 -34t33.5 -50t12.5 -61.5v-24
q0 -14 5 -26t11 -21q7 -11 16 -19h-167q9 8 16 18q6 8 11 19t5 24v29q0 22 -16 38t-38 16h-31q-23 0 -38.5 -16t-15.5 -38v-137q28 10 54 10h31zM104 158q0 -22 15.5 -38t38.5 -16l30 1q23 0 38.5 15.5t15.5 37.5v65h1v75q0 23 -15.5 38.5t-38.5 15.5h-31q-23 0 -38.5 -15.5
t-15.5 -38.5v-140z" />
    <glyph glyph-name="seven" unicode="7" horiz-adv-x="410" 
d="M144 67q-5 -14 -1.5 -26.5t10.5 -21.5q8 -11 19 -19h-193q10 7 21 17q8 8 17.5 19.5t16.5 27.5l219 575h-173q-20 0 -34.5 -8t-25.5 -18q-12 -11 -21 -25v151h365v-100z" />
    <glyph glyph-name="eight" unicode="8" horiz-adv-x="426" 
d="M309 393q24 -22 38.5 -52.5t14.5 -65.5v-117q0 -33 -12.5 -61.5t-34 -49.5t-50 -33.5t-61.5 -12.5h-23h-23q-33 0 -61.5 12.5t-50 33.5t-34 49.5t-12.5 61.5v117q0 35 14 65.5t39 52.5q-22 22 -34.5 50.5t-12.5 61.5v70q0 33 12.5 61.5t34 50t50.5 34t62 12.5h16h16
q33 0 61.5 -12.5t50 -34t34 -50t12.5 -61.5v-70q0 -33 -12.5 -61.5t-33.5 -50.5zM164 629q-23 0 -38.5 -15.5t-15.5 -38.5v-70q0 -23 15.5 -41.5t38.5 -18.5h17h17q22 0 37.5 18.5t15.5 41.5v70q0 23 -15.5 38.5t-37.5 15.5h-17h-17zM258 275q0 23 -16 41.5t-38 18.5h-6h-17
h-17h-6q-23 0 -38.5 -18.5t-15.5 -41.5v-117q0 -22 15.5 -37.5t38.5 -15.5h6h17h17h6q22 0 38 15.5t16 37.5v117z" />
    <glyph glyph-name="nine" unicode="9" horiz-adv-x="418" 
d="M159 285q-33 0 -61.5 12.5t-50 34t-34 50t-12.5 61.5v139q0 32 12 60.5t33 50t49 34t60 13.5h5h14l15 1q33 0 62 -12.5t50.5 -34t34 -50t12.5 -61.5v-425q0 -33 -12.5 -61.5t-34 -50t-50 -34t-61.5 -12.5h-31q-33 0 -61.5 12.5t-50 34t-34 50t-12.5 61.5v24q0 14 -5 26
t-11 21q-7 11 -15 19h167q-9 -8 -16 -18q-6 -8 -11 -19.5t-5 -24.5v-28q0 -22 15.5 -38t38.5 -16h31q23 0 38.5 16t15.5 38v137q-24 -10 -54 -10h-31zM243 583q0 22 -15.5 38t-37.5 16l-30 -1q-23 0 -38.5 -15.5t-15.5 -38.5v-64h-1v-75q0 -23 15.5 -38.5t38.5 -15.5h31
q22 0 37.5 15.5t15.5 38.5v140z" />
    <glyph glyph-name="one" unicode="1" horiz-adv-x="227" 
d="M138 628v-562q0 -14 4.5 -26t10.5 -21q7 -11 16 -19h-168q8 9 15 20q6 9 11 20t5 24v485q0 13 -6.5 25t-14.5 20q-10 10 -21 18l148 120v-104z" />
    <glyph glyph-name="period" unicode="." horiz-adv-x="182" 
d="M0 124h114v-125h-114v125v0z" />
    <glyph glyph-name="comma" unicode="," horiz-adv-x="172" 
d="M46 -1h-46v123h113v-123q0 -19 -9.5 -34.5t-23.5 -27t-31 -18.5t-32 -7q8 9 14 21q5 11 10 27t5 39z" />
    <glyph glyph-name="ampersand" unicode="&#x26;" horiz-adv-x="556" 
d="M381 319q4 5 7.5 15t5.5 20q3 11 4 25l110 -110q-10 1 -21 -1q-9 -2 -18.5 -6t-16.5 -12q-6 -6 -15.5 -16.5l-20 -22l-21 -23t-17.5 -20.5l40 -58.5l43 -61.5q8 -10 16.5 -18.5t16.5 -15.5q9 -8 18 -15h-184q6 4 10 9q3 4 5 9.5t-1 11.5q-5 7 -14 18.5t-14 18.5
q-41 -37 -73 -52.5t-64 -15.5q-83 0 -131.5 45t-48.5 138q0 34 10 61.5t26 51t36.5 43t41.5 37.5q-35 58 -50 99t-15 80q0 96 37.5 138t120.5 42h1q82 0 119.5 -42t37.5 -138q0 -36 -9.5 -65t-25.5 -53t-37 -44t-43 -38l33.5 -49.5l37.5 -54.5l7 7.5l17.5 18.5l21 23
t17.5 21zM149 560q0 -20 12.5 -48t33.5 -65q27 24 45.5 51t18.5 62q0 38 -14.5 57.5t-40.5 21.5q-26 -2 -40.5 -21.5t-14.5 -57.5zM104 169q-1 -24 14 -39t38.5 -18t50 6.5t47.5 33.5l-47.5 67t-41.5 59q-23 -23 -41.5 -50t-19.5 -59z" />
    <glyph glyph-name="question" unicode="?" horiz-adv-x="391" 
d="M133 584q0 -11 4.5 -20t9.5 -16q6 -8 15 -15h-158q9 7 15 15q5 7 9.5 16t5.5 19q0 95 38 134t120 39t120 -42t38 -138q0 -51 -16.5 -85.5t-41.5 -60t-54.5 -44.5t-54.5 -39.5t-41.5 -46t-16.5 -62.5q0 -7 4.5 -15t10.5 -15q6 -9 15 -17h-159q8 6 14 13q5 6 9.5 13.5
t5.5 17.5q0 51 16.5 86.5t40.5 62t53 47.5t53 42.5t40.5 47.5t16.5 63q0 74 -56 74t-56 -74zM16 124h114v-125h-114v125z" />
    <glyph glyph-name="questiondown" unicode="&#xbf;" horiz-adv-x="391" 
d="M133 584q0 -11 4.5 -20t9.5 -16q6 -8 15 -15h-158q9 7 15 15q5 7 9.5 16t5.5 19q0 95 38 134t120 39t120 -42t38 -138q0 -51 -16.5 -85.5t-41.5 -60t-54.5 -44.5t-54.5 -39.5t-41.5 -46t-16.5 -62.5q0 -7 4.5 -15t10.5 -15q6 -9 15 -17h-159q8 6 14 13q5 6 9.5 13.5
t5.5 17.5q0 51 16.5 86.5t40.5 62t53 47.5t53 42.5t40.5 47.5t16.5 63q0 74 -56 74t-56 -74zM16 124h114v-125h-114v125z" />
    <glyph glyph-name="quoteright" unicode="&#x2019;" horiz-adv-x="162" 
d="M46 676h-46v122h113v-122q0 -19 -9.5 -35t-23.5 -27.5t-31 -18.5t-32 -7q8 8 14 21q5 11 10 27.5t5 39.5z" />
    <glyph glyph-name="quotesingle" unicode="'" horiz-adv-x="169" 
d="M46 676h-46v122h113v-122q0 -19 -9.5 -35t-23.5 -27.5t-31 -18.5t-32 -7q8 8 14 21q5 11 10 27.5t5 39.5z" />
    <glyph glyph-name="colon" unicode=":" horiz-adv-x="188" 
d="M0 500h114v-125h-114v125v0zM0 160h114v-125h-114v125z" />
    <glyph glyph-name="semicolon" unicode=";" horiz-adv-x="177" 
d="M46 33h-46v123h113v-123q0 -19 -9.5 -34.5t-23.5 -27t-31 -18.5t-32 -7q8 9 14 21q5 11 10 27t5 39zM0 499h114v-125h-114v125z" />
    <glyph glyph-name="Aacute" unicode="&#xc1;" horiz-adv-x="426" 
d="M224 1000h98l-69 -125h-97zM396 0q-8 9 -14 19q-5 8 -10 18t-7 19q-1 4 -5 36l-10.5 81l-14 110l-15 124.5l-15 124.5l-13.5 108.5l-10 77.5t-4 32q-2 9 2.5 20.5t10.5 21.5q7 11 17 23h-248q9 -12 16 -23q6 -10 11 -21.5t3 -22.5q-1 -3 -4.5 -33.5t-10 -79l-14 -109.5
l-15.5 -125l-15.5 -125.5l-14 -110.5t-10 -80t-4.5 -35q-2 -8 -6.5 -16.5t-9.5 -16.5q-6 -9 -14 -17h163q-9 11 -16 23q-6 10 -10.5 22.5t-2.5 24.5l11 82h133l4 -26q2 -11 4 -25.5l4 -28.5t-2.5 -27t-10.5 -23q-7 -11 -17 -22h164zM132 253l52 450l52 -450h-104z" />
    <glyph glyph-name="Eacute" unicode="&#xc9;" horiz-adv-x="389" 
d="M202 1001h98l-69 -125h-97zM268 101h-136v267h98q14 0 24.5 -5t17.5 -11q8 -7 14 -15v163q-8 -9 -17 -16q-8 -6 -18 -10.5t-21 -4.5h-1h-97v242h130h3q14 -2 25 -7t20 -10q10 -6 19 -14l-20 132h-309q8 -10 15 -21q6 -9 11 -20t5 -21v-678q0 -12 -5 -24.5t-11 -23.5
q-7 -12 -15 -24h311l20 132q-7 -8 -17 -14q-8 -5 -20 -10.5t-26 -6.5z" />
    <glyph glyph-name="Iacute" unicode="&#xcd;" horiz-adv-x="221" 
d="M107 997h98l-69 -125h-97zM166 810h-166q8 -9 15 -20q6 -9 11 -20t5 -22v-684q0 -13 -5 -24t-11 -20q-7 -11 -15 -20h166q-9 8 -16 19q-6 9 -10.5 21t-4.5 26v684q0 13 4.5 24t10.5 19q7 10 16 17z" />
    <glyph glyph-name="Oacute" unicode="&#xd3;" 
d="M199 1036h98l-69 -125h-97zM190 828h-31q-33 0 -61.5 -13t-50.5 -35.5t-34.5 -51.5t-12.5 -62v-508q0 -33 12.5 -62t34.5 -51.5t50.5 -35.5t61.5 -13l30 1q33 0 61.5 13t50.5 35t34.5 51t12.5 62v508q0 33 -12.5 62t-34 51.5t-50 35.5t-61.5 13zM243 160
q0 -22 -15.5 -40.5t-38.5 -18.5l-30 -1q-23 0 -38.5 19t-15.5 41v504q0 22 15.5 41t38.5 19h31q22 0 38 -19t16 -41z" />
    <glyph glyph-name="Uacute" unicode="&#xda;" horiz-adv-x="457" 
d="M240 1037h98l-69 -125h-97zM242 812q8 -9 15 -19q6 -8 11 -18.5t5 -18.5v-598q0 -23 -15.5 -38.5t-38.5 -15.5h-30q-22 0 -38 15.5t-16 38.5v598q0 10 5 20t11 18q7 10 16 18h-167q8 -8 15 -18q6 -8 11 -18t5 -21v-597q0 -33 12.5 -61.5t34 -50t50.5 -34t62 -12.5h30
q33 0 61.5 12.5t49.5 34t33.5 50t12.5 61.5v591q0 12 5 23.5t11 20.5q7 11 16 19h-167z" />
    <glyph glyph-name="ydieresis" unicode="&#xff;" horiz-adv-x="407" 
d="M403 733q-9 -7 -18 -15q-8 -7 -15 -15.5t-10 -18.5q-2 -5 -8.5 -25l-16 -49.5l-20.5 -65.5l-23 -73l-61 -193h-1v-206q0 -11 5 -23.5t11 -23.5q7 -12 16 -25h-164q9 13 16 25q6 11 11 22.5t5 20.5v211l-62 194l-23.5 73l-21 65.5l-16 50t-7.5 25.5q-4 10 -10.5 18.5
t-13.5 14.5q-8 7 -18 13h177q-11 -8 -19 -18q-7 -8 -11.5 -18t-0.5 -21l76 -240l77 241q3 8 -1.5 18.5t-11.5 18.5q-8 10 -18 19h177z" />
    <glyph glyph-name="slash" unicode="/" horiz-adv-x="405" 
d="M374 730q-11 -8 -21 -17q-8 -8 -16.5 -18.5t-13.5 -24.5l-196 -605q-5 -14 -4 -26t4 -21q4 -11 9 -19h-163q11 8 22 19q9 9 17 20t13 24l197 607q4 11 2.5 21.5t-4.5 19.5q-4 11 -9 20h163v0z" />
    <glyph glyph-name="hyphen" unicode="-" horiz-adv-x="289" 
d="M241 263q-6 7 -14 12q-7 5 -16.5 8.5t-20.5 3.5h-134q-12 0 -22 -3.5t-18 -8.5q-9 -5 -16 -12v138q7 -7 16 -12q8 -5 17.5 -8t20.5 -3h135q9 0 18 3t17 8q9 5 17 12v-138v0z" />
    <glyph glyph-name="exclam" unicode="!" horiz-adv-x="212" 
d="M19 119h125v-124h-125v124zM163 730q-9 -8 -16 -17q-6 -8 -10.5 -18.5t-4.5 -24.5v-410q0 -14 4.5 -26.5t10.5 -21.5q7 -11 16 -19h-163q8 9 15 20q6 9 11 20t5 24v412q0 11 -5 21.5t-11 19.5q-7 11 -15 20h163z" />
    <glyph glyph-name="percent" unicode="%" horiz-adv-x="555" 
d="M416 388q35 0 59 -24t24 -59v-224q0 -35 -24 -59t-59 -24h-16q-35 0 -59 24t-24 59v224q0 35 24 59t59 24h16zM440 294q0 10 -7 17.5t-18 7.5h-14q-11 0 -18.5 -7.5t-7.5 -17.5v-202q0 -10 7.5 -17.5t18.5 -7.5h14q11 0 18 7.5t7 17.5v202zM99 731q35 0 59 -24t24 -59
v-224q0 -34 -24 -58.5t-59 -24.5h-16q-35 0 -59 24t-24 59v224q0 35 24 59t59 24h16zM125 637q0 11 -7.5 18t-18.5 7h-15q-11 0 -18 -7t-7 -18v-201q0 -11 7 -18t18 -7h15q11 0 18 7t7 18zM485 731q-11 -8 -21 -17q-8 -8 -16.5 -18.5t-13.5 -24.5l-292 -605q-5 -14 -4 -26
t4 -21q4 -11 9 -19h-143q11 8 22 19q9 9 17 20t13 24l293 607q4 11 2.5 21.5t-4.5 19.5q-4 11 -9 20h143z" />
    <glyph glyph-name="plus" unicode="+" horiz-adv-x="363" 
d="M291 297q-6 7 -14 12q-7 5 -16.5 8.5t-20.5 3.5h-184q-12 0 -22 -3.5t-18 -8.5q-9 -5 -16 -12v132q7 -7 16 -12q8 -5 17.5 -8t20.5 -3h185q9 0 18 3t17 8q9 5 17 12v-132zM79 218q7 6 12 14q5 7 8.5 16t3.5 21v184q0 12 -3.5 22t-8.5 18q-5 9 -12 16h132q-7 -8 -12 -17
q-5 -8 -8 -17t-3 -20v-185q0 -10 3 -18.5t8 -16.5q5 -9 12 -17h-132z" />
    <glyph glyph-name="equal" unicode="=" horiz-adv-x="289" 
d="M241 390q-6 7 -14 12q-7 5 -16.5 8.5t-20.5 3.5h-134q-12 0 -22 -3.5t-18 -8.5q-9 -5 -16 -12v132q7 -7 16 -12q8 -5 17.5 -8t20.5 -3h135q9 0 18 3t17 8q9 5 17 12v-132zM241 176q-6 7 -14 12q-7 5 -16.5 8.5t-20.5 3.5h-134q-12 0 -22 -3.5t-18 -8.5q-9 -5 -16 -12v132
q7 -7 16 -12q8 -5 17.5 -8t20.5 -3h135q9 0 18 3t17 8q9 5 17 12v-132z" />
    <glyph glyph-name="parenleft" unicode="(" horiz-adv-x="191" 
d="M146 -31q-32 9 -58.5 25t-46 37t-30.5 47t-11 54v466q0 28 11 54t30.5 47.5t46 37.5t58.5 25q-11 -18 -19 -43q-8 -21 -13.5 -50.5t-5.5 -64.5v-490q0 -24 5.5 -49.5t13.5 -46.5q8 -25 19 -49z" />
    <glyph glyph-name="parenright" unicode=")" horiz-adv-x="192" 
d="M-18 762q32 -9 58.5 -25t46 -37t30.5 -47t11 -54v-466q0 -29 -11 -54.5t-30.5 -47t-46 -37.5t-58.5 -25q10 18 19 43q7 21 13 50t6 65v490q0 23 -6 49t-13 47q-9 25 -19 49z" />
    <glyph glyph-name="asterisk" unicode="*" horiz-adv-x="358" 
d="M270 573q5 -4 11.5 -5t12.5 -1t13 1l-48 -72q-1 6 -4 12q-2 5 -5.5 10.5t-9.5 10.5l-60 40v-72q0 -8 2.5 -14t5.5 -11l8 -10h-86q4 6 8 11l6 10.5t3 12.5v73l-60 -40q-6 -5 -10 -10.5t-6 -10.5q-3 -6 -4 -12l-47 72q7 -1 13 -1q5 0 11.5 1t12.5 5l69 45l-71 47
q-6 4 -12 4.5t-11 0.5l-12 -2l47 72q1 -7 4 -13q2 -5 5.5 -10.5t8.5 -8.5l62 -41v74q0 6 -2.5 11.5t-5.5 10.5q-4 5 -8 11h85q-4 -4 -8 -9q-3 -5 -5.5 -10.5t-2.5 -12.5v-75l61 41q5 3 8.5 8.5t5.5 10.5q3 6 4 13l48 -72l-12 2q-5 0 -11.5 -0.5t-12.5 -4.5l-70 -47l69 -45v0
z" />
    <glyph glyph-name="dollar" unicode="$" horiz-adv-x="399" 
d="M106 561q0 -37 16.5 -65t41 -53t53.5 -49.5t53.5 -54.5t41 -68t16.5 -89q0 -166 -130 -182v-23q0 -9 3.5 -18t8.5 -16q5 -9 13 -16h-133q7 5 12 12q5 6 8.5 14t4.5 19v29q-59 10 -89 50.5t-30 130.5v20q0 10 -5 20t-11 18q-7 10 -16 18h166q-9 -9 -16 -19q-6 -8 -11 -18
t-5 -19v-27q0 -38 18 -57t45 -19q26 0 45 19t19 57q0 37 -16.5 65t-41.5 53t-54.5 50t-54.5 55t-41.5 67.5t-16.5 88.5q0 81 28.5 124t86.5 55v23q0 9 -4 17.5t-9 16.5t-12 16h133q-7 -6 -12 -12t-9 -13.5t-5 -17.5v-27q66 -8 99.5 -51.5t33.5 -130.5q0 -13 5 -23.5
t11 -18.5q7 -10 16 -17h-165q9 8 16 18q6 8 11 18t5 20v10q0 39 -17.5 58t-43.5 19q-27 0 -44.5 -19t-17.5 -58z" />
    <glyph glyph-name="numbersign" unicode="#" horiz-adv-x="568" 
d="M508 427q-8 9 -17 16q-8 6 -18.5 11t-24.5 5h-383q-14 0 -26 -5t-21 -11q-11 -7 -19 -16v163q9 -9 20 -16q9 -6 20 -10.5t24 -4.5h384q11 0 21.5 4.5t19.5 10.5q11 7 20 16v-163zM508 139q-8 9 -17 16q-8 6 -18.5 11t-24.5 5h-383q-14 0 -26 -5t-21 -11q-11 -7 -19 -15
v163q9 -9 20 -16q9 -6 20 -10.5t24 -4.5h384q11 0 21.5 4.5t19.5 10.5q11 6 20 15v-163zM228 730q-9 -8 -16 -17q-6 -8 -10.5 -18.5t-4.5 -24.5v-604q0 -14 4.5 -26t10.5 -21q7 -11 16 -19h-163q8 8 15 19q6 9 11 20t5 24v606q0 11 -5 21.5t-11 19.5q-7 11 -15 20h163z
M442 730q-9 -8 -16 -17q-6 -8 -10.5 -18.5t-4.5 -24.5v-604q0 -14 4.5 -26t10.5 -21q7 -11 16 -19h-163q8 8 15 19q6 9 11 20t5 24v606q0 11 -5 21.5t-11 19.5q-7 11 -15 20h163z" />
    <glyph glyph-name="aacute" unicode="&#xe1;" horiz-adv-x="426" 
d="M224 921h98l-69 -125h-97zM396 0q-8 9 -14 19q-5 8 -10 18t-7 19q-1 4 -5 32.5l-10.5 71.5l-14 97l-15 109.5l-15 108.5l-13.5 95l-10 68.5t-4 28.5q-2 9 2.5 20.5t10.5 21.5q7 11 17 23h-248q9 -12 16 -23q6 -10 11 -21.5t3 -22.5q-1 -3 -4.5 -30t-10 -69.5t-14 -96.5
l-15.5 -110l-15.5 -110l-14 -97t-10 -70.5t-4.5 -31.5q-2 -8 -6.5 -16.5t-9.5 -16.5q-6 -9 -14 -17h163q-9 11 -16 23q-6 10 -10.5 22.5t-2.5 24.5l11 82h133l4 -26q2 -11 4 -25.5l4 -28.5t-2.5 -27t-10.5 -23q-7 -11 -17 -22h164zM132 253l52 367l52 -367h-104z" />
    <glyph glyph-name="eacute" unicode="&#xe9;" horiz-adv-x="389" 
d="M224 921h98l-69 -125h-97zM268 101h-136v206h98q14 0 24.5 -5t17.5 -11q8 -7 14 -15v163q-8 -9 -17 -16q-8 -6 -18 -10.5t-21 -4.5h-1h-97v224h130h3q14 -2 26.5 -8t22.5 -14q11 -9 22 -19l-27 142h-309q8 -10 15 -21q6 -9 11 -20t5 -21v-599q0 -12 -5 -24.5t-11 -23.5
q-7 -12 -15 -24h311l27 141q-10 -10 -21 -19q-10 -8 -22.5 -14t-26.5 -7z" />
    <glyph glyph-name="iacute" unicode="&#xed;" horiz-adv-x="209" 
d="M105 921h98l-69 -125h-97zM166 732h-166q8 -9 15 -20q6 -9 11 -20t5 -22v-606q0 -13 -5 -24t-11 -20q-7 -11 -15 -20h166q-9 8 -16 19q-6 9 -10.5 21t-4.5 26v606q0 13 4.5 24t10.5 19q7 10 16 17z" />
    <glyph glyph-name="oacute" unicode="&#xf3;" 
d="M224 921h98l-69 -125h-97zM190 742h-31q-33 0 -61.5 -12.5t-50.5 -34.5t-34.5 -50.5t-12.5 -61.5v-425q0 -33 12.5 -62t34.5 -50.5t50.5 -34.5t61.5 -13l30 1q33 0 61.5 12.5t50.5 34.5t34.5 50.5t12.5 61.5v425q0 33 -12.5 61.5t-34 50.5t-50 34.5t-61.5 12.5zM243 164
q0 -22 -15.5 -41.5t-38.5 -19.5l-30 -1q-23 0 -38.5 20t-15.5 42v413q0 22 15.5 41.5t38.5 19.5h31q22 0 38 -19.5t16 -41.5z" />
    <glyph glyph-name="uacute" unicode="&#xfa;" horiz-adv-x="457" 
d="M224 921h98l-69 -125h-97zM242 732q8 -9 15 -19q6 -8 11 -18.5t5 -18.5v-518q0 -23 -15.5 -38.5t-38.5 -15.5h-30q-22 0 -38 15.5t-16 38.5v518q0 10 5 20t11 18q7 10 16 18h-167q8 -8 15 -18q6 -8 11 -18t5 -21v-517q0 -33 12.5 -61.5t34 -50t50.5 -34t62 -12.5h30
q33 0 61.5 12.5t49.5 34t33.5 50t12.5 61.5v511q0 12 5 23.5t11 20.5q7 11 16 19h-167z" />
    <glyph glyph-name="quotedblright" unicode="&#x201d;" horiz-adv-x="343" 
d="M46 674h-46v122h113v-122q0 -19 -9.5 -35t-23.5 -27.5t-31 -18.5t-32 -7q8 8 14 21q5 11 10 27.5t5 39.5zM223 674h-46v122h113v-122q0 -19 -9.5 -35t-23.5 -27.5t-31 -18.5t-32 -7q8 8 14 21q5 11 10 27.5t5 39.5z" />
    <glyph glyph-name="quotedblleft" unicode="&#x201c;" horiz-adv-x="333" 
d="M245 710h46v-122h-113v122q0 19 9.5 35t23.5 27.5t31 18.5t32 7q-9 -10 -15 -22q-5 -11 -9.5 -27t-4.5 -39zM68 710h46v-122h-113v122q0 19 9.5 35t23.5 27.5t31 18.5t32 7q-9 -10 -15 -22q-5 -11 -9.5 -27t-4.5 -39z" />
    <glyph glyph-name="ntilde" unicode="&#xf1;" horiz-adv-x="478" 
d="M309 902l57 -40q-15 -41 -39 -56.5t-52 -15.5q-17 0 -29.5 4t-23.5 9t-21.5 9t-22.5 4q-14 0 -25 -5.5t-21 -25.5l-57 40q16 42 39.5 57.5t51.5 15.5q17 0 29.5 -4t23.5 -9.5t21.5 -9.5t22.5 -4q14 0 25 5.5t21 25.5zM427 732h-164q9 -9 16 -19q6 -8 11 -18t5 -19v-366
l-143 356q-3 12 1 23.5t10 21.5q7 11 17 21h-180q8 -10 15 -21q6 -9 11 -18.5t5 -16.5l1 -612q0 -13 -5 -24.5t-11 -20.5q-7 -11 -16 -19h164q-9 8 -16 18q-6 8 -11 19.5t-5 25.5v386l150 -372q6 -17 2.5 -31.5t-9.5 -24.5q-7 -12 -18 -21h170q-9 9 -16 20q-6 9 -11 20
t-5 24v612q0 9 5 19t11 18q7 10 16 19z" />
    <glyph glyph-name="Ntilde" unicode="&#xd1;" horiz-adv-x="478" 
d="M309 990l57 -40q-15 -41 -39 -56.5t-52 -15.5q-17 0 -29.5 4t-23.5 9t-21.5 9t-22.5 4q-14 0 -25 -5.5t-21 -25.5l-57 40q16 42 39.5 57.5t51.5 15.5q17 0 29.5 -4t23.5 -9.5t21.5 -9.5t22.5 -4q14 0 25 5.5t21 25.5zM427 810h-164q9 -9 16 -19q6 -8 11 -18t5 -19v-443
l-143 433q-3 12 1 23.5t10 21.5q7 11 17 21h-180q8 -10 15 -21q6 -9 11 -18.5t5 -16.5l1 -690q0 -13 -5 -24.5t-11 -20.5q-7 -11 -16 -19h164q-9 8 -16 18q-6 8 -11 19.5t-5 25.5v437l150 -423q6 -17 2.5 -31.5t-9.5 -24.5q-7 -12 -18 -21h170q-9 9 -16 20q-6 9 -11 20
t-5 24v690q0 9 5 19t11 18q7 10 16 19z" />
    <glyph glyph-name="A" unicode="A" horiz-adv-x="426" 
d="M232 0q10 11 17 22q6 10 10.5 23t2.5 27l-4 28.5t-4 25.5l-4 26h-133l-11 -82q-2 -12 2.5 -24.5t10.5 -22.5q7 -12 16 -23h-163q8 8 14 17q5 8 9.5 16.5t6.5 16.5q1 4 4.5 35t10 80l14 110.5l15.5 125.5l15.5 125l14 109.5t10 79t4.5 33.5q2 11 -3 22.5t-11 21.5
q-7 11 -16 23h248q-10 -12 -17 -23q-6 -10 -10.5 -21.5t-2.5 -20.5q0 -2 4 -32l10 -77.5l13.5 -108.5l15 -124.5l15 -124.5l14 -110l10.5 -81t5 -36q2 -9 7 -19t10 -18q6 -10 14 -19h-164zM236 253l-52 450l-52 -450h104z" />
    <glyph glyph-name="B" unicode="B" 
d="M305 437q24 -21 38.5 -51.5t14.5 -65.5v-162q0 -33 -12.5 -61.5t-34 -50t-50 -34t-61.5 -12.5l-200 1q9 11 16 25q6 11 11 26.5t5 32.5v665q0 14 -5 27t-11 24q-7 11 -16 22h193q33 0 61.5 -12.5t50 -33.5t34 -49.5t12.5 -61.5v-117q0 -32 -12.5 -61t-33.5 -51zM133 495
h60q23 0 38.5 16t15.5 38v117q0 22 -15.5 37.5t-38.5 15.5h-60v-224zM254 320q0 22 -15.5 37.5t-38.5 15.5h-67v-269h67q23 0 38.5 15.5t15.5 38.5v162z" />
    <glyph glyph-name="C" unicode="C" horiz-adv-x="409" 
d="M242 196q0 14 -5 26t-11 21q-7 11 -15 20h166q-9 -8 -16 -19q-6 -9 -10.5 -20.5t-4.5 -22.5v-43q0 -33 -12.5 -61.5t-34 -50t-50 -34t-61.5 -12.5h-30q-33 0 -61.5 12.5t-50 33.5t-34 49.5t-12.5 61.5v519q0 33 12.5 61.5t34 50t50 34t61.5 12.5h31q33 0 61.5 -12.5
t49.5 -34t33.5 -50t12.5 -61.5v-32q0 -14 5 -26t11 -21q7 -11 16 -19h-167q9 8 16 18q6 8 11 19t5 25v36q0 23 -16 38.5t-38 15.5h-31q-23 0 -38.5 -15.5t-15.5 -38.5v-519q0 -22 15.5 -37.5t38.5 -15.5h30q23 0 38.5 15.5t15.5 38.5v38v0z" />
    <glyph glyph-name="tilde" unicode="&#x2dc;" horiz-adv-x="456" 
d="M309 990l57 -40q-15 -41 -39 -56.5t-52 -15.5q-17 0 -29.5 4t-23.5 9t-21.5 9t-22.5 4q-14 0 -25 -5.5t-21 -25.5l-57 40q16 42 39.5 57.5t51.5 15.5q17 0 29.5 -4t23.5 -9.5t21.5 -9.5t22.5 -4q14 0 25 5.5t21 25.5z" />
    <glyph glyph-name="acute" unicode="&#xb4;" horiz-adv-x="465" 
d="M224 1000h98l-69 -125h-97z" />
    <glyph glyph-name="quoteleft" unicode="&#x2018;" horiz-adv-x="153" 
d="M68 710h46v-122h-113v122q0 19 9.5 35t23.5 27.5t31 18.5t32 7q-9 -10 -15 -22q-5 -11 -9.5 -27t-4.5 -39z" />
    <glyph glyph-name="macron" unicode="&#xaf;" horiz-adv-x="833" 
 />
    </font>
</defs>
</svg>
