<?xml version="1.0" encoding="UTF-8" standalone="no"?>
<svg
   xmlns:dc="http://purl.org/dc/elements/1.1/"
   xmlns:cc="http://creativecommons.org/ns#"
   xmlns:rdf="http://www.w3.org/1999/02/22-rdf-syntax-ns#"
   xmlns:svg="http://www.w3.org/2000/svg"
   xmlns="http://www.w3.org/2000/svg"
   xmlns:sodipodi="http://sodipodi.sourceforge.net/DTD/sodipodi-0.dtd"
   xmlns:inkscape="http://www.inkscape.org/namespaces/inkscape"
   sodipodi:docname="big-tostada-main-logo_W50_whiteBorder.svg"
   inkscape:version="1.0 (4035a4fb49, 2020-05-01)"
   id="svg4945"
   version="1.1"
   viewBox="0 0 55.404388 51.621632"
   height="51.621632mm"
   width="55.404388mm">
  <defs
     id="defs4939">
    <clipPath
       id="clipPath402"
       clipPathUnits="userSpaceOnUse">
      <path
         id="path400"
         d="m 563.158,610.943 c -2.854,-1.057 -4.225,-3.404 -5.202,-5.672 v 0 c -0.978,-2.268 -1.643,-7.902 -3.324,-13.025 v 0 c -1.682,-5.123 -6.024,-9.151 -12.438,-13.649 v 0 c -6.414,-4.499 -12.438,-5.32 -15.41,-9.348 v 0 c -2.971,-4.029 -2.971,-7.118 -3.207,-8.644 v 0 c -0.234,-1.525 1.095,-4.263 1.095,-4.263 v 0 c 0,0 2.347,5.319 6.259,8.527 v 0 c 3.911,3.207 16.057,4.21 23.348,7.587 v 0 c 7.433,3.441 19.556,9.935 20.378,22.02 v 0 c 0.822,12.085 -4.536,15.645 -4.536,15.645 v 0 c 0,0 -2.503,1.144 -4.959,1.144 v 0 c -0.691,0 -1.378,-0.091 -2.004,-0.322" />
    </clipPath>
  </defs>
  <sodipodi:namedview
     inkscape:window-maximized="0"
     inkscape:window-y="0"
     inkscape:window-x="64"
     inkscape:window-height="1030"
     inkscape:window-width="1541"
     showgrid="false"
     inkscape:document-rotation="0"
     inkscape:current-layer="layer1"
     inkscape:document-units="mm"
     inkscape:cy="188.98126"
     inkscape:cx="44.701204"
     inkscape:zoom="0.35"
     inkscape:pageshadow="2"
     inkscape:pageopacity="0.0"
     borderopacity="1.0"
     bordercolor="#666666"
     pagecolor="#ffffff"
     id="base" />
  <metadata
     id="metadata4942">
    <rdf:RDF>
      <cc:Work
         rdf:about="">
        <dc:format>image/svg+xml</dc:format>
        <dc:type
           rdf:resource="http://purl.org/dc/dcmitype/StillImage" />
        <dc:title></dc:title>
      </cc:Work>
    </rdf:RDF>
  </metadata>
  <g
     transform="translate(-94.00614,-98.165375)"
     id="layer1"
     inkscape:groupmode="layer"
     inkscape:label="Layer 1">
    <g
       style="stroke:#ffffff;stroke-width:0.858747;stroke-miterlimit:4;stroke-dasharray:none;stroke-opacity:1"
       transform="matrix(0.21567284,0,0,-0.21567284,57.461221,277.48834)"
       id="g1413">
      <g
         style="stroke:#ffffff;stroke-width:0.858747;stroke-miterlimit:4;stroke-dasharray:none;stroke-opacity:1"
         id="g272"
         transform="translate(197.07503,628.91901)">
        <path
           d="m 0,0 c 0.432,0.425 0.815,0.875 1.151,1.348 0.287,0.378 0.551,0.78 0.791,1.206 0.24,0.473 0.361,0.946 0.361,1.419 v 41.01 h -4.964 c -0.577,0 -1.225,-0.212 -1.943,-0.638 C -5.276,43.966 -5.9,43.517 -6.476,42.996 -7.194,42.429 -7.89,41.79 -8.561,41.081 l 2.014,10.856 h 25.541 l 2.015,-10.856 c -0.672,0.709 -1.367,1.348 -2.087,1.915 -0.623,0.521 -1.295,0.97 -2.015,1.349 -0.671,0.426 -1.294,0.638 -1.87,0.638 H 9.784 V 3.83 C 9.784,3.405 9.905,2.955 10.145,2.482 10.384,2.057 10.648,1.655 10.936,1.276 11.272,0.803 11.68,0.377 12.159,0 Z"
           style="fill:#e17d10;fill-opacity:1;fill-rule:nonzero;stroke:#ffffff;stroke-width:0.858747;stroke-miterlimit:4;stroke-dasharray:none;stroke-opacity:1"
           id="path274" />
      </g>
      <g
         style="stroke:#ffffff;stroke-width:0.858747;stroke-miterlimit:4;stroke-dasharray:none;stroke-opacity:1"
         id="g276"
         transform="translate(237.79673,669.85851)">
        <path
           d="M 0,0 C 0,1.04 -0.384,2.01 -1.151,2.909 -1.918,3.855 -2.829,4.327 -3.886,4.327 H -6.115 C -7.219,4.327 -8.153,3.855 -8.921,2.909 -9.642,2.01 -10,1.04 -10,0 v -29.305 c 0,-1.04 0.358,-2.033 1.079,-2.979 0.768,-0.946 1.702,-1.419 2.806,-1.419 l 2.158,0.071 c 1.103,0 2.015,0.449 2.734,1.348 0.767,0.946 1.152,1.939 1.152,2.979 z m -3.886,11.707 c 1.584,0 3.047,-0.308 4.39,-0.923 C 1.895,10.217 3.094,9.412 4.102,8.372 5.156,7.332 5.972,6.125 6.548,4.753 7.171,3.429 7.482,1.986 7.482,0.425 V -29.73 c 0,-1.562 -0.311,-3.027 -0.934,-4.399 -0.576,-1.324 -1.392,-2.507 -2.446,-3.547 -1.055,-1.041 -2.279,-1.869 -3.669,-2.484 -1.344,-0.568 -2.807,-0.85 -4.39,-0.85 l -2.158,-0.072 c -1.583,0 -3.07,0.307 -4.461,0.922 -1.343,0.615 -2.542,1.419 -3.597,2.413 -1.056,1.04 -1.895,2.247 -2.518,3.618 -0.576,1.372 -0.864,2.837 -0.864,4.399 V 0.425 c 0,1.561 0.288,3.004 0.864,4.328 0.623,1.372 1.462,2.579 2.518,3.619 1.055,1.04 2.254,1.845 3.597,2.412 1.391,0.615 2.878,0.923 4.461,0.923 z"
           style="fill:#e17d10;fill-opacity:1;fill-rule:evenodd;stroke:#ffffff;stroke-width:0.858747;stroke-miterlimit:4;stroke-dasharray:none;stroke-opacity:1"
           id="path278" />
      </g>
      <g
         style="stroke:#ffffff;stroke-width:0.858747;stroke-miterlimit:4;stroke-dasharray:none;stroke-opacity:1"
         id="g280"
         transform="translate(277.15123,663.89801)">
        <path
           d="m 0,0 h -11.871 c 0.432,0.378 0.815,0.804 1.151,1.276 0.288,0.379 0.551,0.805 0.791,1.278 0.241,0.473 0.36,0.946 0.36,1.42 v 0.709 c 0,1.844 -0.432,3.216 -1.294,4.115 -0.817,0.898 -1.847,1.348 -3.094,1.348 -1.296,0 -2.375,-0.45 -3.237,-1.348 -0.817,-0.899 -1.225,-2.271 -1.225,-4.115 0,-1.75 0.384,-3.287 1.151,-4.613 0.817,-1.323 1.799,-2.577 2.951,-3.759 1.198,-1.183 2.494,-2.366 3.885,-3.548 1.391,-1.135 2.662,-2.412 3.813,-3.832 1.199,-1.419 2.182,-3.027 2.95,-4.825 0.815,-1.797 1.223,-3.902 1.223,-6.314 0,-8.751 -3.933,-13.125 -11.799,-13.125 -2.015,0 -3.79,0.212 -5.324,0.637 -1.488,0.426 -2.735,1.135 -3.742,2.129 -1.007,1.04 -1.775,2.388 -2.302,4.044 -0.48,1.703 -0.72,3.807 -0.72,6.315 v 1.419 c 0,0.473 -0.12,0.946 -0.359,1.418 -0.241,0.474 -0.504,0.9 -0.79,1.278 -0.336,0.473 -0.719,0.898 -1.153,1.278 h 11.943 c -0.431,-0.426 -0.815,-0.876 -1.151,-1.349 -0.287,-0.378 -0.552,-0.804 -0.791,-1.277 -0.24,-0.473 -0.36,-0.922 -0.36,-1.348 v -1.916 c 0,-1.797 0.431,-3.145 1.296,-4.044 0.862,-0.898 1.941,-1.349 3.237,-1.349 1.247,0 2.326,0.451 3.237,1.349 0.911,0.899 1.368,2.247 1.368,4.044 0,1.75 -0.408,3.288 -1.224,4.612 -0.768,1.324 -1.751,2.577 -2.949,3.76 -1.2,1.183 -2.519,2.366 -3.957,3.548 -1.391,1.183 -2.687,2.484 -3.885,3.903 -1.2,1.418 -2.207,3.003 -3.023,4.754 -0.767,1.797 -1.151,3.901 -1.151,6.314 0,4.588 0.983,7.923 2.95,10.004 1.966,2.081 4.941,3.123 8.921,3.123 3.934,0 6.884,-1.042 8.85,-3.123 2.014,-2.081 3.021,-5.416 3.021,-10.004 0,-0.615 0.121,-1.183 0.361,-1.702 0.24,-0.473 0.504,-0.9 0.791,-1.278 C -0.815,0.733 -0.432,0.332 0,0"
           style="fill:#e17d10;fill-opacity:1;fill-rule:nonzero;stroke:#ffffff;stroke-width:0.858747;stroke-miterlimit:4;stroke-dasharray:none;stroke-opacity:1"
           id="path282" />
      </g>
      <g
         style="stroke:#ffffff;stroke-width:0.858747;stroke-miterlimit:4;stroke-dasharray:none;stroke-opacity:1"
         id="g284"
         transform="translate(286.35923,628.91901)">
        <path
           d="m 0,0 c 0.433,0.425 0.815,0.875 1.151,1.348 0.288,0.378 0.551,0.78 0.792,1.206 0.24,0.473 0.361,0.946 0.361,1.419 v 41.01 h -4.965 c -0.576,0 -1.224,-0.212 -1.943,-0.638 -0.672,-0.379 -1.295,-0.828 -1.871,-1.349 -0.719,-0.567 -1.414,-1.206 -2.085,-1.915 l 2.014,10.856 h 25.541 l 2.014,-10.856 c -0.671,0.709 -1.366,1.348 -2.086,1.915 -0.624,0.521 -1.295,0.97 -2.015,1.349 -0.671,0.426 -1.295,0.638 -1.871,0.638 H 9.785 V 3.83 c 0,-0.425 0.12,-0.875 0.361,-1.348 C 10.385,2.057 10.649,1.655 10.937,1.276 11.272,0.803 11.68,0.377 12.16,0 Z"
           style="fill:#e17d10;fill-opacity:1;fill-rule:nonzero;stroke:#ffffff;stroke-width:0.858747;stroke-miterlimit:4;stroke-dasharray:none;stroke-opacity:1"
           id="path286" />
      </g>
      <g
         style="stroke:#ffffff;stroke-width:0.858747;stroke-miterlimit:4;stroke-dasharray:none;stroke-opacity:1"
         id="g288"
         transform="translate(326.50573,646.86921)">
        <path
           d="M 0,0 -3.741,26.04 -7.482,0 Z m -0.287,-17.95 c 0.479,0.519 0.887,1.04 1.223,1.559 0.288,0.474 0.528,1.018 0.719,1.634 0.241,0.614 0.312,1.252 0.216,1.914 -0.096,0.663 -0.192,1.324 -0.288,1.987 -0.096,0.709 -0.191,1.324 -0.287,1.845 -0.097,0.615 -0.192,1.23 -0.288,1.845 h -9.57 l -0.792,-5.818 c -0.094,-0.568 -0.046,-1.159 0.145,-1.773 0.24,-0.569 0.504,-1.089 0.791,-1.562 0.336,-0.567 0.721,-1.112 1.151,-1.631 h -11.726 c 0.384,0.377 0.72,0.779 1.008,1.205 0.239,0.378 0.479,0.758 0.718,1.135 0.193,0.425 0.335,0.828 0.432,1.206 0.047,0.19 0.144,0.923 0.287,2.2 0.192,1.324 0.432,3.003 0.72,5.038 0.336,2.034 0.672,4.328 1.008,6.882 0.382,2.555 0.767,5.156 1.15,7.805 0.385,2.649 0.743,5.251 1.079,7.805 0.385,2.554 0.721,4.824 1.008,6.811 0.336,2.034 0.575,3.69 0.719,4.967 0.192,1.278 0.312,1.987 0.36,2.128 0.096,0.521 0.025,1.041 -0.216,1.562 -0.239,0.567 -0.504,1.088 -0.792,1.561 -0.336,0.52 -0.718,1.064 -1.15,1.632 H 5.181 C 4.701,33.419 4.293,32.875 3.957,32.355 3.669,31.882 3.406,31.361 3.167,30.794 2.975,30.273 2.926,29.8 3.022,29.375 c 0,-0.095 0.096,-0.781 0.289,-2.059 0.19,-1.229 0.431,-2.837 0.718,-4.824 0.288,-1.987 0.6,-4.233 0.936,-6.741 0.384,-2.507 0.743,-5.084 1.079,-7.733 0.385,-2.601 0.743,-5.179 1.079,-7.734 0.385,-2.555 0.719,-4.848 1.008,-6.883 0.335,-2.033 0.599,-3.736 0.791,-5.108 0.191,-1.325 0.311,-2.082 0.359,-2.27 0.097,-0.427 0.264,-0.876 0.504,-1.349 0.239,-0.473 0.48,-0.899 0.72,-1.277 0.287,-0.473 0.623,-0.922 1.008,-1.347 z"
           style="fill:#e17d10;fill-opacity:1;fill-rule:evenodd;stroke:#ffffff;stroke-width:0.858747;stroke-miterlimit:4;stroke-dasharray:none;stroke-opacity:1"
           id="path290" />
      </g>
      <g
         style="stroke:#ffffff;stroke-width:0.858747;stroke-miterlimit:4;stroke-dasharray:none;stroke-opacity:1"
         id="g292"
         transform="translate(358.45103,669.64461)">
        <path
           d="m 0,0 c 0,1.088 -0.385,1.987 -1.151,2.697 -0.72,0.757 -1.608,1.135 -2.662,1.135 h -4.965 v -37.18 h 4.965 c 1.054,0 1.942,0.355 2.662,1.065 0.766,0.757 1.151,1.655 1.151,2.697 z m -16.045,6.032 c 0,0.378 -0.12,0.875 -0.36,1.489 -0.24,0.616 -0.503,1.183 -0.79,1.704 -0.336,0.614 -0.697,1.276 -1.079,1.986 h 14.388 c 1.582,0 3.071,-0.307 4.461,-0.922 C 1.966,9.721 3.165,8.917 4.173,7.876 5.18,6.883 5.971,5.7 6.546,4.329 7.17,3.004 7.481,1.562 7.481,0 v -29.586 c 0,-1.561 -0.311,-3.029 -0.935,-4.4 -0.575,-1.325 -1.366,-2.483 -2.373,-3.476 -1.008,-0.994 -2.207,-1.798 -3.598,-2.413 -1.343,-0.567 -2.805,-0.851 -4.388,-0.851 h -14.461 c 0.382,0.614 0.743,1.253 1.079,1.915 0.287,0.568 0.55,1.159 0.79,1.773 0.24,0.663 0.36,1.326 0.36,1.987 z"
           style="fill:#e17d10;fill-opacity:1;fill-rule:evenodd;stroke:#ffffff;stroke-width:0.858747;stroke-miterlimit:4;stroke-dasharray:none;stroke-opacity:1"
           id="path294" />
      </g>
      <g
         style="stroke:#ffffff;stroke-width:0.858747;stroke-miterlimit:4;stroke-dasharray:none;stroke-opacity:1"
         id="g296"
         transform="translate(387.51743,646.86921)">
        <path
           d="M 0,0 -3.741,26.04 -7.483,0 Z m -0.288,-17.95 c 0.48,0.519 0.887,1.04 1.224,1.559 0.287,0.474 0.527,1.018 0.718,1.634 0.241,0.614 0.312,1.252 0.216,1.914 -0.095,0.663 -0.191,1.324 -0.287,1.987 -0.097,0.709 -0.192,1.324 -0.288,1.845 -0.097,0.615 -0.192,1.23 -0.287,1.845 h -9.571 l -0.791,-5.818 c -0.095,-0.568 -0.047,-1.159 0.144,-1.773 0.24,-0.569 0.504,-1.089 0.791,-1.562 0.337,-0.567 0.721,-1.112 1.152,-1.631 h -11.727 c 0.385,0.377 0.721,0.779 1.008,1.205 0.239,0.378 0.479,0.758 0.719,1.135 0.192,0.425 0.334,0.828 0.431,1.206 0.048,0.19 0.145,0.923 0.288,2.2 0.192,1.324 0.432,3.003 0.719,5.038 0.336,2.034 0.672,4.328 1.008,6.882 0.383,2.555 0.767,5.156 1.15,7.805 0.385,2.649 0.744,5.251 1.08,7.805 0.384,2.554 0.72,4.824 1.008,6.811 0.336,2.034 0.574,3.69 0.719,4.967 0.192,1.278 0.311,1.987 0.359,2.128 0.096,0.521 0.025,1.041 -0.216,1.562 -0.239,0.567 -0.504,1.088 -0.792,1.561 -0.335,0.52 -0.718,1.064 -1.15,1.632 H 5.181 C 4.7,33.419 4.292,32.875 3.956,32.355 3.669,31.882 3.405,31.361 3.166,30.794 2.974,30.273 2.926,29.8 3.022,29.375 3.022,29.28 3.117,28.594 3.31,27.316 3.501,26.087 3.741,24.479 4.029,22.492 4.316,20.505 4.628,18.259 4.964,15.751 5.349,13.244 5.707,10.667 6.044,8.018 6.428,5.417 6.786,2.839 7.123,0.284 7.507,-2.271 7.842,-4.564 8.13,-6.599 c 0.335,-2.033 0.599,-3.736 0.791,-5.108 0.191,-1.325 0.311,-2.082 0.36,-2.27 0.097,-0.427 0.264,-0.876 0.504,-1.349 0.239,-0.473 0.48,-0.899 0.719,-1.277 0.288,-0.473 0.624,-0.922 1.008,-1.347 z"
           style="fill:#e17d10;fill-opacity:1;fill-rule:evenodd;stroke:#ffffff;stroke-width:0.858747;stroke-miterlimit:4;stroke-dasharray:none;stroke-opacity:1"
           id="path298" />
      </g>
      <g
         style="stroke:#ffffff;stroke-width:0.858747;stroke-miterlimit:4;stroke-dasharray:none;stroke-opacity:1"
         id="g372"
         transform="translate(309.61413,694.78231)">
        <path
           d="m 0,0 h -16.104 c 0.275,0.641 0.871,1.536 1.789,2.684 0.917,1.192 1.581,2.155 1.996,2.891 -1.376,2.843 -2.525,5.207 -3.442,7.089 -1.789,3.624 -3.74,6.88 -5.849,9.773 1.376,2.292 2.636,4.312 3.785,6.056 1.604,2.385 3.232,4.771 4.887,7.158 -1.194,2.615 -2.846,6.057 -4.956,10.324 -1.699,3.394 -3.19,6.308 -4.473,8.74 0.503,0.826 1.948,3.487 4.336,7.984 2.202,4.129 3.692,6.883 4.473,8.259 -0.185,0.458 -0.736,1.994 -1.652,4.611 -0.598,1.789 -1.583,4.474 -2.959,8.053 3.991,0.32 7.685,0.503 11.08,0.55 3.395,0.09 5.758,0.16 7.089,0.207 z"
           style="fill:#ed1c24;fill-opacity:1;fill-rule:nonzero;stroke:#ffffff;stroke-width:0.858747;stroke-miterlimit:4;stroke-dasharray:none;stroke-opacity:1"
           id="path374" />
      </g>
      <g
         style="stroke:#ffffff;stroke-width:0.858747;stroke-miterlimit:4;stroke-dasharray:none;stroke-opacity:1"
         id="g376"
         transform="translate(400.11893,732.97961)">
        <path
           d="m 0,0 c 0,-3.809 -0.299,-7.755 -0.896,-11.838 -0.873,-6.056 -2.225,-10.484 -4.06,-13.283 -2.891,-4.542 -6.654,-7.983 -11.287,-10.323 -5.323,-2.706 -11.976,-4.059 -19.959,-4.061 -4.728,0 -9.82,0.781 -15.279,2.34 -4.542,1.284 -7.687,2.957 -9.429,5.024 0.871,1.054 1.719,2.362 2.547,3.923 1.146,2.11 1.948,3.555 2.408,4.336 -1.011,1.146 -2.456,2.936 -4.336,5.368 -1.424,1.835 -2.845,3.694 -4.267,5.575 1.102,1.605 2.065,3.05 2.891,4.336 0.871,1.284 1.697,2.592 2.478,3.923 l -7.984,15.279 c 2.843,4.037 5.022,7.272 6.538,9.704 1.239,2.111 2.478,4.22 3.717,6.332 -0.23,0.871 -0.895,2.66 -1.996,5.368 -0.735,1.743 -1.47,3.509 -2.202,5.3 1.191,1.88 4.45,3.715 9.772,5.506 5.322,1.835 10.139,2.751 14.453,2.753 8.122,0 15.83,-2.364 23.125,-7.089 6.883,-4.452 11.172,-9.498 12.87,-15.141 -0.274,0 -1.835,-0.276 -4.679,-0.826 -1.975,-0.368 -5.3,-1.08 -9.98,-2.134 -4.68,-1.056 -8.328,-1.974 -10.943,-2.753 -1.011,1.192 -2.02,2.407 -3.028,3.648 -1.376,1.101 -3.603,1.652 -6.676,1.652 -4.728,0 -8.444,-2.25 -11.15,-6.745 -2.339,-3.902 -3.51,-8.627 -3.51,-14.178 0,-6.882 1.79,-12.092 5.369,-15.623 2.98,-2.983 6.765,-4.474 11.355,-4.474 1.835,0 3.463,0.642 4.887,1.927 1.973,1.79 2.957,4.382 2.96,7.778 -0.736,0.32 -1.308,0.526 -1.721,0.619 -0.413,0.09 -0.849,0.135 -1.307,0.138 -0.186,0 -0.506,-0.024 -0.964,-0.069 -0.46,-0.047 -0.895,-0.069 -1.308,-0.069 -0.506,0 -1.032,0.022 -1.583,0.069 -0.551,0.045 -1.239,0.159 -2.064,0.344 -1.057,2.661 -2.272,5.895 -3.648,9.704 -0.919,2.523 -1.79,5.046 -2.616,7.571 0.551,0 2.409,0.045 5.575,0.137 3.166,0.091 9.13,0.228 17.895,0.414 8.809,0.183 14.705,0.272 17.687,0.275 -0.322,-0.461 -0.481,-1.032 -0.481,-1.721 0,-0.323 0.138,-1.445 0.413,-3.372 C -0.138,3.717 0,1.835 0,0"
           style="fill:#ed1c24;fill-opacity:1;fill-rule:nonzero;stroke:#ffffff;stroke-width:0.858747;stroke-miterlimit:4;stroke-dasharray:none;stroke-opacity:1"
           id="path378" />
      </g>
      <g
         style="stroke:#ffffff;stroke-width:0.858747;stroke-miterlimit:4;stroke-dasharray:none;stroke-opacity:1"
         id="g380"
         transform="translate(278.80553,801.68031)">
        <path
           d="M 0,0 C 0,8.008 6.491,14.5 14.5,14.5 22.508,14.5 29,8.008 29,0 29,-8.008 22.508,-14.5 14.5,-14.5 6.491,-14.5 0,-8.008 0,0"
           style="fill:#ed1c24;fill-opacity:1;fill-rule:nonzero;stroke:#ffffff;stroke-width:0.858747;stroke-miterlimit:4;stroke-dasharray:none;stroke-opacity:1"
           id="path382" />
      </g>
      <g
         style="stroke:#ffffff;stroke-width:0.858747;stroke-miterlimit:4;stroke-dasharray:none;stroke-opacity:1"
         id="g384"
         transform="translate(269.83383,716.94391)">
        <path
           d="m 0,0 c 0,-6.607 -1.789,-11.77 -5.368,-15.486 -2.846,-2.983 -6.975,-5.071 -12.389,-6.263 -3.717,-0.826 -8.189,-1.239 -13.421,-1.239 h -24.638 c 0.227,0.413 0.754,1.284 1.583,2.615 0.688,1.102 1.053,1.767 1.1,1.997 -3.028,3.21 -5.506,5.871 -7.432,7.983 -3.855,4.22 -5.782,6.468 -5.782,6.745 0,0.413 1.927,2.936 5.782,7.571 3.854,4.632 5.781,7.684 5.781,9.153 0,1.239 -1.562,3.786 -4.68,7.64 -2.295,2.753 -4.59,5.527 -6.883,8.327 2.293,3.349 4.197,6.24 5.713,8.672 1.559,2.478 2.936,4.887 4.129,7.227 -0.963,1.652 -2.295,3.579 -3.991,5.781 -2.57,3.349 -4.178,6.285 -4.818,8.81 l 36.751,2.065 c 6.653,0 12.318,-2.089 17,-6.264 4.68,-4.128 7.021,-9.452 7.021,-15.967 0,-6.056 -1.583,-10.577 -4.749,-13.558 l -8.604,-6.814 c 5.597,-0.643 9.978,-2.639 13.146,-5.987 C -1.583,9.657 0,5.321 0,0 m -34.48,33.999 c 0,2.11 -0.599,3.669 -1.791,4.68 -1.193,1.054 -3.006,1.581 -5.437,1.583 -0.873,0 -1.744,-0.137 -2.615,-0.413 l -2.753,-0.757 c 0,-1.469 0.046,-3.717 0.138,-6.745 l 0.137,-4.749 c 4.908,0 8.005,0.252 9.292,0.757 2.017,0.779 3.026,2.661 3.029,5.644 M -30.076,0.55 c 0,2.661 -0.551,4.564 -1.652,5.713 -1.239,1.329 -3.396,1.993 -6.469,1.996 -1.79,0 -3.397,-0.161 -4.819,-0.482 -1.148,-0.322 -2.294,-0.62 -3.44,-0.895 V -6.882 c 0.687,0 1.376,-0.024 2.064,-0.07 h 2.203 c 3.668,0 6.398,0.39 8.19,1.17 2.615,1.147 3.923,3.257 3.923,6.332"
           style="fill:#ed1c24;fill-opacity:1;fill-rule:evenodd;stroke:#ffffff;stroke-width:0.858747;stroke-miterlimit:4;stroke-dasharray:none;stroke-opacity:1"
           id="path386" />
      </g>
      <g
         style="stroke:#ffffff;stroke-width:0.858747;stroke-miterlimit:4;stroke-dasharray:none;stroke-opacity:1"
         id="g388"
         transform="translate(285.86993,705.58751)">
        <path
           d="M 0,0 C 0,1.514 -0.757,2.271 -2.271,2.271 -3.74,2.271 -4.474,1.514 -4.474,0 c 0,-1.376 0.734,-2.064 2.203,-2.064 C -0.757,-2.064 0,-1.376 0,0 m 2.134,28.287 c 0,1.514 -0.712,2.271 -2.134,2.271 -1.514,0 -2.271,-0.757 -2.271,-2.271 0,-1.514 0.757,-2.271 2.271,-2.271 1.422,0 2.132,0.757 2.134,2.271 M 0.619,61.736 c 0,1.514 -0.735,2.271 -2.202,2.271 -1.424,0 -2.134,-0.757 -2.134,-2.271 0,-1.239 0.71,-1.859 2.134,-1.859 0.826,0 1.398,0.115 1.721,0.344 0.32,0.276 0.479,0.779 0.481,1.515 M 7.364,-4.611 c -0.275,-0.323 -1.4,-1.562 -3.372,-3.717 -1.101,-1.193 -1.974,-2.385 -2.615,-3.579 -1.837,-0.595 -3.81,-1.191 -5.919,-1.789 l -3.923,-1.032 0.344,86.512 h 1.101 0.963 c 2.203,0 4.427,0.159 6.676,0.482 1.009,-1.927 2.27,-4.199 3.786,-6.814 C 5.459,63.615 6.216,62.125 6.676,60.979 3.738,55.38 0.826,49.806 -2.064,44.254 -1.331,42.327 0.021,39.275 1.996,35.101 2.867,33.264 4.427,30.098 6.676,25.603 5.3,23.353 3.944,21.129 2.615,18.927 0.826,16.036 -0.574,13.834 -1.583,12.32 -0.805,11.218 0.71,8.535 2.959,4.267 5.207,0.045 6.674,-2.914 7.364,-4.611"
           style="fill:#00a650;fill-opacity:1;fill-rule:evenodd;stroke:#ffffff;stroke-width:0.858747;stroke-miterlimit:4;stroke-dasharray:none;stroke-opacity:1"
           id="path390" />
      </g>
      <g
         style="stroke:#ffffff;stroke-width:0.858747;stroke-miterlimit:4;stroke-dasharray:none;stroke-opacity:1"
         id="g392"
         transform="translate(419.82113,646.90731)">
        <path
           d="m 0,0 c 0,0 -4.108,1.878 -6.963,0.822 -2.854,-1.056 -4.225,-3.404 -5.202,-5.672 -0.978,-2.268 -1.643,-7.901 -3.324,-13.025 -1.682,-5.122 -6.024,-9.151 -12.438,-13.648 -6.414,-4.499 -12.438,-5.32 -15.41,-9.349 -2.972,-4.028 -2.972,-7.118 -3.207,-8.644 -0.234,-1.525 1.095,-4.263 1.095,-4.263 0,0 2.347,5.32 6.259,8.527 3.911,3.207 16.057,4.21 23.348,7.587 7.433,3.442 19.556,9.935 20.378,22.02 C 5.357,-3.559 0,0 0,0"
           style="fill:#ed1c24;fill-opacity:1;fill-rule:nonzero;stroke:#ffffff;stroke-width:0.858747;stroke-miterlimit:4;stroke-dasharray:none;stroke-opacity:1"
           id="path394" />
      </g>
      <g
         style="stroke:#ffffff;stroke-width:0.858747;stroke-miterlimit:4;stroke-dasharray:none;stroke-opacity:1"
         id="g396"
         transform="translate(-150.29997,36.786706)">
        <g
           style="stroke:#ffffff;stroke-width:0.858747;stroke-miterlimit:4;stroke-dasharray:none;stroke-opacity:1"
           id="g398"
           clip-path="url(#clipPath402)">
          <g
             style="stroke:#ffffff;stroke-width:0.858747;stroke-miterlimit:4;stroke-dasharray:none;stroke-opacity:1"
             id="g404"
             transform="translate(527.1367,566.394)">
            <path
               d="m 0,0 c 3.559,5.202 13.259,7.001 24.405,14.706 6.728,4.65 12.679,9.676 16.467,18.931 3.441,8.409 1.564,9.62 -1.643,10.324 -3.208,0.705 -3.325,1.057 -3.325,1.057 L 29.607,42.67 -6.142,0.587 -6.024,-10.17 -2.62,-9.583 c 0,0 -0.94,4.381 2.62,9.583"
               style="fill:#f35e19;fill-opacity:1;fill-rule:nonzero;stroke:#ffffff;stroke-width:0.858747;stroke-miterlimit:4;stroke-dasharray:none;stroke-opacity:1"
               id="path406" />
          </g>
        </g>
      </g>
      <g
         style="stroke:#ffffff;stroke-width:0.858747;stroke-miterlimit:4;stroke-dasharray:none;stroke-opacity:1"
         id="g416"
         transform="translate(419.82113,646.90731)">
        <path
           d="m 0,0 c 0,0 -4.108,1.878 -6.963,0.822 -2.854,-1.056 -4.225,-3.404 -5.202,-5.672 -0.978,-2.268 -1.643,-7.901 -3.324,-13.025 -1.682,-5.122 -6.024,-9.151 -12.438,-13.648 -6.414,-4.499 -12.438,-5.32 -15.41,-9.349 -2.972,-4.028 -2.972,-7.118 -3.207,-8.644 -0.234,-1.525 1.095,-4.263 1.095,-4.263 0,0 2.347,5.32 6.259,8.527 3.911,3.207 16.057,4.21 23.348,7.587 7.433,3.442 19.556,9.935 20.378,22.02 C 5.357,-3.559 0,0 0,0 Z"
           style="fill:none;stroke:#ffffff;stroke-width:0.858747;stroke-linecap:butt;stroke-linejoin:miter;stroke-miterlimit:4;stroke-dasharray:none;stroke-opacity:1"
           id="path418" />
      </g>
      <g
         style="stroke:#ffffff;stroke-width:0.858747;stroke-miterlimit:4;stroke-dasharray:none;stroke-opacity:1"
         id="g420"
         transform="translate(415.36113,645.02941)">
        <path
           d="m 0,0 c 0.352,-1.916 -0.603,-0.752 -2.737,-2.737 -1.682,-1.564 -1.329,-4.381 -2.503,-8.879 -0.989,-3.79 -4.264,-6.766 -4.264,-6.766 0,0 2.737,3.794 4.147,11.968 0.553,3.218 0.976,5.437 3.088,6.259 C -0.155,0.666 0,0 0,0"
           style="fill:#fdda7f;fill-opacity:1;fill-rule:evenodd;stroke:#ffffff;stroke-width:0.858747;stroke-miterlimit:4;stroke-dasharray:none;stroke-opacity:1"
           id="path422" />
      </g>
      <g
         style="stroke:#ffffff;stroke-width:0.858747;stroke-miterlimit:4;stroke-dasharray:none;stroke-opacity:1"
         id="g424"
         transform="translate(413.21073,648.08111)">
        <path
           d="M 0,0 C 0,0 2.385,0.821 3.559,0.821 4.732,0.821 5.906,0 5.906,0 c 0,0 3.324,2.541 3.794,5.709 0.469,3.169 -1.056,4.733 -1.643,5.555 -0.587,0.822 -2.268,2.62 -2.268,2.62 0,0 -0.314,1.056 1.094,1.878 1.408,0.821 2.699,-0.117 2.699,-0.117 0,0 3.442,-2.621 3.09,-7.94 -0.352,-5.32 -4.028,-8.644 -4.028,-8.644 0,0 1.995,-2.854 1.173,-4.967 -0.235,0.704 -1.526,1.76 -1.526,1.76 L 7.353,-5.437 6.61,-3.324 4.85,-4.381 l 0.704,2.504 -2.23,-0.705 0.352,1.526 z"
           style="fill:#00a650;fill-opacity:1;fill-rule:nonzero;stroke:#ffffff;stroke-width:0.858747;stroke-miterlimit:4;stroke-dasharray:none;stroke-opacity:1"
           id="path426" />
      </g>
      <g
         style="stroke:#ffffff;stroke-width:0.858747;stroke-miterlimit:4;stroke-dasharray:none;stroke-opacity:1"
         id="g428"
         transform="translate(413.21073,648.08111)">
        <path
           d="M 0,0 C 0,0 2.385,0.821 3.559,0.821 4.732,0.821 5.906,0 5.906,0 c 0,0 3.324,2.541 3.794,5.709 0.469,3.169 -1.056,4.733 -1.643,5.555 -0.587,0.822 -2.268,2.62 -2.268,2.62 0,0 -0.314,1.056 1.094,1.878 1.408,0.821 2.699,-0.117 2.699,-0.117 0,0 3.442,-2.621 3.09,-7.94 -0.352,-5.32 -4.028,-8.644 -4.028,-8.644 0,0 1.995,-2.854 1.173,-4.967 -0.235,0.704 -1.526,1.76 -1.526,1.76 L 7.353,-5.437 6.61,-3.324 4.85,-4.381 l 0.704,2.504 -2.23,-0.705 0.352,1.526 z"
           style="fill:none;stroke:#ffffff;stroke-width:0.858747;stroke-linecap:butt;stroke-linejoin:miter;stroke-miterlimit:4;stroke-dasharray:none;stroke-opacity:1"
           id="path430" />
      </g>
      <g
         style="stroke:#ffffff;stroke-width:0.858747;stroke-miterlimit:4;stroke-dasharray:none;stroke-opacity:1"
         id="g432"
         transform="translate(419.68243,662.25741)">
        <path
           d="M 0,0 C 0.167,-0.271 0.639,-0.304 1.605,-0.146 2.373,-0.021 3.071,0.712 2.603,1.064 2.133,1.416 1.353,1.567 0.766,0.981 0.179,0.394 -0.167,0.292 0,0"
           style="fill:#99d420;fill-opacity:1;fill-rule:nonzero;stroke:#ffffff;stroke-width:0.858747;stroke-miterlimit:4;stroke-dasharray:none;stroke-opacity:1"
           id="path434" />
      </g>
      <g
         style="stroke:#ffffff;stroke-width:0.858747;stroke-miterlimit:4;stroke-dasharray:none;stroke-opacity:1"
         id="g436"
         transform="translate(203.34943,701.25151)">
        <path
           d="m 0,0 c 0,1.422 -0.712,2.131 -2.134,2.134 -1.513,0 -2.27,-0.712 -2.27,-2.134 0,-1.514 0.757,-2.271 2.27,-2.271 1.422,0 2.132,0.757 2.134,2.271 m 8.672,-2.409 c 0,-0.78 -0.299,-1.561 -0.895,-2.34 C 7.64,-4.886 6.951,-5.622 5.713,-6.951 4.749,-7.088 3.738,-7.179 2.685,-7.227 1.628,-7.271 0.481,-7.293 -0.757,-7.295 c -1.561,0 -3.626,0.047 -6.194,0.137 -2.526,0.048 -3.923,0.07 -4.198,0.07 l -0.276,81.487 c 1.284,0 2.613,0.091 3.992,0.276 1.421,0.228 2.499,0.342 3.235,0.344 1.191,-1.469 3.142,-4.36 5.849,-8.672 1.33,-2.065 2.889,-4.315 4.681,-6.744 -1.652,-2.158 -3.098,-4.13 -4.336,-5.92 -1.377,-2.064 -3.235,-5.002 -5.575,-8.809 2.615,-2.846 4.702,-5.186 6.264,-7.02 3.028,-3.489 4.542,-6.586 4.542,-9.291 0,-2.203 -1.814,-5.141 -5.438,-8.81 -3.579,-3.627 -5.368,-6.057 -5.368,-7.296 0,-1.193 2.041,-3.785 6.125,-7.777 C 6.629,0.688 8.67,-1.675 8.672,-2.409 M -1.376,60.772 c 0,1.604 -0.736,2.407 -2.203,2.409 -1.424,0 -2.134,-0.805 -2.134,-2.409 0,-1.424 0.71,-2.133 2.134,-2.133 1.467,0 2.2,0.709 2.203,2.133 M 0,29.939 c 0,1.559 -0.712,2.338 -2.134,2.34 -1.469,0 -2.202,-0.781 -2.202,-2.34 0,-1.514 0.733,-2.272 2.202,-2.272 1.422,0 2.132,0.758 2.134,2.272"
           style="fill:#00a650;fill-opacity:1;fill-rule:evenodd;stroke:#ffffff;stroke-width:0.858747;stroke-miterlimit:4;stroke-dasharray:none;stroke-opacity:1"
           id="path438" />
      </g>
      <g
         style="stroke:#ffffff;stroke-width:0.858747;stroke-miterlimit:4;stroke-dasharray:none;stroke-opacity:1"
         id="g440"
         transform="translate(336.66293,709.64801)">
        <path
           d="m 0,0 c 0,1.514 -0.713,2.271 -2.134,2.271 -1.424,0 -2.134,-0.757 -2.134,-2.271 0,-1.193 0.71,-1.789 2.134,-1.789 1.421,0 2.131,0.596 2.134,1.789 m 4.955,-1.789 -4.818,-5.85 c -1.376,0 -3.372,1.81 -5.988,5.437 -2.799,3.899 -5.116,8.235 -6.951,13.008 -2.202,5.734 -3.303,11.009 -3.303,15.829 0,4.956 1.259,10.621 3.785,17 2.843,7.157 6.285,12.272 10.324,15.348 0.778,-0.919 1.742,-2.478 2.891,-4.68 1.146,-2.157 1.903,-3.786 2.27,-4.887 -0.825,-1.101 -2.226,-3.303 -4.198,-6.607 -0.825,-1.331 -2.456,-4.108 -4.886,-8.328 0.595,-1.789 1.718,-4.314 3.372,-7.57 1.697,-3.259 3.118,-5.76 4.267,-7.502 -2.158,-3.441 -4.29,-6.883 -6.401,-10.324 0.689,-0.873 1.79,-2.157 3.304,-3.854 z m -7.089,47.97 c 0,1.697 -0.757,2.545 -2.271,2.547 -1.331,0 -1.996,-0.85 -1.996,-2.547 0,-1.376 0.665,-2.064 1.996,-2.064 1.514,0 2.271,0.688 2.271,2.064 m -5.23,-23.606 c 0,1.422 -0.805,2.131 -2.409,2.133 -1.377,0 -2.065,-0.711 -2.065,-2.133 0,-1.562 0.688,-2.34 2.065,-2.34 1.604,0 2.406,0.778 2.409,2.34"
           style="fill:#00a650;fill-opacity:1;fill-rule:evenodd;stroke:#ffffff;stroke-width:0.858747;stroke-miterlimit:4;stroke-dasharray:none;stroke-opacity:1"
           id="path442" />
      </g>
      <g
         style="stroke:#ffffff;stroke-width:0.858747;stroke-miterlimit:4;stroke-dasharray:none;stroke-opacity:1"
         id="g444"
         transform="translate(319.40023,831.13781)">
        <path
           d="m 0,0 c -0.757,-2.213 1.351,-3.959 1.982,-5.917 v -2.618 c -3.678,-0.062 -5.69,-2.865 -8.539,-3.861 v 1.722 C -4.53,-7.796 -3.124,-2.786 0,0"
           style="fill:#d74c17;fill-opacity:1;fill-rule:nonzero;stroke:#ffffff;stroke-width:0.858747;stroke-miterlimit:4;stroke-dasharray:none;stroke-opacity:1"
           id="path446" />
      </g>
      <g
         style="stroke:#ffffff;stroke-width:0.858747;stroke-miterlimit:4;stroke-dasharray:none;stroke-opacity:1"
         id="g448"
         transform="translate(213.02623,811.96151)">
        <path
           d="m 0,0 10.45,-9.727 v -1.663 c -1.762,-1.152 -5.162,-2.218 -7.515,-3.927 -0.136,0.696 0.414,0.866 0.831,1.232 C 2.75,-11.095 2.141,-5.181 0,-2.711 Z"
           style="fill:#ed1c24;fill-opacity:1;fill-rule:nonzero;stroke:#ffffff;stroke-width:0.858747;stroke-miterlimit:4;stroke-dasharray:none;stroke-opacity:1"
           id="path450" />
      </g>
      <g
         style="stroke:#ffffff;stroke-width:0.858747;stroke-miterlimit:4;stroke-dasharray:none;stroke-opacity:1"
         id="g452"
         transform="translate(252.39343,806.16761)">
        <path
           d="m 0,0 c 2.701,-1.919 5.113,-4.81 7.38,-6.909 0.566,-2.709 1.404,-5.699 1.781,-8.632 v -2.645 C 5.696,-12.294 2.816,-6.054 0,0"
           style="fill:#11110e;fill-opacity:1;fill-rule:nonzero;stroke:#ffffff;stroke-width:0.858747;stroke-miterlimit:4;stroke-dasharray:none;stroke-opacity:1"
           id="path454" />
      </g>
      <g
         style="stroke:#ffffff;stroke-width:0.858747;stroke-miterlimit:4;stroke-dasharray:none;stroke-opacity:1"
         id="g456"
         transform="translate(192.88363,802.36921)">
        <path
           d="M 0,0 C 2.736,-3.449 5.613,-7.284 8.516,-11.421 H 6.728 C 5.445,-8.913 2.535,-7.272 0,-5.626 Z"
           style="fill:#99d420;fill-opacity:1;fill-rule:nonzero;stroke:#ffffff;stroke-width:0.858747;stroke-miterlimit:4;stroke-dasharray:none;stroke-opacity:1"
           id="path458" />
      </g>
      <g
         style="stroke:#ffffff;stroke-width:0.858747;stroke-miterlimit:4;stroke-dasharray:none;stroke-opacity:1"
         id="g460"
         transform="translate(399.54773,802.34631)">
        <path
           d="m 0,0 c -0.852,-4.104 -1.326,-7.435 -1.852,-11.388 -4.415,-1.996 -8.735,-3.916 -13.347,-5.758 C -10.382,-11.564 -5.744,-4.886 0,0"
           style="fill:#00a650;fill-opacity:1;fill-rule:nonzero;stroke:#ffffff;stroke-width:0.858747;stroke-miterlimit:4;stroke-dasharray:none;stroke-opacity:1"
           id="path462" />
      </g>
      <g
         style="stroke:#ffffff;stroke-width:0.858747;stroke-miterlimit:4;stroke-dasharray:none;stroke-opacity:1"
         id="g464"
         transform="translate(338.61023,800.45471)">
        <path
           d="m 0,0 v -1.614 c 0.094,-1.98 -3.889,-6.72 -5.585,-7.958 v 1.76 C -3.61,-5.878 -1.442,-2.349 0,0"
           style="fill:#11110e;fill-opacity:1;fill-rule:evenodd;stroke:#ffffff;stroke-width:0.858747;stroke-miterlimit:4;stroke-dasharray:none;stroke-opacity:1"
           id="path466" />
      </g>
      <g
         style="stroke:#ffffff;stroke-width:0.858747;stroke-miterlimit:4;stroke-dasharray:none;stroke-opacity:1"
         id="g468"
         transform="translate(359.89343,797.52841)">
        <path
           d="M 0,0 H 1.734 C 2.05,-0.414 2.744,-2.357 4.697,-1.985 2.74,-4.197 1.3,-6.597 -0.956,-8.569 v 7.542 C -1.03,0.172 -0.069,-0.667 0,0"
           style="fill:#11110e;fill-opacity:1;fill-rule:nonzero;stroke:#ffffff;stroke-width:0.858747;stroke-miterlimit:4;stroke-dasharray:none;stroke-opacity:1"
           id="path470" />
      </g>
      <g
         style="stroke:#ffffff;stroke-width:0.858747;stroke-miterlimit:4;stroke-dasharray:none;stroke-opacity:1"
         id="g472"
         transform="translate(228.37483,787.93421)">
        <path
           d="M 0,0 H 1.713 C 2.739,-0.983 3.699,-2.423 4.701,-3.666 2.043,-3.308 0.649,-2.833 -1.012,-2.685 -0.479,-1.943 -0.07,-1.153 0,0"
           style="fill:#11110e;fill-opacity:1;fill-rule:nonzero;stroke:#ffffff;stroke-width:0.858747;stroke-miterlimit:4;stroke-dasharray:none;stroke-opacity:1"
           id="path474" />
      </g>
      <g
         style="stroke:#ffffff;stroke-width:0.858747;stroke-miterlimit:4;stroke-dasharray:none;stroke-opacity:1"
         id="g476"
         transform="translate(170.77813,775.43371)">
        <path
           d="M 0,0 C 3.666,-2.377 7.511,-5.261 11.435,-8.472 H 5.8 C 4.272,-5.56 1.888,-3.186 0,0"
           style="fill:#11110e;fill-opacity:1;fill-rule:nonzero;stroke:#ffffff;stroke-width:0.858747;stroke-miterlimit:4;stroke-dasharray:none;stroke-opacity:1"
           id="path478" />
      </g>
      <g
         style="stroke:#ffffff;stroke-width:0.858747;stroke-miterlimit:4;stroke-dasharray:none;stroke-opacity:1"
         id="g480"
         transform="translate(419.03303,771.57331)">
        <path
           d="M 0,0 H 1.737 C -1.2,-3.202 -4.094,-6.574 -7.778,-9.444 -5.575,-6.42 -4.563,-2.953 0,0"
           style="fill:#11110e;fill-opacity:1;fill-rule:nonzero;stroke:#ffffff;stroke-width:0.858747;stroke-miterlimit:4;stroke-dasharray:none;stroke-opacity:1"
           id="path482" />
      </g>
      <g
         style="stroke:#ffffff;stroke-width:0.858747;stroke-miterlimit:4;stroke-dasharray:none;stroke-opacity:1"
         id="g484"
         transform="translate(169.81523,756.23101)">
        <path
           d="M 0,0 C 3.724,-2.25 8.528,-3.123 13.325,-4.831 V -6.548 C 11.317,-7.584 9.397,-8.544 7.425,-9.499 H 4.816 C 3.779,-5.996 1.891,-3.183 0,0"
           style="fill:#fdda7f;fill-opacity:1;fill-rule:nonzero;stroke:#ffffff;stroke-width:0.858747;stroke-miterlimit:4;stroke-dasharray:none;stroke-opacity:1"
           id="path486" />
      </g>
      <g
         style="stroke:#ffffff;stroke-width:0.858747;stroke-miterlimit:4;stroke-dasharray:none;stroke-opacity:1"
         id="g488"
         transform="translate(411.60433,747.59681)">
        <path
           d="M 0,0 H 1.406 C 3.042,-4.047 9.805,-5.745 13.006,-8.413 10.379,-8.575 7.53,-8.573 -0.012,-9.441 0.558,-7.763 0.54,-5.96 0,0"
           style="fill:#f35e19;fill-opacity:1;fill-rule:nonzero;stroke:#ffffff;stroke-width:0.858747;stroke-miterlimit:4;stroke-dasharray:none;stroke-opacity:1"
           id="path490" />
      </g>
      <g
         style="stroke:#ffffff;stroke-width:0.858747;stroke-miterlimit:4;stroke-dasharray:none;stroke-opacity:1"
         id="g492"
         transform="translate(187.91193,733.19441)">
        <path
           d="M 0,0 C -5.247,-8.285 -11.389,-17.794 -18.063,-24.85 -13.94,-16.383 -8.706,-5.978 0,0"
           style="fill:#11110e;fill-opacity:1;fill-rule:evenodd;stroke:#ffffff;stroke-width:0.858747;stroke-miterlimit:4;stroke-dasharray:none;stroke-opacity:1"
           id="path494" />
      </g>
      <g
         style="stroke:#ffffff;stroke-width:0.858747;stroke-miterlimit:4;stroke-dasharray:none;stroke-opacity:1"
         id="g496"
         transform="translate(402.55453,705.32631)">
        <path
           d="M 0,0 H 4.654 C 6.655,-2.395 8.576,-4.794 10.491,-7.5 6.829,-5.633 3.449,-2.74 0,0"
           style="fill:#11110e;fill-opacity:1;fill-rule:nonzero;stroke:#ffffff;stroke-width:0.858747;stroke-miterlimit:4;stroke-dasharray:none;stroke-opacity:1"
           id="path498" />
      </g>
      <g
         style="stroke:#ffffff;stroke-width:0.858747;stroke-miterlimit:4;stroke-dasharray:none;stroke-opacity:1"
         id="g500"
         transform="translate(252.36603,806.14121)">
        <path
           d="M 0,0 C 2.729,-1.893 5.148,-4.791 7.558,-7.521 4.828,-5.628 2.408,-2.73 0,0"
           style="fill:#47ad4f;fill-opacity:1;fill-rule:evenodd;stroke:#ffffff;stroke-width:0.858747;stroke-miterlimit:4;stroke-dasharray:none;stroke-opacity:1"
           id="path502" />
      </g>
      <g
         style="stroke:#ffffff;stroke-width:0.858747;stroke-miterlimit:4;stroke-dasharray:none;stroke-opacity:1"
         id="g504"
         transform="translate(359.67563,796.60261)">
        <path
           d="M 0,0 C 0.148,-1.182 0.078,-2.312 -0.664,-2.843 -0.813,-1.662 -0.742,-0.532 0,0"
           style="fill:#00a650;fill-opacity:1;fill-rule:evenodd;stroke:#ffffff;stroke-width:0.858747;stroke-miterlimit:4;stroke-dasharray:none;stroke-opacity:1"
           id="path506" />
      </g>
      <g
         style="stroke:#ffffff;stroke-width:0.858747;stroke-miterlimit:4;stroke-dasharray:none;stroke-opacity:1"
         id="g508"
         transform="translate(187.91003,733.19541)">
        <path
           d="M 0,0 C -2.626,-3.274 -6.725,-7.433 -10.413,-10.425 -7.547,-6.738 -3.694,-3.364 0,0"
           style="fill:#47ad4f;fill-opacity:1;fill-rule:evenodd;stroke:#ffffff;stroke-width:0.858747;stroke-miterlimit:4;stroke-dasharray:none;stroke-opacity:1"
           id="path510" />
      </g>
      <g
         style="stroke:#ffffff;stroke-width:0.858747;stroke-miterlimit:4;stroke-dasharray:none;stroke-opacity:1"
         id="g512"
         transform="translate(252.36603,806.14121)">
        <path
           d="M 0,0 C 2.729,-1.893 5.148,-4.791 7.558,-7.521 4.828,-5.628 2.408,-2.73 0,0"
           style="fill:#dbe3d6;fill-opacity:1;fill-rule:evenodd;stroke:#ffffff;stroke-width:0.858747;stroke-miterlimit:4;stroke-dasharray:none;stroke-opacity:1"
           id="path514" />
      </g>
      <g
         style="stroke:#ffffff;stroke-width:0.858747;stroke-miterlimit:4;stroke-dasharray:none;stroke-opacity:1"
         id="g516"
         transform="translate(186.96073,732.22471)">
        <path
           d="M 0,0 C -2.886,-3.213 -5.779,-6.585 -9.472,-9.446 -6.585,-6.233 -3.691,-2.861 0,0"
           style="fill:#4e5254;fill-opacity:1;fill-rule:evenodd;stroke:#ffffff;stroke-width:0.858747;stroke-miterlimit:4;stroke-dasharray:none;stroke-opacity:1"
           id="path518" />
      </g>
    </g>
  </g>
</svg>
