<?xml version="1.0" encoding="UTF-8" standalone="no"?>
<svg
   xmlns:dc="http://purl.org/dc/elements/1.1/"
   xmlns:cc="http://creativecommons.org/ns#"
   xmlns:rdf="http://www.w3.org/1999/02/22-rdf-syntax-ns#"
   xmlns:svg="http://www.w3.org/2000/svg"
   xmlns="http://www.w3.org/2000/svg"
   width="50mm"
   height="42.49482mm"
   viewBox="0 0 50.000001 42.494819"
   version="1.1"
   id="svg966">
  <defs
     id="defs960">
    <clipPath
       clipPathUnits="userSpaceOnUse"
       id="clipPath402">
      <path
         d="m 563.158,610.943 c -2.854,-1.057 -4.225,-3.404 -5.202,-5.672 v 0 c -0.978,-2.268 -1.643,-7.902 -3.324,-13.025 v 0 c -1.682,-5.123 -6.024,-9.151 -12.438,-13.649 v 0 c -6.414,-4.499 -12.438,-5.32 -15.41,-9.348 v 0 c -2.971,-4.029 -2.971,-7.118 -3.207,-8.644 v 0 c -0.234,-1.525 1.095,-4.263 1.095,-4.263 v 0 c 0,0 2.347,5.319 6.259,8.527 v 0 c 3.911,3.207 16.057,4.21 23.348,7.587 v 0 c 7.433,3.441 19.556,9.935 20.378,22.02 v 0 c 0.822,12.085 -4.536,15.645 -4.536,15.645 v 0 c 0,0 -2.503,1.144 -4.959,1.144 v 0 c -0.691,0 -1.378,-0.091 -2.004,-0.322"
         id="path400" />
    </clipPath>
  </defs>
  <metadata
     id="metadata963">
    <rdf:RDF>
      <cc:Work
         rdf:about="">
        <dc:format>image/svg+xml</dc:format>
        <dc:type
           rdf:resource="http://purl.org/dc/dcmitype/StillImage" />
        <dc:title></dc:title>
      </cc:Work>
    </rdf:RDF>
  </metadata>
  <g
     id="layer1"
     transform="translate(-6.1854025,-36.144427)">
    <g
       style="stroke:#000000;stroke-opacity:0.69999999;stroke-width:1.03895587;stroke-miterlimit:4;stroke-dasharray:none"
       id="g272"
       transform="matrix(0.19504467,0,0,-0.18999042,11.50228,71.722276)">
      <path
         d="m 0,0 c 0.432,0.425 0.815,0.875 1.151,1.348 0.287,0.378 0.551,0.78 0.791,1.206 0.24,0.473 0.361,0.946 0.361,1.419 v 41.01 h -4.964 c -0.577,0 -1.225,-0.212 -1.943,-0.638 C -5.276,43.966 -5.9,43.517 -6.476,42.996 -7.194,42.429 -7.89,41.79 -8.561,41.081 l 2.014,10.856 h 25.541 l 2.015,-10.856 c -0.672,0.709 -1.367,1.348 -2.087,1.915 -0.623,0.521 -1.295,0.97 -2.015,1.349 -0.671,0.426 -1.294,0.638 -1.87,0.638 H 9.784 V 3.83 C 9.784,3.405 9.905,2.955 10.145,2.482 10.384,2.057 10.648,1.655 10.936,1.276 11.272,0.803 11.68,0.377 12.159,0 Z"
         style="fill:#e17d10;fill-opacity:1;fill-rule:nonzero;stroke:#000000;stroke-opacity:0.69999999;stroke-width:1.03895587;stroke-miterlimit:4;stroke-dasharray:none"
         id="path274" />
    </g>
    <g
       style="stroke:#000000;stroke-opacity:0.69999999;stroke-width:1.03895587;stroke-miterlimit:4;stroke-dasharray:none"
       id="g276"
       transform="matrix(0.19504467,0,0,-0.18999042,19.44483,63.944166)">
      <path
         d="M 0,0 C 0,1.04 -0.384,2.01 -1.151,2.909 -1.918,3.855 -2.829,4.327 -3.886,4.327 H -6.115 C -7.219,4.327 -8.153,3.855 -8.921,2.909 -9.642,2.01 -10,1.04 -10,0 v -29.305 c 0,-1.04 0.358,-2.033 1.079,-2.979 0.768,-0.946 1.702,-1.419 2.806,-1.419 l 2.158,0.071 c 1.103,0 2.015,0.449 2.734,1.348 0.767,0.946 1.152,1.939 1.152,2.979 z m -3.886,11.707 c 1.584,0 3.047,-0.308 4.39,-0.923 C 1.895,10.217 3.094,9.412 4.102,8.372 5.156,7.332 5.972,6.125 6.548,4.753 7.171,3.429 7.482,1.986 7.482,0.425 V -29.73 c 0,-1.562 -0.311,-3.027 -0.934,-4.399 -0.576,-1.324 -1.392,-2.507 -2.446,-3.547 -1.055,-1.041 -2.279,-1.869 -3.669,-2.484 -1.344,-0.568 -2.807,-0.85 -4.39,-0.85 l -2.158,-0.072 c -1.583,0 -3.07,0.307 -4.461,0.922 -1.343,0.615 -2.542,1.419 -3.597,2.413 -1.056,1.04 -1.895,2.247 -2.518,3.618 -0.576,1.372 -0.864,2.837 -0.864,4.399 V 0.425 c 0,1.561 0.288,3.004 0.864,4.328 0.623,1.372 1.462,2.579 2.518,3.619 1.055,1.04 2.254,1.845 3.597,2.412 1.391,0.615 2.878,0.923 4.461,0.923 z"
         style="fill:#e17d10;fill-opacity:1;fill-rule:evenodd;stroke:#000000;stroke-opacity:0.69999999;stroke-width:1.03895587;stroke-miterlimit:4;stroke-dasharray:none"
         id="path278" />
    </g>
    <g
       style="stroke:#000000;stroke-opacity:0.69999999;stroke-width:1.03895587;stroke-miterlimit:4;stroke-dasharray:none"
       id="g280"
       transform="matrix(0.19504467,0,0,-0.18999042,27.120714,65.076603)">
      <path
         d="m 0,0 h -11.871 c 0.432,0.378 0.815,0.804 1.151,1.276 0.288,0.379 0.551,0.805 0.791,1.278 0.241,0.473 0.36,0.946 0.36,1.42 v 0.709 c 0,1.844 -0.432,3.216 -1.294,4.115 -0.817,0.898 -1.847,1.348 -3.094,1.348 -1.296,0 -2.375,-0.45 -3.237,-1.348 -0.817,-0.899 -1.225,-2.271 -1.225,-4.115 0,-1.75 0.384,-3.287 1.151,-4.613 0.817,-1.323 1.799,-2.577 2.951,-3.759 1.198,-1.183 2.494,-2.366 3.885,-3.548 1.391,-1.135 2.662,-2.412 3.813,-3.832 1.199,-1.419 2.182,-3.027 2.95,-4.825 0.815,-1.797 1.223,-3.902 1.223,-6.314 0,-8.751 -3.933,-13.125 -11.799,-13.125 -2.015,0 -3.79,0.212 -5.324,0.637 -1.488,0.426 -2.735,1.135 -3.742,2.129 -1.007,1.04 -1.775,2.388 -2.302,4.044 -0.48,1.703 -0.72,3.807 -0.72,6.315 v 1.419 c 0,0.473 -0.12,0.946 -0.359,1.418 -0.241,0.474 -0.504,0.9 -0.79,1.278 -0.336,0.473 -0.719,0.898 -1.153,1.278 h 11.943 c -0.431,-0.426 -0.815,-0.876 -1.151,-1.349 -0.287,-0.378 -0.552,-0.804 -0.791,-1.277 -0.24,-0.473 -0.36,-0.922 -0.36,-1.348 v -1.916 c 0,-1.797 0.431,-3.145 1.296,-4.044 0.862,-0.898 1.941,-1.349 3.237,-1.349 1.247,0 2.326,0.451 3.237,1.349 0.911,0.899 1.368,2.247 1.368,4.044 0,1.75 -0.408,3.288 -1.224,4.612 -0.768,1.324 -1.751,2.577 -2.949,3.76 -1.2,1.183 -2.519,2.366 -3.957,3.548 -1.391,1.183 -2.687,2.484 -3.885,3.903 -1.2,1.418 -2.207,3.003 -3.023,4.754 -0.767,1.797 -1.151,3.901 -1.151,6.314 0,4.588 0.983,7.923 2.95,10.004 1.966,2.081 4.941,3.123 8.921,3.123 3.934,0 6.884,-1.042 8.85,-3.123 2.014,-2.081 3.021,-5.416 3.021,-10.004 0,-0.615 0.121,-1.183 0.361,-1.702 0.24,-0.473 0.504,-0.9 0.791,-1.278 C -0.815,0.733 -0.432,0.332 0,0"
         style="fill:#e17d10;fill-opacity:1;fill-rule:nonzero;stroke:#000000;stroke-opacity:0.69999999;stroke-width:1.03895587;stroke-miterlimit:4;stroke-dasharray:none"
         id="path282" />
    </g>
    <g
       style="stroke:#000000;stroke-opacity:0.69999999;stroke-width:1.03895587;stroke-miterlimit:4;stroke-dasharray:none"
       id="g284"
       transform="matrix(0.19504467,0,0,-0.18999042,28.916687,71.722276)">
      <path
         d="m 0,0 c 0.433,0.425 0.815,0.875 1.151,1.348 0.288,0.378 0.551,0.78 0.792,1.206 0.24,0.473 0.361,0.946 0.361,1.419 v 41.01 h -4.965 c -0.576,0 -1.224,-0.212 -1.943,-0.638 -0.672,-0.379 -1.295,-0.828 -1.871,-1.349 -0.719,-0.567 -1.414,-1.206 -2.085,-1.915 l 2.014,10.856 h 25.541 l 2.014,-10.856 c -0.671,0.709 -1.366,1.348 -2.086,1.915 -0.624,0.521 -1.295,0.97 -2.015,1.349 -0.671,0.426 -1.295,0.638 -1.871,0.638 H 9.785 V 3.83 c 0,-0.425 0.12,-0.875 0.361,-1.348 C 10.385,2.057 10.649,1.655 10.937,1.276 11.272,0.803 11.68,0.377 12.16,0 Z"
         style="fill:#e17d10;fill-opacity:1;fill-rule:nonzero;stroke:#000000;stroke-opacity:0.69999999;stroke-width:1.03895587;stroke-miterlimit:4;stroke-dasharray:none"
         id="path286" />
    </g>
    <g
       style="stroke:#000000;stroke-opacity:0.69999999;stroke-width:1.03895587;stroke-miterlimit:4;stroke-dasharray:none"
       id="g288"
       transform="matrix(0.19504467,0,0,-0.18999042,36.747049,68.311911)">
      <path
         d="M 0,0 -3.741,26.04 -7.482,0 Z m -0.287,-17.95 c 0.479,0.519 0.887,1.04 1.223,1.559 0.288,0.474 0.528,1.018 0.719,1.634 0.241,0.614 0.312,1.252 0.216,1.914 -0.096,0.663 -0.192,1.324 -0.288,1.987 -0.096,0.709 -0.191,1.324 -0.287,1.845 -0.097,0.615 -0.192,1.23 -0.288,1.845 h -9.57 l -0.792,-5.818 c -0.094,-0.568 -0.046,-1.159 0.145,-1.773 0.24,-0.569 0.504,-1.089 0.791,-1.562 0.336,-0.567 0.721,-1.112 1.151,-1.631 h -11.726 c 0.384,0.377 0.72,0.779 1.008,1.205 0.239,0.378 0.479,0.758 0.718,1.135 0.193,0.425 0.335,0.828 0.432,1.206 0.047,0.19 0.144,0.923 0.287,2.2 0.192,1.324 0.432,3.003 0.72,5.038 0.336,2.034 0.672,4.328 1.008,6.882 0.382,2.555 0.767,5.156 1.15,7.805 0.385,2.649 0.743,5.251 1.079,7.805 0.385,2.554 0.721,4.824 1.008,6.811 0.336,2.034 0.575,3.69 0.719,4.967 0.192,1.278 0.312,1.987 0.36,2.128 0.096,0.521 0.025,1.041 -0.216,1.562 -0.239,0.567 -0.504,1.088 -0.792,1.561 -0.336,0.52 -0.718,1.064 -1.15,1.632 H 5.181 C 4.701,33.419 4.293,32.875 3.957,32.355 3.669,31.882 3.406,31.361 3.167,30.794 2.975,30.273 2.926,29.8 3.022,29.375 c 0,-0.095 0.096,-0.781 0.289,-2.059 0.19,-1.229 0.431,-2.837 0.718,-4.824 0.288,-1.987 0.6,-4.233 0.936,-6.741 0.384,-2.507 0.743,-5.084 1.079,-7.733 0.385,-2.601 0.743,-5.179 1.079,-7.734 0.385,-2.555 0.719,-4.848 1.008,-6.883 0.335,-2.033 0.599,-3.736 0.791,-5.108 0.191,-1.325 0.311,-2.082 0.359,-2.27 0.097,-0.427 0.264,-0.876 0.504,-1.349 0.239,-0.473 0.48,-0.899 0.72,-1.277 0.287,-0.473 0.623,-0.922 1.008,-1.347 z"
         style="fill:#e17d10;fill-opacity:1;fill-rule:evenodd;stroke:#000000;stroke-opacity:0.69999999;stroke-width:1.03895587;stroke-miterlimit:4;stroke-dasharray:none"
         id="path290" />
    </g>
    <g
       style="stroke:#000000;stroke-opacity:0.69999999;stroke-width:1.03895587;stroke-miterlimit:4;stroke-dasharray:none"
       id="g292"
       transform="matrix(0.19504467,0,0,-0.18999042,42.977808,63.984805)">
      <path
         d="m 0,0 c 0,1.088 -0.385,1.987 -1.151,2.697 -0.72,0.757 -1.608,1.135 -2.662,1.135 h -4.965 v -37.18 h 4.965 c 1.054,0 1.942,0.355 2.662,1.065 0.766,0.757 1.151,1.655 1.151,2.697 z m -16.045,6.032 c 0,0.378 -0.12,0.875 -0.36,1.489 -0.24,0.616 -0.503,1.183 -0.79,1.704 -0.336,0.614 -0.697,1.276 -1.079,1.986 h 14.388 c 1.582,0 3.071,-0.307 4.461,-0.922 C 1.966,9.721 3.165,8.917 4.173,7.876 5.18,6.883 5.971,5.7 6.546,4.329 7.17,3.004 7.481,1.562 7.481,0 v -29.586 c 0,-1.561 -0.311,-3.029 -0.935,-4.4 -0.575,-1.325 -1.366,-2.483 -2.373,-3.476 -1.008,-0.994 -2.207,-1.798 -3.598,-2.413 -1.343,-0.567 -2.805,-0.851 -4.388,-0.851 h -14.461 c 0.382,0.614 0.743,1.253 1.079,1.915 0.287,0.568 0.55,1.159 0.79,1.773 0.24,0.663 0.36,1.326 0.36,1.987 z"
         style="fill:#e17d10;fill-opacity:1;fill-rule:evenodd;stroke:#000000;stroke-opacity:0.69999999;stroke-width:1.03895587;stroke-miterlimit:4;stroke-dasharray:none"
         id="path294" />
    </g>
    <g
       style="stroke:#000000;stroke-opacity:0.69999999;stroke-width:1.03895587;stroke-miterlimit:4;stroke-dasharray:none"
       id="g296"
       transform="matrix(0.19504467,0,0,-0.18999042,48.647054,68.311911)">
      <path
         d="M 0,0 -3.741,26.04 -7.483,0 Z m -0.288,-17.95 c 0.48,0.519 0.887,1.04 1.224,1.559 0.287,0.474 0.527,1.018 0.718,1.634 0.241,0.614 0.312,1.252 0.216,1.914 -0.095,0.663 -0.191,1.324 -0.287,1.987 -0.097,0.709 -0.192,1.324 -0.288,1.845 -0.097,0.615 -0.192,1.23 -0.287,1.845 h -9.571 l -0.791,-5.818 c -0.095,-0.568 -0.047,-1.159 0.144,-1.773 0.24,-0.569 0.504,-1.089 0.791,-1.562 0.337,-0.567 0.721,-1.112 1.152,-1.631 h -11.727 c 0.385,0.377 0.721,0.779 1.008,1.205 0.239,0.378 0.479,0.758 0.719,1.135 0.192,0.425 0.334,0.828 0.431,1.206 0.048,0.19 0.145,0.923 0.288,2.2 0.192,1.324 0.432,3.003 0.719,5.038 0.336,2.034 0.672,4.328 1.008,6.882 0.383,2.555 0.767,5.156 1.15,7.805 0.385,2.649 0.744,5.251 1.08,7.805 0.384,2.554 0.72,4.824 1.008,6.811 0.336,2.034 0.574,3.69 0.719,4.967 0.192,1.278 0.311,1.987 0.359,2.128 0.096,0.521 0.025,1.041 -0.216,1.562 -0.239,0.567 -0.504,1.088 -0.792,1.561 -0.335,0.52 -0.718,1.064 -1.15,1.632 H 5.181 C 4.7,33.419 4.292,32.875 3.956,32.355 3.669,31.882 3.405,31.361 3.166,30.794 2.974,30.273 2.926,29.8 3.022,29.375 3.022,29.28 3.117,28.594 3.31,27.316 3.501,26.087 3.741,24.479 4.029,22.492 4.316,20.505 4.628,18.259 4.964,15.751 5.349,13.244 5.707,10.667 6.044,8.018 6.428,5.417 6.786,2.839 7.123,0.284 7.507,-2.271 7.842,-4.564 8.13,-6.599 c 0.335,-2.033 0.599,-3.736 0.791,-5.108 0.191,-1.325 0.311,-2.082 0.36,-2.27 0.097,-0.427 0.264,-0.876 0.504,-1.349 0.239,-0.473 0.48,-0.899 0.719,-1.277 0.288,-0.473 0.624,-0.922 1.008,-1.347 z"
         style="fill:#e17d10;fill-opacity:1;fill-rule:evenodd;stroke:#000000;stroke-opacity:0.69999999;stroke-width:1.03895587;stroke-miterlimit:4;stroke-dasharray:none"
         id="path298" />
    </g>
    <g
       transform="matrix(1.1150149,0,0,1.1150149,-4.9296625,-8.4074986)"
       id="g1651">
      <g
         transform="matrix(0.19504467,0,0,-0.18999042,19.185202,74.923994)"
         id="g300"
         style="fill:#000000;fill-opacity:0;stroke:#000000;stroke-width:0.483114;stroke-miterlimit:4;stroke-dasharray:none;stroke-opacity:0.7">
        <path
           id="path302"
           style="fill:#000000;fill-opacity:0;fill-rule:evenodd;stroke:#000000;stroke-width:0.483114;stroke-miterlimit:4;stroke-dasharray:none;stroke-opacity:0.7"
           d="M 0,0 -0.866,7.497 -1.732,0 Z m -0.066,-4.215 c 0.111,0.122 0.205,0.244 0.283,0.366 0.066,0.111 0.122,0.239 0.166,0.383 0.055,0.145 0.072,0.294 0.051,0.45 C 0.411,-2.86 0.389,-2.705 0.366,-2.549 0.344,-2.383 0.322,-2.238 0.3,-2.116 0.277,-1.972 0.256,-1.828 0.233,-1.683 h -2.215 l -0.184,-1.366 c -0.022,-0.134 -0.011,-0.272 0.033,-0.417 0.056,-0.133 0.117,-0.255 0.184,-0.366 0.078,-0.133 0.166,-0.261 0.266,-0.383 h -2.715 c 0.088,0.088 0.167,0.183 0.233,0.283 0.056,0.089 0.111,0.178 0.167,0.266 0.044,0.1 0.077,0.195 0.1,0.283 0.01,0.045 0.033,0.239 0.066,0.584 0.044,0.344 0.1,0.788 0.167,1.332 0.077,0.545 0.155,1.155 0.233,1.833 0.088,0.689 0.178,1.388 0.266,2.099 0.09,0.711 0.173,1.406 0.25,2.083 0.089,0.678 0.167,1.283 0.233,1.816 0.079,0.545 0.134,0.983 0.167,1.316 0.044,0.345 0.073,0.533 0.083,0.567 0.023,0.122 0.006,0.245 -0.049,0.366 C -2.538,8.747 -2.6,8.869 -2.666,8.98 -2.744,9.102 -2.832,9.23 -2.933,9.363 H 1.199 C 1.088,9.23 0.994,9.102 0.916,8.98 0.85,8.869 0.789,8.747 0.733,8.613 0.688,8.492 0.678,8.38 0.7,8.28 0.7,8.258 0.722,8.081 0.767,7.747 0.811,7.414 0.866,6.98 0.933,6.448 1,5.925 1.072,5.326 1.149,4.648 1.238,3.971 1.321,3.276 1.399,2.565 1.488,1.866 1.571,1.177 1.649,0.5 1.738,-0.178 1.816,-0.789 1.883,-1.333 1.96,-1.877 2.021,-2.327 2.066,-2.683 2.11,-3.038 2.138,-3.238 2.149,-3.282 2.172,-3.383 2.21,-3.488 2.266,-3.599 2.321,-3.71 2.377,-3.81 2.433,-3.899 2.499,-4.01 2.577,-4.116 2.666,-4.215 Z" />
      </g>
      <g
         transform="matrix(0.19504467,0,0,-0.18999042,21.190126,73.407798)"
         id="g304"
         style="fill:#000000;fill-opacity:0;stroke:#000000;stroke-width:0.483114;stroke-miterlimit:4;stroke-dasharray:none;stroke-opacity:0.7">
        <path
           id="path306"
           style="fill:#000000;fill-opacity:0;fill-rule:nonzero;stroke:#000000;stroke-width:0.483114;stroke-miterlimit:4;stroke-dasharray:none;stroke-opacity:0.7"
           d="m 0,0 c -0.1,-0.1 -0.188,-0.206 -0.266,-0.316 -0.067,-0.09 -0.128,-0.19 -0.183,-0.301 -0.056,-0.111 -0.084,-0.216 -0.084,-0.316 V -11.13 c 0,-0.144 0.028,-0.277 0.084,-0.4 0.055,-0.122 0.116,-0.233 0.183,-0.333 0.078,-0.122 0.166,-0.233 0.266,-0.333 h -2.832 c 0.122,0.1 0.223,0.217 0.3,0.35 0.066,0.111 0.117,0.244 0.15,0.4 0.044,0.167 0.033,0.344 -0.033,0.533 l -2.5,6.198 v -6.431 c 0,-0.156 0.028,-0.3 0.084,-0.434 0.056,-0.122 0.116,-0.227 0.184,-0.316 0.077,-0.111 0.166,-0.211 0.265,-0.3 h -2.731 c 0.099,0.089 0.188,0.194 0.265,0.317 0.068,0.1 0.128,0.211 0.184,0.333 0.056,0.133 0.083,0.272 0.083,0.416 l -0.017,10.197 c 0,0.078 -0.027,0.166 -0.083,0.266 -0.055,0.111 -0.116,0.217 -0.183,0.317 -0.077,0.122 -0.161,0.239 -0.249,0.35 h 2.998 C -4.226,-0.111 -4.32,-0.228 -4.398,-0.35 -4.465,-0.461 -4.521,-0.583 -4.564,-0.717 -4.609,-0.839 -4.615,-0.966 -4.581,-1.1 l 2.383,-5.931 v 6.098 c 0,0.1 -0.029,0.205 -0.084,0.316 -0.056,0.111 -0.116,0.211 -0.184,0.301 C -2.543,-0.206 -2.632,-0.1 -2.732,0 Z" />
      </g>
      <g
         transform="matrix(0.19504467,0,0,-0.18999042,21.706877,75.72488)"
         id="g308"
         style="fill:#000000;fill-opacity:0;stroke:#000000;stroke-width:0.483114;stroke-miterlimit:4;stroke-dasharray:none;stroke-opacity:0.7">
        <path
           id="path310"
           style="fill:#000000;fill-opacity:0;fill-rule:nonzero;stroke:#000000;stroke-width:0.483114;stroke-miterlimit:4;stroke-dasharray:none;stroke-opacity:0.7"
           d="M 0,0 C 0.101,0.1 0.188,0.205 0.267,0.316 0.333,0.405 0.395,0.5 0.45,0.6 0.505,0.71 0.533,0.822 0.533,0.933 v 9.63 h -1.149 c -0.134,0 -0.283,-0.05 -0.45,-0.15 -0.156,-0.089 -0.3,-0.195 -0.433,-0.317 -0.167,-0.133 -0.328,-0.283 -0.483,-0.45 l 0.465,2.55 h 5.915 l 0.467,-2.55 c -0.155,0.167 -0.316,0.317 -0.483,0.45 -0.145,0.122 -0.3,0.228 -0.467,0.317 -0.155,0.1 -0.3,0.15 -0.434,0.15 H 2.266 V 0.899 C 2.266,0.8 2.294,0.694 2.35,0.583 2.404,0.483 2.466,0.389 2.532,0.3 2.61,0.188 2.705,0.088 2.815,0 Z" />
      </g>
      <g
         transform="matrix(0.19504467,0,0,-0.18999042,23.546091,73.898444)"
         id="g312"
         style="fill:#000000;fill-opacity:0;stroke:#000000;stroke-width:0.483114;stroke-miterlimit:4;stroke-dasharray:none;stroke-opacity:0.7">
        <path
           id="path314"
           style="fill:#000000;fill-opacity:0;fill-rule:evenodd;stroke:#000000;stroke-width:0.483114;stroke-miterlimit:4;stroke-dasharray:none;stroke-opacity:0.7"
           d="M 0,0 C 0,0.245 -0.089,0.472 -0.267,0.683 -0.444,0.905 -0.655,1.016 -0.899,1.016 H -1.416 C -1.671,1.016 -1.888,0.905 -2.065,0.683 -2.232,0.472 -2.315,0.245 -2.315,0 v -6.881 c 0,-0.244 0.083,-0.478 0.25,-0.7 0.177,-0.222 0.394,-0.333 0.649,-0.333 l 0.5,0.017 c 0.256,0 0.467,0.105 0.633,0.316 0.178,0.222 0.266,0.456 0.266,0.7 z m -0.899,2.749 c 0.366,0 0.705,-0.072 1.016,-0.217 C 0.438,2.399 0.717,2.21 0.95,1.966 1.194,1.722 1.384,1.438 1.517,1.116 1.661,0.805 1.733,0.466 1.733,0.1 V -6.981 C 1.733,-7.348 1.661,-7.692 1.517,-8.014 1.384,-8.325 1.194,-8.603 0.95,-8.847 0.706,-9.091 0.423,-9.286 0.101,-9.43 -0.211,-9.563 -0.55,-9.63 -0.916,-9.63 l -0.5,-0.016 c -0.366,0 -0.711,0.071 -1.033,0.216 -0.311,0.144 -0.588,0.333 -0.833,0.566 -0.244,0.245 -0.439,0.528 -0.583,0.85 -0.133,0.322 -0.199,0.666 -0.199,1.033 V 0.1 c 0,0.366 0.066,0.705 0.199,1.016 0.144,0.322 0.339,0.606 0.583,0.85 0.245,0.244 0.522,0.433 0.833,0.566 0.322,0.145 0.667,0.217 1.033,0.217 z" />
      </g>
      <g
         transform="matrix(0.19504467,0,0,-0.18999042,24.537326,74.889209)"
         id="g316"
         style="fill:#000000;fill-opacity:0;stroke:#000000;stroke-width:0.483114;stroke-miterlimit:4;stroke-dasharray:none;stroke-opacity:0.7">
        <path
           id="path318"
           style="fill:#000000;fill-opacity:0;fill-rule:nonzero;stroke:#000000;stroke-width:0.483114;stroke-miterlimit:4;stroke-dasharray:none;stroke-opacity:0.7"
           d="m 0,0 c -0.101,-0.089 -0.189,-0.189 -0.267,-0.3 -0.067,-0.089 -0.128,-0.2 -0.183,-0.333 -0.045,-0.122 -0.067,-0.256 -0.067,-0.4 v -0.734 c 0,-0.244 0.083,-0.455 0.25,-0.632 0.178,-0.178 0.394,-0.267 0.65,-0.267 h 0.033 c 0.245,0 0.45,0.083 0.616,0.25 0.178,0.178 0.267,0.395 0.267,0.649 v 8.631 c 0,0.111 -0.028,0.222 -0.083,0.333 -0.056,0.111 -0.117,0.211 -0.184,0.3 -0.077,0.111 -0.16,0.211 -0.25,0.3 H 3.565 C 3.465,7.697 3.376,7.592 3.299,7.481 3.231,7.392 3.171,7.286 3.115,7.164 3.06,7.042 3.032,6.925 3.032,6.814 V -1.767 C 3.032,-2.133 2.96,-2.477 2.815,-2.799 2.682,-3.11 2.499,-3.388 2.266,-3.632 2.032,-3.865 1.755,-4.054 1.433,-4.199 1.11,-4.332 0.767,-4.398 0.399,-4.398 l -0.016,0.016 c -0.366,0 -0.711,0.067 -1.033,0.2 -0.311,0.144 -0.589,0.333 -0.833,0.567 -0.234,0.233 -0.422,0.505 -0.567,0.816 -0.133,0.322 -0.199,0.666 -0.199,1.032 v 0.717 c 0,0.133 -0.028,0.261 -0.083,0.383 -0.057,0.123 -0.117,0.233 -0.184,0.334 C -2.594,-0.211 -2.677,-0.1 -2.766,0 Z" />
      </g>
      <g
         transform="matrix(0.19504467,0,0,-0.18999042,25.921484,73.407798)"
         id="g320"
         style="fill:#000000;fill-opacity:0;stroke:#000000;stroke-width:0.483114;stroke-miterlimit:4;stroke-dasharray:none;stroke-opacity:0.7">
        <path
           id="path322"
           style="fill:#000000;fill-opacity:0;fill-rule:nonzero;stroke:#000000;stroke-width:0.483114;stroke-miterlimit:4;stroke-dasharray:none;stroke-opacity:0.7"
           d="M 0,0 C -0.1,-0.078 -0.188,-0.172 -0.267,-0.283 -0.333,-0.373 -0.395,-0.478 -0.449,-0.6 -0.494,-0.722 -0.516,-0.855 -0.516,-1 v -10.096 c 0,-0.156 0.022,-0.3 0.067,-0.434 0.054,-0.133 0.116,-0.249 0.182,-0.349 0.079,-0.123 0.167,-0.228 0.267,-0.317 h -2.766 c 0.089,0.1 0.172,0.211 0.25,0.333 0.068,0.1 0.128,0.211 0.184,0.333 0.056,0.123 0.083,0.256 0.083,0.4 v 10.097 c 0,0.122 -0.027,0.244 -0.083,0.366 -0.056,0.123 -0.116,0.234 -0.184,0.334 C -2.594,-0.211 -2.677,-0.1 -2.766,0 Z" />
      </g>
      <g
         transform="matrix(0.19504467,0,0,-0.18999042,26.464155,75.72488)"
         id="g324"
         style="fill:#000000;fill-opacity:0;stroke:#000000;stroke-width:0.483114;stroke-miterlimit:4;stroke-dasharray:none;stroke-opacity:0.7">
        <path
           id="path326"
           style="fill:#000000;fill-opacity:0;fill-rule:nonzero;stroke:#000000;stroke-width:0.483114;stroke-miterlimit:4;stroke-dasharray:none;stroke-opacity:0.7"
           d="M 0,0 C 0.101,0.1 0.189,0.205 0.267,0.316 0.334,0.405 0.395,0.5 0.45,0.6 0.506,0.71 0.533,0.822 0.533,0.933 v 9.63 h -1.149 c -0.133,0 -0.283,-0.05 -0.449,-0.15 -0.157,-0.089 -0.301,-0.195 -0.434,-0.317 -0.167,-0.133 -0.327,-0.283 -0.482,-0.45 l 0.465,2.55 h 5.914 l 0.467,-2.55 c -0.155,0.167 -0.316,0.317 -0.483,0.45 -0.145,0.122 -0.3,0.228 -0.466,0.317 -0.155,0.1 -0.3,0.15 -0.434,0.15 H 2.267 V 0.899 C 2.267,0.8 2.294,0.694 2.35,0.583 2.405,0.483 2.466,0.389 2.533,0.3 2.61,0.188 2.705,0.088 2.815,0 Z" />
      </g>
      <g
         transform="matrix(0.19504467,0,0,-0.18999042,28.303546,73.898444)"
         id="g328"
         style="fill:#000000;fill-opacity:0;stroke:#000000;stroke-width:0.483114;stroke-miterlimit:4;stroke-dasharray:none;stroke-opacity:0.7">
        <path
           id="path330"
           style="fill:#000000;fill-opacity:0;fill-rule:evenodd;stroke:#000000;stroke-width:0.483114;stroke-miterlimit:4;stroke-dasharray:none;stroke-opacity:0.7"
           d="M 0,0 C 0,0.245 -0.089,0.472 -0.267,0.683 -0.444,0.905 -0.656,1.016 -0.9,1.016 h -0.516 c -0.256,0 -0.473,-0.111 -0.65,-0.333 C -2.233,0.472 -2.316,0.245 -2.316,0 v -6.881 c 0,-0.244 0.083,-0.478 0.25,-0.7 0.177,-0.222 0.394,-0.333 0.65,-0.333 l 0.499,0.017 c 0.256,0 0.467,0.105 0.634,0.316 0.178,0.222 0.265,0.456 0.265,0.7 z m -0.9,2.749 c 0.367,0 0.706,-0.072 1.016,-0.217 C 0.438,2.399 0.716,2.21 0.949,1.966 1.193,1.722 1.383,1.438 1.516,1.116 1.66,0.805 1.732,0.466 1.732,0.1 V -6.981 C 1.732,-7.348 1.66,-7.692 1.516,-8.014 1.383,-8.325 1.193,-8.603 0.949,-8.847 0.705,-9.091 0.422,-9.286 0.1,-9.43 c -0.311,-0.133 -0.651,-0.2 -1.017,-0.2 l -0.499,-0.016 c -0.367,0 -0.711,0.071 -1.033,0.216 -0.312,0.144 -0.589,0.333 -0.833,0.566 -0.245,0.245 -0.44,0.528 -0.583,0.85 -0.134,0.322 -0.2,0.666 -0.2,1.033 V 0.1 c 0,0.366 0.066,0.705 0.2,1.016 0.143,0.322 0.338,0.606 0.583,0.85 0.244,0.244 0.521,0.433 0.833,0.566 0.322,0.145 0.666,0.217 1.033,0.217 z" />
      </g>
      <g
         transform="matrix(0.19504467,0,0,-0.18999042,30.081041,74.164318)"
         id="g332"
         style="fill:#000000;fill-opacity:0;stroke:#000000;stroke-width:0.483114;stroke-miterlimit:4;stroke-dasharray:none;stroke-opacity:0.7">
        <path
           id="path334"
           style="fill:#000000;fill-opacity:0;fill-rule:nonzero;stroke:#000000;stroke-width:0.483114;stroke-miterlimit:4;stroke-dasharray:none;stroke-opacity:0.7"
           d="m 0,0 h -2.75 c 0.101,0.088 0.189,0.188 0.268,0.299 0.066,0.09 0.127,0.189 0.182,0.301 0.056,0.11 0.083,0.222 0.083,0.333 V 1.1 c 0,0.433 -0.099,0.755 -0.299,0.966 -0.189,0.211 -0.427,0.316 -0.716,0.316 -0.3,0 -0.55,-0.105 -0.75,-0.316 C -4.171,1.855 -4.266,1.533 -4.266,1.1 c 0,-0.412 0.089,-0.772 0.267,-1.083 0.188,-0.312 0.417,-0.606 0.684,-0.884 0.277,-0.278 0.577,-0.555 0.899,-0.833 0.322,-0.266 0.616,-0.566 0.883,-0.9 0.277,-0.333 0.506,-0.71 0.683,-1.132 0.189,-0.423 0.284,-0.916 0.284,-1.483 0,-2.055 -0.912,-3.082 -2.733,-3.082 -0.467,0 -0.878,0.05 -1.233,0.15 -0.345,0.1 -0.633,0.266 -0.866,0.5 -0.234,0.244 -0.412,0.561 -0.534,0.949 -0.111,0.4 -0.167,0.894 -0.167,1.483 v 0.333 c 0,0.111 -0.027,0.222 -0.083,0.333 -0.055,0.111 -0.116,0.212 -0.182,0.3 -0.078,0.111 -0.167,0.211 -0.267,0.3 h 2.766 c -0.101,-0.1 -0.19,-0.206 -0.267,-0.317 -0.067,-0.088 -0.128,-0.188 -0.183,-0.299 -0.056,-0.111 -0.083,-0.217 -0.083,-0.317 v -0.45 c 0,-0.422 0.099,-0.738 0.299,-0.949 0.2,-0.211 0.45,-0.317 0.75,-0.317 0.288,0 0.538,0.106 0.749,0.317 0.211,0.211 0.317,0.527 0.317,0.949 0,0.411 -0.094,0.772 -0.283,1.083 -0.178,0.311 -0.406,0.605 -0.683,0.883 -0.277,0.278 -0.583,0.555 -0.916,0.833 -0.322,0.278 -0.622,0.583 -0.9,0.917 -0.278,0.333 -0.511,0.705 -0.7,1.116 -0.178,0.422 -0.266,0.916 -0.266,1.482 0,1.078 0.227,1.861 0.682,2.35 0.456,0.488 1.145,0.733 2.067,0.733 0.911,0 1.594,-0.245 2.049,-0.733 0.466,-0.489 0.7,-1.272 0.7,-2.35 0,-0.144 0.027,-0.277 0.083,-0.399 0.055,-0.111 0.117,-0.211 0.183,-0.3 C -0.189,0.172 -0.101,0.078 0,0" />
      </g>
      <g
         transform="matrix(0.19504467,0,0,-0.18999042,32.206153,75.72488)"
         id="g336"
         style="fill:#000000;fill-opacity:0;stroke:#000000;stroke-width:0.483114;stroke-miterlimit:4;stroke-dasharray:none;stroke-opacity:0.7">
        <path
           id="path338"
           style="fill:#000000;fill-opacity:0;fill-rule:nonzero;stroke:#000000;stroke-width:0.483114;stroke-miterlimit:4;stroke-dasharray:none;stroke-opacity:0.7"
           d="m 0,0 h -2.716 c 0.089,0.111 0.173,0.222 0.25,0.333 0.067,0.089 0.128,0.189 0.184,0.3 0.055,0.111 0.083,0.211 0.083,0.3 V 7.964 L -4.182,0.467 -6.147,7.947 V 1.116 c 0,-0.156 0.027,-0.3 0.083,-0.433 0.055,-0.134 0.117,-0.25 0.183,-0.35 C -5.804,0.211 -5.715,0.1 -5.614,0 h -2.733 c 0.1,0.133 0.189,0.267 0.267,0.399 0.066,0.123 0.128,0.245 0.183,0.367 0.055,0.133 0.084,0.256 0.084,0.367 v 11.396 c 0,0.089 -0.029,0.189 -0.084,0.3 -0.055,0.111 -0.117,0.211 -0.183,0.3 -0.078,0.111 -0.167,0.216 -0.267,0.316 h 3.199 c -0.1,-0.089 -0.189,-0.189 -0.267,-0.299 -0.066,-0.09 -0.122,-0.189 -0.166,-0.301 -0.045,-0.111 -0.05,-0.227 -0.017,-0.349 l 1.433,-6.132 1.416,6.098 c 0.022,0.122 0.011,0.239 -0.033,0.351 -0.033,0.121 -0.083,0.227 -0.15,0.316 -0.078,0.111 -0.167,0.216 -0.267,0.316 H 0 C -0.1,13.334 -0.188,13.217 -0.267,13.095 -0.333,12.984 -0.395,12.862 -0.45,12.729 -0.494,12.596 -0.517,12.451 -0.517,12.296 V 1.083 C -0.517,0.938 -0.494,0.8 -0.45,0.666 -0.395,0.544 -0.333,0.433 -0.267,0.333 -0.188,0.211 -0.1,0.1 0,0" />
      </g>
      <g
         transform="matrix(0.19504467,0,0,-0.18999042,33.285003,75.405182)"
         id="g340"
         style="fill:#000000;fill-opacity:0;stroke:#000000;stroke-width:0.483114;stroke-miterlimit:4;stroke-dasharray:none;stroke-opacity:0.7">
        <path
           id="path342"
           style="fill:#000000;fill-opacity:0;fill-rule:nonzero;stroke:#000000;stroke-width:0.483114;stroke-miterlimit:4;stroke-dasharray:none;stroke-opacity:0.7"
           d="m 0,0 c 0.155,0.011 0.3,0.05 0.434,0.116 0.144,0.068 0.272,0.145 0.382,0.234 0.122,0.1 0.24,0.205 0.35,0.316 l -0.45,-2.349 h -5.181 c 0.089,0.134 0.172,0.267 0.25,0.4 0.067,0.122 0.128,0.25 0.183,0.384 0.055,0.144 0.084,0.282 0.084,0.416 v 9.98 c 0,0.11 -0.029,0.227 -0.084,0.35 -0.055,0.122 -0.116,0.233 -0.183,0.333 -0.078,0.122 -0.161,0.238 -0.25,0.349 H 0.684 L 1.133,8.164 C 1.011,8.275 0.889,8.38 0.767,8.48 0.655,8.569 0.527,8.647 0.383,8.713 0.25,8.78 0.105,8.825 -0.05,8.847 H -0.1 -2.266 V 5.115 h 1.617 0.016 c 0.122,0 0.238,0.022 0.35,0.067 0.111,0.055 0.211,0.116 0.3,0.183 0.1,0.077 0.194,0.166 0.283,0.266 V 2.916 C 0.233,3.004 0.155,3.088 0.066,3.166 -0.011,3.232 -0.111,3.293 -0.233,3.349 -0.345,3.404 -0.478,3.432 -0.633,3.432 H -2.266 V 0 Z" />
      </g>
      <g
         transform="matrix(0.19504467,0,0,-0.18999042,34.578306,75.72488)"
         id="g344"
         style="fill:#000000;fill-opacity:0;stroke:#000000;stroke-width:0.483114;stroke-miterlimit:4;stroke-dasharray:none;stroke-opacity:0.7">
        <path
           id="path346"
           style="fill:#000000;fill-opacity:0;fill-rule:nonzero;stroke:#000000;stroke-width:0.483114;stroke-miterlimit:4;stroke-dasharray:none;stroke-opacity:0.7"
           d="m 0,0 c 0.012,0.011 0.05,0.05 0.117,0.116 0.077,0.078 0.15,0.167 0.217,0.267 0.066,0.1 0.116,0.205 0.149,0.317 0.044,0.122 0.044,0.233 0,0.333 L -0.816,4.265 -2.1,1.033 C -2.144,0.933 -2.149,0.822 -2.115,0.7 -2.071,0.588 -2.016,0.483 -1.949,0.383 -1.883,0.283 -1.815,0.194 -1.749,0.116 -1.683,0.05 -1.638,0.011 -1.616,0 h -3.132 c 0.111,0.1 0.222,0.211 0.333,0.333 0.089,0.1 0.178,0.205 0.267,0.316 0.088,0.122 0.161,0.245 0.216,0.367 0.023,0.056 0.1,0.244 0.234,0.567 0.133,0.333 0.3,0.75 0.5,1.25 0.199,0.499 0.422,1.054 0.666,1.665 0.244,0.611 0.494,1.233 0.75,1.866 l -1.933,4.815 -0.016,0.05 c -0.057,0.122 -0.128,0.239 -0.217,0.35 -0.078,0.122 -0.161,0.228 -0.25,0.317 -0.112,0.111 -0.223,0.216 -0.334,0.316 h 3.133 c -0.122,-0.111 -0.228,-0.227 -0.317,-0.35 -0.078,-0.099 -0.138,-0.211 -0.183,-0.333 -0.044,-0.122 -0.044,-0.244 0,-0.366 0.088,-0.234 0.194,-0.495 0.316,-0.784 0.101,-0.244 0.212,-0.527 0.334,-0.849 0.133,-0.322 0.277,-0.678 0.433,-1.066 0.311,0.788 0.566,1.427 0.766,1.915 0.122,0.289 0.228,0.55 0.317,0.784 0.045,0.122 0.045,0.244 0,0.366 -0.034,0.122 -0.089,0.234 -0.166,0.333 -0.089,0.123 -0.195,0.239 -0.318,0.35 H 2.916 C 2.805,12.112 2.693,12.007 2.583,11.896 2.494,11.807 2.405,11.701 2.316,11.579 2.228,11.468 2.155,11.351 2.1,11.229 L 2.083,11.179 0.167,6.364 C 0.411,5.731 0.655,5.109 0.899,4.498 1.155,3.887 1.383,3.332 1.583,2.833 1.783,2.333 1.944,1.916 2.065,1.583 2.199,1.26 2.277,1.072 2.3,1.016 2.344,0.894 2.41,0.771 2.499,0.649 2.6,0.538 2.693,0.433 2.782,0.333 2.894,0.211 3.01,0.1 3.132,0 Z" />
      </g>
      <g
         transform="matrix(0.19504467,0,0,-0.18999042,35.803438,73.407798)"
         id="g348"
         style="fill:#000000;fill-opacity:0;stroke:#000000;stroke-width:0.483114;stroke-miterlimit:4;stroke-dasharray:none;stroke-opacity:0.7">
        <path
           id="path350"
           style="fill:#000000;fill-opacity:0;fill-rule:nonzero;stroke:#000000;stroke-width:0.483114;stroke-miterlimit:4;stroke-dasharray:none;stroke-opacity:0.7"
           d="M 0,0 C -0.1,-0.078 -0.188,-0.172 -0.267,-0.283 -0.333,-0.373 -0.395,-0.478 -0.45,-0.6 -0.494,-0.722 -0.517,-0.855 -0.517,-1 v -10.096 c 0,-0.156 0.023,-0.3 0.067,-0.434 0.055,-0.133 0.117,-0.249 0.183,-0.349 0.079,-0.123 0.167,-0.228 0.267,-0.317 h -2.766 c 0.089,0.1 0.172,0.211 0.25,0.333 0.067,0.1 0.128,0.211 0.183,0.333 0.056,0.123 0.084,0.256 0.084,0.4 v 10.097 c 0,0.122 -0.028,0.244 -0.084,0.366 -0.055,0.123 -0.116,0.234 -0.183,0.334 C -2.594,-0.211 -2.677,-0.1 -2.766,0 Z" />
      </g>
      <g
         transform="matrix(0.19504467,0,0,-0.18999042,36.781515,75.11083)"
         id="g352"
         style="fill:#000000;fill-opacity:0;stroke:#000000;stroke-width:0.483114;stroke-miterlimit:4;stroke-dasharray:none;stroke-opacity:0.7">
        <path
           id="path354"
           style="fill:#000000;fill-opacity:0;fill-rule:nonzero;stroke:#000000;stroke-width:0.483114;stroke-miterlimit:4;stroke-dasharray:none;stroke-opacity:0.7"
           d="m 0,0 c 0,0.155 -0.027,0.3 -0.083,0.433 -0.056,0.133 -0.117,0.25 -0.184,0.35 -0.077,0.122 -0.161,0.233 -0.25,0.333 H 2.249 C 2.149,1.027 2.061,0.922 1.982,0.8 1.916,0.7 1.855,0.583 1.8,0.45 1.755,0.328 1.732,0.206 1.732,0.083 V -0.6 C 1.732,-0.966 1.661,-1.311 1.516,-1.633 1.383,-1.955 1.194,-2.238 0.95,-2.482 0.717,-2.716 0.438,-2.905 0.117,-3.049 -0.194,-3.193 -0.533,-3.265 -0.899,-3.265 h -0.5 c -0.367,0 -0.711,0.066 -1.034,0.2 -0.31,0.144 -0.588,0.338 -0.833,0.583 -0.233,0.244 -0.422,0.522 -0.566,0.833 -0.133,0.321 -0.199,0.666 -0.199,1.033 v 7.08 c 0,0.367 0.066,0.711 0.199,1.034 0.144,0.322 0.333,0.599 0.566,0.833 0.245,0.244 0.523,0.438 0.833,0.583 0.323,0.144 0.667,0.216 1.034,0.216 h 0.516 c 0.366,0 0.705,-0.072 1.016,-0.216 C 0.455,8.769 0.733,8.575 0.967,8.331 1.199,8.097 1.383,7.82 1.516,7.498 1.661,7.175 1.732,6.831 1.732,6.464 v -0.5 C 1.732,5.809 1.761,5.665 1.816,5.532 1.872,5.398 1.933,5.281 2,5.182 2.077,5.06 2.166,4.954 2.266,4.865 h -2.783 c 0.101,0.089 0.19,0.189 0.267,0.3 0.066,0.089 0.128,0.194 0.184,0.316 0.055,0.123 0.083,0.262 0.083,0.417 v 0.566 c 0,0.256 -0.089,0.467 -0.267,0.634 -0.178,0.177 -0.389,0.266 -0.633,0.266 h -0.516 c -0.256,0 -0.472,-0.089 -0.65,-0.266 -0.167,-0.167 -0.25,-0.378 -0.25,-0.634 v -7.08 c 0,-0.245 0.083,-0.456 0.25,-0.634 0.178,-0.166 0.394,-0.25 0.65,-0.25 h 0.5 c 0.254,0 0.465,0.084 0.632,0.25 C -0.089,-1.072 0,-0.855 0,-0.6 Z" />
      </g>
      <g
         transform="matrix(0.19504467,0,0,-0.18999042,38.091217,74.923994)"
         id="g356"
         style="fill:#000000;fill-opacity:0;stroke:#000000;stroke-width:0.483114;stroke-miterlimit:4;stroke-dasharray:none;stroke-opacity:0.7">
        <path
           id="path358"
           style="fill:#000000;fill-opacity:0;fill-rule:evenodd;stroke:#000000;stroke-width:0.483114;stroke-miterlimit:4;stroke-dasharray:none;stroke-opacity:0.7"
           d="M 0,0 -0.867,6.114 -1.733,0 Z m -0.067,-4.215 c 0.111,0.122 0.206,0.244 0.283,0.366 0.067,0.111 0.122,0.239 0.167,0.383 0.055,0.145 0.072,0.294 0.05,0.45 C 0.411,-2.86 0.389,-2.705 0.366,-2.549 0.344,-2.383 0.321,-2.238 0.3,-2.116 0.277,-1.972 0.255,-1.828 0.232,-1.683 h -2.215 l -0.183,-1.366 c -0.022,-0.134 -0.012,-0.272 0.033,-0.417 0.056,-0.133 0.116,-0.255 0.183,-0.366 0.078,-0.133 0.167,-0.261 0.266,-0.383 h -2.714 c 0.088,0.088 0.166,0.183 0.233,0.283 0.055,0.089 0.11,0.178 0.166,0.266 0.045,0.1 0.077,0.195 0.101,0.283 0.01,0.045 0.033,0.217 0.066,0.517 0.044,0.311 0.1,0.705 0.166,1.183 0.078,0.477 0.156,1.016 0.233,1.616 0.089,0.6 0.178,1.211 0.267,1.833 0.089,0.622 0.172,1.233 0.25,1.832 0.089,0.6 0.166,1.133 0.233,1.6 0.079,0.477 0.133,0.866 0.166,1.166 0.045,0.3 0.073,0.467 0.084,0.5 0.022,0.122 0.005,0.244 -0.05,0.367 C -2.538,7.364 -2.6,7.486 -2.666,7.597 -2.744,7.719 -2.833,7.847 -2.933,7.98 H 1.199 C 1.088,7.847 0.993,7.719 0.916,7.597 0.85,7.486 0.788,7.364 0.732,7.231 0.688,7.108 0.677,6.998 0.699,6.897 0.699,6.875 0.722,6.714 0.766,6.414 0.811,6.125 0.866,5.748 0.933,5.281 0.999,4.814 1.071,4.287 1.149,3.699 1.238,3.109 1.321,2.504 1.398,1.882 1.488,1.271 1.571,0.666 1.649,0.066 1.738,-0.533 1.815,-1.072 1.883,-1.55 1.96,-2.027 2.021,-2.427 2.065,-2.75 2.11,-3.061 2.138,-3.238 2.148,-3.282 2.171,-3.383 2.21,-3.488 2.266,-3.599 2.321,-3.71 2.377,-3.81 2.432,-3.899 2.499,-4.01 2.576,-4.116 2.665,-4.215 Z" />
      </g>
      <g
         transform="matrix(0.19504467,0,0,-0.18999042,40.09614,73.407798)"
         id="g360"
         style="fill:#000000;fill-opacity:0;stroke:#000000;stroke-width:0.483114;stroke-miterlimit:4;stroke-dasharray:none;stroke-opacity:0.7">
        <path
           id="path362"
           style="fill:#000000;fill-opacity:0;fill-rule:nonzero;stroke:#000000;stroke-width:0.483114;stroke-miterlimit:4;stroke-dasharray:none;stroke-opacity:0.7"
           d="m 0,0 c -0.1,-0.1 -0.188,-0.206 -0.267,-0.316 -0.066,-0.09 -0.128,-0.19 -0.183,-0.301 -0.056,-0.111 -0.083,-0.216 -0.083,-0.316 V -11.13 c 0,-0.144 0.027,-0.277 0.083,-0.4 0.055,-0.122 0.117,-0.233 0.183,-0.333 0.079,-0.122 0.167,-0.233 0.267,-0.333 h -2.832 c 0.122,0.1 0.222,0.217 0.3,0.35 0.066,0.111 0.116,0.244 0.149,0.4 0.045,0.167 0.034,0.344 -0.033,0.533 l -2.499,6.198 v -6.431 c 0,-0.156 0.027,-0.3 0.083,-0.434 0.056,-0.122 0.117,-0.227 0.184,-0.316 0.078,-0.111 0.167,-0.211 0.266,-0.3 h -2.732 c 0.099,0.089 0.188,0.194 0.266,0.317 0.067,0.1 0.128,0.211 0.184,0.333 0.055,0.133 0.083,0.272 0.083,0.416 l -0.017,10.197 c 0,0.078 -0.028,0.166 -0.083,0.266 -0.055,0.111 -0.117,0.217 -0.183,0.317 -0.078,0.122 -0.161,0.239 -0.25,0.35 h 2.999 C -4.227,-0.111 -4.32,-0.228 -4.398,-0.35 -4.465,-0.461 -4.521,-0.583 -4.565,-0.717 -4.609,-0.839 -4.615,-0.966 -4.582,-1.1 l 2.383,-5.931 v 6.098 c 0,0.1 -0.029,0.205 -0.084,0.316 -0.055,0.111 -0.116,0.211 -0.183,0.301 C -2.544,-0.206 -2.632,-0.1 -2.732,0 Z" />
      </g>
      <g
         transform="matrix(0.19504467,0,0,-0.18999042,41.054783,73.898444)"
         id="g364"
         style="fill:#000000;fill-opacity:0;stroke:#000000;stroke-width:0.483114;stroke-miterlimit:4;stroke-dasharray:none;stroke-opacity:0.7">
        <path
           id="path366"
           style="fill:#000000;fill-opacity:0;fill-rule:evenodd;stroke:#000000;stroke-width:0.483114;stroke-miterlimit:4;stroke-dasharray:none;stroke-opacity:0.7"
           d="m 0,0 c 0,0.245 -0.089,0.472 -0.267,0.683 -0.177,0.222 -0.388,0.333 -0.632,0.333 h -0.517 c -0.256,0 -0.473,-0.111 -0.65,-0.333 C -2.232,0.472 -2.316,0.245 -2.316,0 v -6.881 c 0,-0.244 0.084,-0.478 0.25,-0.7 0.177,-0.222 0.394,-0.333 0.65,-0.333 l 0.499,0.017 c 0.256,0 0.467,0.105 0.634,0.316 0.178,0.222 0.266,0.456 0.266,0.7 z m -0.899,2.749 c 0.366,0 0.705,-0.072 1.015,-0.217 C 0.438,2.399 0.716,2.21 0.949,1.966 1.194,1.722 1.383,1.438 1.516,1.116 1.66,0.805 1.732,0.466 1.732,0.1 V -6.981 C 1.732,-7.348 1.66,-7.692 1.516,-8.014 1.383,-8.325 1.194,-8.603 0.949,-8.847 0.705,-9.091 0.422,-9.286 0.1,-9.43 c -0.311,-0.133 -0.65,-0.2 -1.017,-0.2 l -0.499,-0.016 c -0.367,0 -0.711,0.071 -1.033,0.216 -0.312,0.144 -0.589,0.333 -0.833,0.566 -0.245,0.245 -0.439,0.528 -0.583,0.85 -0.134,0.322 -0.2,0.666 -0.2,1.033 V 0.1 c 0,0.366 0.066,0.705 0.2,1.016 0.144,0.322 0.338,0.606 0.583,0.85 0.244,0.244 0.521,0.433 0.833,0.566 0.322,0.145 0.666,0.217 1.033,0.217 z" />
      </g>
      <g
         transform="matrix(0.19504467,0,0,-0.18999042,42.832284,74.164318)"
         id="g368"
         style="fill:#000000;fill-opacity:0;stroke:#000000;stroke-width:0.483114;stroke-miterlimit:4;stroke-dasharray:none;stroke-opacity:0.7">
        <path
           id="path370"
           style="fill:#000000;fill-opacity:0;fill-rule:nonzero;stroke:#000000;stroke-width:0.483114;stroke-miterlimit:4;stroke-dasharray:none;stroke-opacity:0.7"
           d="m 0,0 h -2.749 c 0.1,0.088 0.188,0.188 0.267,0.299 0.066,0.09 0.128,0.189 0.183,0.301 0.055,0.11 0.083,0.222 0.083,0.333 V 1.1 c 0,0.433 -0.1,0.755 -0.3,0.966 -0.189,0.211 -0.427,0.316 -0.716,0.316 -0.3,0 -0.55,-0.105 -0.75,-0.316 C -4.171,1.855 -4.266,1.533 -4.266,1.1 c 0,-0.412 0.089,-0.772 0.267,-1.083 0.189,-0.312 0.417,-0.606 0.684,-0.884 0.277,-0.278 0.577,-0.555 0.899,-0.833 0.322,-0.266 0.616,-0.566 0.883,-0.9 0.278,-0.333 0.506,-0.71 0.683,-1.132 0.189,-0.423 0.284,-0.916 0.284,-1.483 0,-2.055 -0.912,-3.082 -2.733,-3.082 -0.467,0 -0.878,0.05 -1.233,0.15 -0.344,0.1 -0.633,0.266 -0.866,0.5 -0.234,0.244 -0.412,0.561 -0.534,0.949 -0.11,0.4 -0.167,0.894 -0.167,1.483 v 0.333 c 0,0.111 -0.027,0.222 -0.083,0.333 -0.055,0.111 -0.116,0.212 -0.182,0.3 -0.078,0.111 -0.166,0.211 -0.267,0.3 h 2.766 c -0.101,-0.1 -0.189,-0.206 -0.267,-0.317 -0.066,-0.088 -0.128,-0.188 -0.183,-0.299 -0.056,-0.111 -0.083,-0.217 -0.083,-0.317 v -0.45 c 0,-0.422 0.099,-0.738 0.299,-0.949 0.201,-0.211 0.45,-0.317 0.75,-0.317 0.289,0 0.538,0.106 0.749,0.317 0.212,0.211 0.318,0.527 0.318,0.949 0,0.411 -0.095,0.772 -0.283,1.083 -0.178,0.311 -0.407,0.605 -0.684,0.883 -0.277,0.278 -0.583,0.555 -0.916,0.833 -0.322,0.278 -0.622,0.583 -0.899,0.917 -0.279,0.333 -0.512,0.705 -0.701,1.116 -0.177,0.422 -0.266,0.916 -0.266,1.482 0,1.078 0.227,1.861 0.682,2.35 0.456,0.488 1.145,0.733 2.067,0.733 0.91,0 1.594,-0.245 2.049,-0.733 0.466,-0.489 0.7,-1.272 0.7,-2.35 0,-0.144 0.028,-0.277 0.083,-0.399 0.055,-0.111 0.117,-0.211 0.183,-0.3 C -0.188,0.172 -0.101,0.078 0,0" />
      </g>
    </g>
    <g
       style="stroke-width:1.03895587;stroke-miterlimit:4;stroke-dasharray:none;stroke:#000000;stroke-opacity:0.69999999"
       id="g372"
       transform="matrix(0.19504467,0,0,-0.18999042,33.452433,59.208884)">
      <path
         d="m 0,0 h -16.104 c 0.275,0.641 0.871,1.536 1.789,2.684 0.917,1.192 1.581,2.155 1.996,2.891 -1.376,2.843 -2.525,5.207 -3.442,7.089 -1.789,3.624 -3.74,6.88 -5.849,9.773 1.376,2.292 2.636,4.312 3.785,6.056 1.604,2.385 3.232,4.771 4.887,7.158 -1.194,2.615 -2.846,6.057 -4.956,10.324 -1.699,3.394 -3.19,6.308 -4.473,8.74 0.503,0.826 1.948,3.487 4.336,7.984 2.202,4.129 3.692,6.883 4.473,8.259 -0.185,0.458 -0.736,1.994 -1.652,4.611 -0.598,1.789 -1.583,4.474 -2.959,8.053 3.991,0.32 7.685,0.503 11.08,0.55 3.395,0.09 5.758,0.16 7.089,0.207 z"
         style="fill:#ed1c24;fill-opacity:1;fill-rule:nonzero;stroke:#000000;stroke-width:1.03895587;stroke-miterlimit:4;stroke-dasharray:none;stroke-opacity:0.69999999"
         id="path374" />
    </g>
    <g
       style="stroke-width:1.03895587;stroke-miterlimit:4;stroke-dasharray:none;stroke:#000000;stroke-opacity:0.69999999"
       id="g376"
       transform="matrix(0.19504467,0,0,-0.18999042,51.10491,51.951757)">
      <path
         d="m 0,0 c 0,-3.809 -0.299,-7.755 -0.896,-11.838 -0.873,-6.056 -2.225,-10.484 -4.06,-13.283 -2.891,-4.542 -6.654,-7.983 -11.287,-10.323 -5.323,-2.706 -11.976,-4.059 -19.959,-4.061 -4.728,0 -9.82,0.781 -15.279,2.34 -4.542,1.284 -7.687,2.957 -9.429,5.024 0.871,1.054 1.719,2.362 2.547,3.923 1.146,2.11 1.948,3.555 2.408,4.336 -1.011,1.146 -2.456,2.936 -4.336,5.368 -1.424,1.835 -2.845,3.694 -4.267,5.575 1.102,1.605 2.065,3.05 2.891,4.336 0.871,1.284 1.697,2.592 2.478,3.923 l -7.984,15.279 c 2.843,4.037 5.022,7.272 6.538,9.704 1.239,2.111 2.478,4.22 3.717,6.332 -0.23,0.871 -0.895,2.66 -1.996,5.368 -0.735,1.743 -1.47,3.509 -2.202,5.3 1.191,1.88 4.45,3.715 9.772,5.506 5.322,1.835 10.139,2.751 14.453,2.753 8.122,0 15.83,-2.364 23.125,-7.089 6.883,-4.452 11.172,-9.498 12.87,-15.141 -0.274,0 -1.835,-0.276 -4.679,-0.826 -1.975,-0.368 -5.3,-1.08 -9.98,-2.134 -4.68,-1.056 -8.328,-1.974 -10.943,-2.753 -1.011,1.192 -2.02,2.407 -3.028,3.648 -1.376,1.101 -3.603,1.652 -6.676,1.652 -4.728,0 -8.444,-2.25 -11.15,-6.745 -2.339,-3.902 -3.51,-8.627 -3.51,-14.178 0,-6.882 1.79,-12.092 5.369,-15.623 2.98,-2.983 6.765,-4.474 11.355,-4.474 1.835,0 3.463,0.642 4.887,1.927 1.973,1.79 2.957,4.382 2.96,7.778 -0.736,0.32 -1.308,0.526 -1.721,0.619 -0.413,0.09 -0.849,0.135 -1.307,0.138 -0.186,0 -0.506,-0.024 -0.964,-0.069 -0.46,-0.047 -0.895,-0.069 -1.308,-0.069 -0.506,0 -1.032,0.022 -1.583,0.069 -0.551,0.045 -1.239,0.159 -2.064,0.344 -1.057,2.661 -2.272,5.895 -3.648,9.704 -0.919,2.523 -1.79,5.046 -2.616,7.571 0.551,0 2.409,0.045 5.575,0.137 3.166,0.091 9.13,0.228 17.895,0.414 8.809,0.183 14.705,0.272 17.687,0.275 -0.322,-0.461 -0.481,-1.032 -0.481,-1.721 0,-0.323 0.138,-1.445 0.413,-3.372 C -0.138,3.717 0,1.835 0,0"
         style="fill:#ed1c24;fill-opacity:1;fill-rule:nonzero;stroke:#000000;stroke-width:1.03895587;stroke-miterlimit:4;stroke-dasharray:none;stroke-opacity:0.69999999"
         id="path378" />
    </g>
    <g
       style="stroke-width:1.03895587;stroke-miterlimit:4;stroke-dasharray:none;stroke:#000000;stroke-opacity:0.69999999"
       id="g380"
       transform="matrix(0.19504467,0,0,-0.18999042,27.443376,38.899288)">
      <path
         d="M 0,0 C 0,8.008 6.491,14.5 14.5,14.5 22.508,14.5 29,8.008 29,0 29,-8.008 22.508,-14.5 14.5,-14.5 6.491,-14.5 0,-8.008 0,0"
         style="fill:#ed1c24;fill-opacity:1;fill-rule:nonzero;stroke:#000000;stroke-width:1.03895587;stroke-miterlimit:4;stroke-dasharray:none;stroke-opacity:0.69999999"
         id="path382" />
    </g>
    <g
       style="stroke-width:1.03895587;stroke-miterlimit:4;stroke-dasharray:none;stroke:#000000;stroke-opacity:0.69999999"
       id="g384"
       transform="matrix(0.19504467,0,0,-0.18999042,25.693492,54.998392)">
      <path
         d="m 0,0 c 0,-6.607 -1.789,-11.77 -5.368,-15.486 -2.846,-2.983 -6.975,-5.071 -12.389,-6.263 -3.717,-0.826 -8.189,-1.239 -13.421,-1.239 h -24.638 c 0.227,0.413 0.754,1.284 1.583,2.615 0.688,1.102 1.053,1.767 1.1,1.997 -3.028,3.21 -5.506,5.871 -7.432,7.983 -3.855,4.22 -5.782,6.468 -5.782,6.745 0,0.413 1.927,2.936 5.782,7.571 3.854,4.632 5.781,7.684 5.781,9.153 0,1.239 -1.562,3.786 -4.68,7.64 -2.295,2.753 -4.59,5.527 -6.883,8.327 2.293,3.349 4.197,6.24 5.713,8.672 1.559,2.478 2.936,4.887 4.129,7.227 -0.963,1.652 -2.295,3.579 -3.991,5.781 -2.57,3.349 -4.178,6.285 -4.818,8.81 l 36.751,2.065 c 6.653,0 12.318,-2.089 17,-6.264 4.68,-4.128 7.021,-9.452 7.021,-15.967 0,-6.056 -1.583,-10.577 -4.749,-13.558 l -8.604,-6.814 c 5.597,-0.643 9.978,-2.639 13.146,-5.987 C -1.583,9.657 0,5.321 0,0 m -34.48,33.999 c 0,2.11 -0.599,3.669 -1.791,4.68 -1.193,1.054 -3.006,1.581 -5.437,1.583 -0.873,0 -1.744,-0.137 -2.615,-0.413 l -2.753,-0.757 c 0,-1.469 0.046,-3.717 0.138,-6.745 l 0.137,-4.749 c 4.908,0 8.005,0.252 9.292,0.757 2.017,0.779 3.026,2.661 3.029,5.644 M -30.076,0.55 c 0,2.661 -0.551,4.564 -1.652,5.713 -1.239,1.329 -3.396,1.993 -6.469,1.996 -1.79,0 -3.397,-0.161 -4.819,-0.482 -1.148,-0.322 -2.294,-0.62 -3.44,-0.895 V -6.882 c 0.687,0 1.376,-0.024 2.064,-0.07 h 2.203 c 3.668,0 6.398,0.39 8.19,1.17 2.615,1.147 3.923,3.257 3.923,6.332"
         style="fill:#ed1c24;fill-opacity:1;fill-rule:evenodd;stroke:#000000;stroke-width:1.03895587;stroke-miterlimit:4;stroke-dasharray:none;stroke-opacity:0.69999999"
         id="path386" />
    </g>
    <g
       style="stroke-width:1.03895587;stroke-miterlimit:4;stroke-dasharray:none;stroke:#000000;stroke-opacity:0.69999999"
       id="g388"
       transform="matrix(0.19504467,0,0,-0.18999042,28.821248,57.155997)">
      <path
         d="M 0,0 C 0,1.514 -0.757,2.271 -2.271,2.271 -3.74,2.271 -4.474,1.514 -4.474,0 c 0,-1.376 0.734,-2.064 2.203,-2.064 C -0.757,-2.064 0,-1.376 0,0 m 2.134,28.287 c 0,1.514 -0.712,2.271 -2.134,2.271 -1.514,0 -2.271,-0.757 -2.271,-2.271 0,-1.514 0.757,-2.271 2.271,-2.271 1.422,0 2.132,0.757 2.134,2.271 M 0.619,61.736 c 0,1.514 -0.735,2.271 -2.202,2.271 -1.424,0 -2.134,-0.757 -2.134,-2.271 0,-1.239 0.71,-1.859 2.134,-1.859 0.826,0 1.398,0.115 1.721,0.344 0.32,0.276 0.479,0.779 0.481,1.515 M 7.364,-4.611 c -0.275,-0.323 -1.4,-1.562 -3.372,-3.717 -1.101,-1.193 -1.974,-2.385 -2.615,-3.579 -1.837,-0.595 -3.81,-1.191 -5.919,-1.789 l -3.923,-1.032 0.344,86.512 h 1.101 0.963 c 2.203,0 4.427,0.159 6.676,0.482 1.009,-1.927 2.27,-4.199 3.786,-6.814 C 5.459,63.615 6.216,62.125 6.676,60.979 3.738,55.38 0.826,49.806 -2.064,44.254 -1.331,42.327 0.021,39.275 1.996,35.101 2.867,33.264 4.427,30.098 6.676,25.603 5.3,23.353 3.944,21.129 2.615,18.927 0.826,16.036 -0.574,13.834 -1.583,12.32 -0.805,11.218 0.71,8.535 2.959,4.267 5.207,0.045 6.674,-2.914 7.364,-4.611"
         style="fill:#00a650;fill-opacity:1;fill-rule:evenodd;stroke:#000000;stroke-width:1.03895587;stroke-miterlimit:4;stroke-dasharray:none;stroke-opacity:0.69999999"
         id="path390" />
    </g>
    <g
       id="g392"
       transform="matrix(0.19504467,0,0,-0.18999042,54.94772,68.304672)">
      <path
         d="m 0,0 c 0,0 -4.108,1.878 -6.963,0.822 -2.854,-1.056 -4.225,-3.404 -5.202,-5.672 -0.978,-2.268 -1.643,-7.901 -3.324,-13.025 -1.682,-5.122 -6.024,-9.151 -12.438,-13.648 -6.414,-4.499 -12.438,-5.32 -15.41,-9.349 -2.972,-4.028 -2.972,-7.118 -3.207,-8.644 -0.234,-1.525 1.095,-4.263 1.095,-4.263 0,0 2.347,5.32 6.259,8.527 3.911,3.207 16.057,4.21 23.348,7.587 7.433,3.442 19.556,9.935 20.378,22.02 C 5.357,-3.559 0,0 0,0"
         style="fill:#ed1c24;fill-opacity:1;fill-rule:nonzero;stroke:none"
         id="path394" />
    </g>
    <g
       id="g396"
       transform="matrix(0.19504467,0,0,-0.18999042,-56.251365,184.22173)">
      <g
         id="g398"
         clip-path="url(#clipPath402)">
        <g
           id="g404"
           transform="translate(527.1367,566.394)">
          <path
             d="m 0,0 c 3.559,5.202 13.259,7.001 24.405,14.706 6.728,4.65 12.679,9.676 16.467,18.931 3.441,8.409 1.564,9.62 -1.643,10.324 -3.208,0.705 -3.325,1.057 -3.325,1.057 L 29.607,42.67 -6.142,0.587 -6.024,-10.17 -2.62,-9.583 c 0,0 -0.94,4.381 2.62,9.583"
             style="fill:#f35e19;fill-opacity:1;fill-rule:nonzero;stroke:none"
             id="path406" />
        </g>
      </g>
    </g>
    <g
       id="g416"
       transform="matrix(0.19504467,0,0,-0.18999042,54.94772,68.304672)">
      <path
         d="m 0,0 c 0,0 -4.108,1.878 -6.963,0.822 -2.854,-1.056 -4.225,-3.404 -5.202,-5.672 -0.978,-2.268 -1.643,-7.901 -3.324,-13.025 -1.682,-5.122 -6.024,-9.151 -12.438,-13.648 -6.414,-4.499 -12.438,-5.32 -15.41,-9.349 -2.972,-4.028 -2.972,-7.118 -3.207,-8.644 -0.234,-1.525 1.095,-4.263 1.095,-4.263 0,0 2.347,5.32 6.259,8.527 3.911,3.207 16.057,4.21 23.348,7.587 7.433,3.442 19.556,9.935 20.378,22.02 C 5.357,-3.559 0,0 0,0 Z"
         style="fill:none;stroke:#231f20;stroke-width:0.518;stroke-linecap:butt;stroke-linejoin:miter;stroke-miterlimit:3.864;stroke-dasharray:none;stroke-opacity:1"
         id="path418" />
    </g>
    <g
       id="g420"
       transform="matrix(0.19504467,0,0,-0.18999042,54.077821,68.661455)">
      <path
         d="m 0,0 c 0.352,-1.916 -0.603,-0.752 -2.737,-2.737 -1.682,-1.564 -1.329,-4.381 -2.503,-8.879 -0.989,-3.79 -4.264,-6.766 -4.264,-6.766 0,0 2.737,3.794 4.147,11.968 0.553,3.218 0.976,5.437 3.088,6.259 C -0.155,0.666 0,0 0,0"
         style="fill:#fdda7f;fill-opacity:1;fill-rule:evenodd;stroke:none"
         id="path422" />
    </g>
    <g
       id="g424"
       transform="matrix(0.19504467,0,0,-0.18999042,53.658398,68.081662)">
      <path
         d="M 0,0 C 0,0 2.385,0.821 3.559,0.821 4.732,0.821 5.906,0 5.906,0 c 0,0 3.324,2.541 3.794,5.709 0.469,3.169 -1.056,4.733 -1.643,5.555 -0.587,0.822 -2.268,2.62 -2.268,2.62 0,0 -0.314,1.056 1.094,1.878 1.408,0.821 2.699,-0.117 2.699,-0.117 0,0 3.442,-2.621 3.09,-7.94 -0.352,-5.32 -4.028,-8.644 -4.028,-8.644 0,0 1.995,-2.854 1.173,-4.967 -0.235,0.704 -1.526,1.76 -1.526,1.76 L 7.353,-5.437 6.61,-3.324 4.85,-4.381 l 0.704,2.504 -2.23,-0.705 0.352,1.526 z"
         style="fill:#00a650;fill-opacity:1;fill-rule:nonzero;stroke:none"
         id="path426" />
    </g>
    <g
       id="g428"
       transform="matrix(0.19504467,0,0,-0.18999042,53.658398,68.081662)">
      <path
         d="M 0,0 C 0,0 2.385,0.821 3.559,0.821 4.732,0.821 5.906,0 5.906,0 c 0,0 3.324,2.541 3.794,5.709 0.469,3.169 -1.056,4.733 -1.643,5.555 -0.587,0.822 -2.268,2.62 -2.268,2.62 0,0 -0.314,1.056 1.094,1.878 1.408,0.821 2.699,-0.117 2.699,-0.117 0,0 3.442,-2.621 3.09,-7.94 -0.352,-5.32 -4.028,-8.644 -4.028,-8.644 0,0 1.995,-2.854 1.173,-4.967 -0.235,0.704 -1.526,1.76 -1.526,1.76 L 7.353,-5.437 6.61,-3.324 4.85,-4.381 l 0.704,2.504 -2.23,-0.705 0.352,1.526 z"
         style="fill:none;stroke:#231f20;stroke-width:0.518;stroke-linecap:butt;stroke-linejoin:miter;stroke-miterlimit:3.864;stroke-dasharray:none;stroke-opacity:1"
         id="path430" />
    </g>
    <g
       id="g432"
       transform="matrix(0.19504467,0,0,-0.18999042,54.920668,65.388303)">
      <path
         d="M 0,0 C 0.167,-0.271 0.639,-0.304 1.605,-0.146 2.373,-0.021 3.071,0.712 2.603,1.064 2.133,1.416 1.353,1.567 0.766,0.981 0.179,0.394 -0.167,0.292 0,0"
         style="fill:#99d420;fill-opacity:1;fill-rule:nonzero;stroke:none"
         id="path434" />
    </g>
    <g
       style="stroke-width:1.03895587;stroke-miterlimit:4;stroke-dasharray:none;stroke:#000000;stroke-opacity:0.69999999"
       id="g436"
       transform="matrix(0.19504467,0,0,-0.18999042,12.726064,57.979798)">
      <path
         d="m 0,0 c 0,1.422 -0.712,2.131 -2.134,2.134 -1.513,0 -2.27,-0.712 -2.27,-2.134 0,-1.514 0.757,-2.271 2.27,-2.271 1.422,0 2.132,0.757 2.134,2.271 m 8.672,-2.409 c 0,-0.78 -0.299,-1.561 -0.895,-2.34 C 7.64,-4.886 6.951,-5.622 5.713,-6.951 4.749,-7.088 3.738,-7.179 2.685,-7.227 1.628,-7.271 0.481,-7.293 -0.757,-7.295 c -1.561,0 -3.626,0.047 -6.194,0.137 -2.526,0.048 -3.923,0.07 -4.198,0.07 l -0.276,81.487 c 1.284,0 2.613,0.091 3.992,0.276 1.421,0.228 2.499,0.342 3.235,0.344 1.191,-1.469 3.142,-4.36 5.849,-8.672 1.33,-2.065 2.889,-4.315 4.681,-6.744 -1.652,-2.158 -3.098,-4.13 -4.336,-5.92 -1.377,-2.064 -3.235,-5.002 -5.575,-8.809 2.615,-2.846 4.702,-5.186 6.264,-7.02 3.028,-3.489 4.542,-6.586 4.542,-9.291 0,-2.203 -1.814,-5.141 -5.438,-8.81 -3.579,-3.627 -5.368,-6.057 -5.368,-7.296 0,-1.193 2.041,-3.785 6.125,-7.777 C 6.629,0.688 8.67,-1.675 8.672,-2.409 M -1.376,60.772 c 0,1.604 -0.736,2.407 -2.203,2.409 -1.424,0 -2.134,-0.805 -2.134,-2.409 0,-1.424 0.71,-2.133 2.134,-2.133 1.467,0 2.2,0.709 2.203,2.133 M 0,29.939 c 0,1.559 -0.712,2.338 -2.134,2.34 -1.469,0 -2.202,-0.781 -2.202,-2.34 0,-1.514 0.733,-2.272 2.202,-2.272 1.422,0 2.132,0.758 2.134,2.272"
         style="fill:#00a650;fill-opacity:1;fill-rule:evenodd;stroke:#000000;stroke-width:1.03895587;stroke-miterlimit:4;stroke-dasharray:none;stroke-opacity:0.69999999"
         id="path438" />
    </g>
    <g
       style="stroke-width:1.03895587;stroke-miterlimit:4;stroke-dasharray:none;stroke:#000000;stroke-opacity:0.69999999"
       id="g440"
       transform="matrix(0.19504467,0,0,-0.18999042,38.728154,56.384537)">
      <path
         d="m 0,0 c 0,1.514 -0.713,2.271 -2.134,2.271 -1.424,0 -2.134,-0.757 -2.134,-2.271 0,-1.193 0.71,-1.789 2.134,-1.789 1.421,0 2.131,0.596 2.134,1.789 m 4.955,-1.789 -4.818,-5.85 c -1.376,0 -3.372,1.81 -5.988,5.437 -2.799,3.899 -5.116,8.235 -6.951,13.008 -2.202,5.734 -3.303,11.009 -3.303,15.829 0,4.956 1.259,10.621 3.785,17 2.843,7.157 6.285,12.272 10.324,15.348 0.778,-0.919 1.742,-2.478 2.891,-4.68 1.146,-2.157 1.903,-3.786 2.27,-4.887 -0.825,-1.101 -2.226,-3.303 -4.198,-6.607 -0.825,-1.331 -2.456,-4.108 -4.886,-8.328 0.595,-1.789 1.718,-4.314 3.372,-7.57 1.697,-3.259 3.118,-5.76 4.267,-7.502 -2.158,-3.441 -4.29,-6.883 -6.401,-10.324 0.689,-0.873 1.79,-2.157 3.304,-3.854 z m -7.089,47.97 c 0,1.697 -0.757,2.545 -2.271,2.547 -1.331,0 -1.996,-0.85 -1.996,-2.547 0,-1.376 0.665,-2.064 1.996,-2.064 1.514,0 2.271,0.688 2.271,2.064 m -5.23,-23.606 c 0,1.422 -0.805,2.131 -2.409,2.133 -1.377,0 -2.065,-0.711 -2.065,-2.133 0,-1.562 0.688,-2.34 2.065,-2.34 1.604,0 2.406,0.778 2.409,2.34"
         style="fill:#00a650;fill-opacity:1;fill-rule:evenodd;stroke:#000000;stroke-width:1.03895587;stroke-miterlimit:4;stroke-dasharray:none;stroke-opacity:0.69999999"
         id="path442" />
    </g>
    <g
       style="stroke-width:1.03895587;stroke-miterlimit:4;stroke-dasharray:none;stroke:#000000;stroke-opacity:0.69999999"
       id="g448"
       transform="matrix(0.19504467,0,0,-0.18999042,14.613472,36.945957)">
      <path
         d="m 0,0 10.45,-9.727 v -1.663 c -1.762,-1.152 -5.162,-2.218 -7.515,-3.927 -0.136,0.696 0.414,0.866 0.831,1.232 C 2.75,-11.095 2.141,-5.181 0,-2.711 Z"
         style="fill:#ed1c24;fill-opacity:1;fill-rule:nonzero;stroke:#000000;stroke-width:1.03895587;stroke-miterlimit:4;stroke-dasharray:none;stroke-opacity:0.69999999"
         id="path450" />
    </g>
    <g
       style="stroke-width:1.03895587;stroke-miterlimit:4;stroke-dasharray:none;stroke:#000000;stroke-opacity:0.69999999"
       id="g452"
       transform="matrix(0.19504467,0,0,-0.18999042,22.291838,38.046744)">
      <path
         d="m 0,0 c 2.701,-1.919 5.113,-4.81 7.38,-6.909 0.566,-2.709 1.404,-5.699 1.781,-8.632 v -2.645 C 5.696,-12.294 2.816,-6.054 0,0"
         style="fill:#11110e;fill-opacity:1;fill-rule:nonzero;stroke:#000000;stroke-width:1.03895587;stroke-miterlimit:4;stroke-dasharray:none;stroke-opacity:0.69999999"
         id="path454" />
    </g>
    <g
       style="stroke-width:1.03895587;stroke-miterlimit:4;stroke-dasharray:none;stroke:#000000;stroke-opacity:0.69999999"
       id="g456"
       transform="matrix(0.19504467,0,0,-0.18999042,10.684766,38.768403)">
      <path
         d="M 0,0 C 2.736,-3.449 5.613,-7.284 8.516,-11.421 H 6.728 C 5.445,-8.913 2.535,-7.272 0,-5.626 Z"
         style="fill:#99d420;fill-opacity:1;fill-rule:nonzero;stroke:#000000;stroke-width:1.03895587;stroke-miterlimit:4;stroke-dasharray:none;stroke-opacity:0.69999999"
         id="path458" />
    </g>
    <g
       style="stroke-width:1.03895587;stroke-miterlimit:4;stroke-dasharray:none;stroke:#000000;stroke-opacity:0.69999999"
       id="g460"
       transform="matrix(0.19504467,0,0,-0.18999042,50.993499,38.772755)">
      <path
         d="m 0,0 c -0.852,-4.104 -1.326,-7.435 -1.852,-11.388 -4.415,-1.996 -8.735,-3.916 -13.347,-5.758 C -10.382,-11.564 -5.744,-4.886 0,0"
         style="fill:#00a650;fill-opacity:1;fill-rule:nonzero;stroke:#000000;stroke-width:1.03895587;stroke-miterlimit:4;stroke-dasharray:none;stroke-opacity:0.69999999"
         id="path462" />
    </g>
    <g
       style="stroke-width:1.03895587;stroke-miterlimit:4;stroke-dasharray:none;stroke:#000000;stroke-opacity:0.69999999"
       id="g464"
       transform="matrix(0.19504467,0,0,-0.18999042,39.107968,39.132138)">
      <path
         d="m 0,0 v -1.614 c 0.094,-1.98 -3.889,-6.72 -5.585,-7.958 v 1.76 C -3.61,-5.878 -1.442,-2.349 0,0"
         style="fill:#11110e;fill-opacity:1;fill-rule:evenodd;stroke:#000000;stroke-width:1.03895587;stroke-miterlimit:4;stroke-dasharray:none;stroke-opacity:0.69999999"
         id="path466" />
    </g>
    <g
       style="stroke-width:1.03895587;stroke-miterlimit:4;stroke-dasharray:none;stroke:#000000;stroke-opacity:0.69999999"
       id="g468"
       transform="matrix(0.19504467,0,0,-0.18999042,43.259142,39.688111)">
      <path
         d="M 0,0 H 1.734 C 2.05,-0.414 2.744,-2.357 4.697,-1.985 2.74,-4.197 1.3,-6.597 -0.956,-8.569 v 7.542 C -1.03,0.172 -0.069,-0.667 0,0"
         style="fill:#11110e;fill-opacity:1;fill-rule:nonzero;stroke:#000000;stroke-width:1.03895587;stroke-miterlimit:4;stroke-dasharray:none;stroke-opacity:0.69999999"
         id="path470" />
    </g>
    <g
       style="stroke-width:1.03895587;stroke-miterlimit:4;stroke-dasharray:none;stroke:#000000;stroke-opacity:0.69999999"
       id="g472"
       transform="matrix(0.19504467,0,0,-0.18999042,17.607137,41.510917)">
      <path
         d="M 0,0 H 1.713 C 2.739,-0.983 3.699,-2.423 4.701,-3.666 2.043,-3.308 0.649,-2.833 -1.012,-2.685 -0.479,-1.943 -0.07,-1.153 0,0"
         style="fill:#11110e;fill-opacity:1;fill-rule:nonzero;stroke:#000000;stroke-width:1.03895587;stroke-miterlimit:4;stroke-dasharray:none;stroke-opacity:0.69999999"
         id="path474" />
    </g>
    <g
       style="stroke-width:1.03895587;stroke-miterlimit:4;stroke-dasharray:none;stroke:#000000;stroke-opacity:0.69999999"
       id="g476"
       transform="matrix(0.19504467,0,0,-0.18999042,6.3732056,43.885887)">
      <path
         d="M 0,0 C 3.666,-2.377 7.511,-5.261 11.435,-8.472 H 5.8 C 4.272,-5.56 1.888,-3.186 0,0"
         style="fill:#11110e;fill-opacity:1;fill-rule:nonzero;stroke:#000000;stroke-width:1.03895587;stroke-miterlimit:4;stroke-dasharray:none;stroke-opacity:0.69999999"
         id="path478" />
    </g>
    <g
       style="stroke-width:1.03895587;stroke-miterlimit:4;stroke-dasharray:none;stroke:#000000;stroke-opacity:0.69999999"
       id="g480"
       transform="matrix(0.19504467,0,0,-0.18999042,54.794002,44.619329)">
      <path
         d="M 0,0 H 1.737 C -1.2,-3.202 -4.094,-6.574 -7.778,-9.444 -5.575,-6.42 -4.563,-2.953 0,0"
         style="fill:#11110e;fill-opacity:1;fill-rule:nonzero;stroke:#000000;stroke-width:1.03895587;stroke-miterlimit:4;stroke-dasharray:none;stroke-opacity:0.69999999"
         id="path482" />
    </g>
    <g
       style="stroke-width:1.03895587;stroke-miterlimit:4;stroke-dasharray:none;stroke:#000000;stroke-opacity:0.69999999"
       id="g484"
       transform="matrix(0.19504467,0,0,-0.18999042,6.1854025,47.534217)">
      <path
         d="M 0,0 C 3.724,-2.25 8.528,-3.123 13.325,-4.831 V -6.548 C 11.317,-7.584 9.397,-8.544 7.425,-9.499 H 4.816 C 3.779,-5.996 1.891,-3.183 0,0"
         style="fill:#fdda7f;fill-opacity:1;fill-rule:nonzero;stroke:#000000;stroke-width:1.03895587;stroke-miterlimit:4;stroke-dasharray:none;stroke-opacity:0.69999999"
         id="path486" />
    </g>
    <g
       style="stroke-width:1.03895587;stroke-miterlimit:4;stroke-dasharray:none;stroke:#000000;stroke-opacity:0.69999999"
       id="g488"
       transform="matrix(0.19504467,0,0,-0.18999042,53.345074,49.174631)">
      <path
         d="M 0,0 H 1.406 C 3.042,-4.047 9.805,-5.745 13.006,-8.413 10.379,-8.575 7.53,-8.573 -0.012,-9.441 0.558,-7.763 0.54,-5.96 0,0"
         style="fill:#f35e19;fill-opacity:1;fill-rule:nonzero;stroke:#000000;stroke-width:1.03895587;stroke-miterlimit:4;stroke-dasharray:none;stroke-opacity:0.69999999"
         id="path490" />
    </g>
    <g
       style="stroke-width:1.03895587;stroke-miterlimit:4;stroke-dasharray:none;stroke:#000000;stroke-opacity:0.69999999"
       id="g492"
       transform="matrix(0.19504467,0,0,-0.18999042,9.7150654,51.910951)">
      <path
         d="M 0,0 C -5.247,-8.285 -11.389,-17.794 -18.063,-24.85 -13.94,-16.383 -8.706,-5.978 0,0"
         style="fill:#11110e;fill-opacity:1;fill-rule:evenodd;stroke:#000000;stroke-width:1.03895587;stroke-miterlimit:4;stroke-dasharray:none;stroke-opacity:0.69999999"
         id="path494" />
    </g>
    <g
       style="stroke-width:1.03895587;stroke-miterlimit:4;stroke-dasharray:none;stroke:#000000;stroke-opacity:0.69999999"
       id="g496"
       transform="matrix(0.19504467,0,0,-0.18999042,51.579958,57.205625)">
      <path
         d="M 0,0 H 4.654 C 6.655,-2.395 8.576,-4.794 10.491,-7.5 6.829,-5.633 3.449,-2.74 0,0"
         style="fill:#11110e;fill-opacity:1;fill-rule:nonzero;stroke:#000000;stroke-width:1.03895587;stroke-miterlimit:4;stroke-dasharray:none;stroke-opacity:0.69999999"
         id="path498" />
    </g>
    <g
       style="stroke-width:1.03895587;stroke-miterlimit:4;stroke-dasharray:none;stroke:#000000;stroke-opacity:0.69999999"
       id="g500"
       transform="matrix(0.19504467,0,0,-0.18999042,22.286492,38.051758)">
      <path
         d="M 0,0 C 2.729,-1.893 5.148,-4.791 7.558,-7.521 4.828,-5.628 2.408,-2.73 0,0"
         style="fill:#47ad4f;fill-opacity:1;fill-rule:evenodd;stroke:#000000;stroke-width:1.03895587;stroke-miterlimit:4;stroke-dasharray:none;stroke-opacity:0.69999999"
         id="path502" />
    </g>
    <g
       style="stroke-width:1.03895587;stroke-miterlimit:4;stroke-dasharray:none;stroke:#000000;stroke-opacity:0.69999999"
       id="g504"
       transform="matrix(0.19504467,0,0,-0.18999042,43.216659,39.864003)">
      <path
         d="M 0,0 C 0.148,-1.182 0.078,-2.312 -0.664,-2.843 -0.813,-1.662 -0.742,-0.532 0,0"
         style="fill:#00a650;fill-opacity:1;fill-rule:evenodd;stroke:#000000;stroke-width:1.03895587;stroke-miterlimit:4;stroke-dasharray:none;stroke-opacity:0.69999999"
         id="path506" />
    </g>
    <g
       style="stroke-width:1.03895587;stroke-miterlimit:4;stroke-dasharray:none;stroke:#000000;stroke-opacity:0.69999999"
       id="g508"
       transform="matrix(0.19504467,0,0,-0.18999042,9.714695,51.910762)">
      <path
         d="M 0,0 C -2.626,-3.274 -6.725,-7.433 -10.413,-10.425 -7.547,-6.738 -3.694,-3.364 0,0"
         style="fill:#47ad4f;fill-opacity:1;fill-rule:evenodd;stroke:#000000;stroke-width:1.03895587;stroke-miterlimit:4;stroke-dasharray:none;stroke-opacity:0.69999999"
         id="path510" />
    </g>
    <g
       style="stroke-width:1.03895587;stroke-miterlimit:4;stroke-dasharray:none;stroke:#000000;stroke-opacity:0.69999999"
       id="g512"
       transform="matrix(0.19504467,0,0,-0.18999042,22.286492,38.051758)">
      <path
         d="M 0,0 C 2.729,-1.893 5.148,-4.791 7.558,-7.521 4.828,-5.628 2.408,-2.73 0,0"
         style="fill:#dbe3d6;fill-opacity:1;fill-rule:evenodd;stroke:#000000;stroke-width:1.03895587;stroke-miterlimit:4;stroke-dasharray:none;stroke-opacity:0.69999999"
         id="path514" />
    </g>
    <g
       style="stroke-width:1.03895587;stroke-miterlimit:4;stroke-dasharray:none;stroke:#000000;stroke-opacity:0.69999999"
       id="g516"
       transform="matrix(0.19504467,0,0,-0.18999042,9.5295346,52.095185)">
      <path
         d="M 0,0 C -2.886,-3.213 -5.779,-6.585 -9.472,-9.446 -6.585,-6.233 -3.691,-2.861 0,0"
         style="fill:#4e5254;fill-opacity:1;fill-rule:evenodd;stroke:#000000;stroke-width:1.03895587;stroke-miterlimit:4;stroke-dasharray:none;stroke-opacity:0.69999999"
         id="path518" />
    </g>
  </g>
</svg>
