<?xml version="1.0" encoding="UTF-8" standalone="no"?>
<svg
   xmlns:dc="http://purl.org/dc/elements/1.1/"
   xmlns:cc="http://creativecommons.org/ns#"
   xmlns:rdf="http://www.w3.org/1999/02/22-rdf-syntax-ns#"
   xmlns:svg="http://www.w3.org/2000/svg"
   xmlns="http://www.w3.org/2000/svg"
   xmlns:sodipodi="http://sodipodi.sourceforge.net/DTD/sodipodi-0.dtd"
   xmlns:inkscape="http://www.inkscape.org/namespaces/inkscape"
   sodipodi:docname="whatsapp_logo.svg"
   inkscape:version="1.0 (4035a4fb49, 2020-05-01)"
   id="svg166"
   version="1.1"
   viewBox="0 0 14.168136 14.23178"
   height="14.23178mm"
   width="14.168136mm">
  <defs
     id="defs160" />
  <sodipodi:namedview
     inkscape:window-maximized="0"
     inkscape:window-y="0"
     inkscape:window-x="160"
     inkscape:window-height="1030"
     inkscape:window-width="1541"
     showgrid="false"
     inkscape:document-rotation="0"
     inkscape:current-layer="layer1"
     inkscape:document-units="mm"
     inkscape:cy="9.7518488"
     inkscape:cx="129.63159"
     inkscape:zoom="0.35"
     inkscape:pageshadow="2"
     inkscape:pageopacity="0.0"
     borderopacity="1.0"
     bordercolor="#666666"
     pagecolor="#ffffff"
     id="base" />
  <metadata
     id="metadata163">
    <rdf:RDF>
      <cc:Work
         rdf:about="">
        <dc:format>image/svg+xml</dc:format>
        <dc:type
           rdf:resource="http://purl.org/dc/dcmitype/StillImage" />
        <dc:title></dc:title>
      </cc:Work>
    </rdf:RDF>
  </metadata>
  <g
     transform="translate(-71.534974,-145.58649)"
     id="layer1"
     inkscape:groupmode="layer"
     inkscape:label="Layer 1">
    <path
       style="stroke-width:0.0116176"
       id="path2"
       d="m 83.638894,147.65466 c -1.331992,-1.33291 -3.103139,-2.06736 -4.990147,-2.06817 -3.888528,0 -7.052998,3.16345 -7.054559,7.05179 0,1.24293 0.3243,2.4562 0.941599,3.52568 l -1.000813,3.65431 3.739674,-0.9806 c 1.030367,0.56192 2.190486,0.85802 3.371056,0.8585 h 0.0029 5.3e-5 c 3.887867,0 7.052813,-3.16402 7.054453,-7.05217 0,-1.88447 -0.732499,-3.65635 -2.064305,-4.98934 z m -4.990147,10.85043 h -0.0026 c -1.052297,-5.3e-4 -2.084225,-0.28307 -2.984311,-0.81717 l -0.214206,-0.12698 -2.219219,0.58184 0.592508,-2.16292 -0.139568,-0.22174 c -0.586978,-0.93332 -0.896832,-2.01189 -0.896409,-3.11939 0.0026,-3.23186 2.631493,-5.86112 5.865734,-5.86112 1.566174,5.3e-4 3.03821,0.61113 4.145306,1.719 1.107043,1.10786 1.716272,2.5806 1.715796,4.14689 -0.0026,3.23196 -2.631652,5.86159 -5.863325,5.86159 z"
       fill="#e0e0e0" />
    <path
       style="stroke-width:0.0116176"
       id="path13"
       d="m 76.905487,149.64445 c -0.130519,-0.29017 -0.267944,-0.29598 -0.392086,-0.30106 -0.101574,-0.004 -0.217832,-0.004 -0.333931,-0.004 -0.116178,0 -0.304959,0.0437 -0.464608,0.21802 -0.159729,0.17435 -0.609944,0.59585 -0.609944,1.45311 0,0.85734 0.624469,1.68574 0.711517,1.80209 0.08713,0.11617 1.205416,1.93162 2.976457,2.63003 1.471904,0.58043 1.771438,0.46498 2.090923,0.43593 0.319484,-0.029 1.030869,-0.42141 1.176099,-0.8283 0.145203,-0.40681 0.145203,-0.75551 0.101653,-0.8284 -0.04358,-0.0726 -0.159756,-0.11617 -0.33401,-0.2033 -0.174255,-0.0871 -1.030896,-0.50873 -1.190625,-0.56682 -0.159755,-0.0581 -0.275934,-0.0871 -0.392112,0.0873 -0.116179,0.17427 -0.449898,0.56663 -0.551551,0.6828 -0.101679,0.11645 -0.203306,0.13097 -0.377587,0.0438 -0.174254,-0.0874 -0.735462,-0.2712 -1.40118,-0.8648 -0.518001,-0.4618 -0.867701,-1.03215 -0.969354,-1.20659 -0.101653,-0.17426 -0.01085,-0.26866 0.07649,-0.35552 0.07824,-0.0781 0.174281,-0.20341 0.261408,-0.30515 0.08697,-0.10175 0.11602,-0.17436 0.174096,-0.29054 0.05808,-0.11636 0.02905,-0.21809 -0.01455,-0.30522 -0.04355,-0.0871 -0.382191,-0.94882 -0.537131,-1.29335 z"
       fill="#ffffff"
       clip-rule="evenodd"
       fill-rule="evenodd" />
    <path
       style="stroke-width:0.0116176"
       id="path15"
       d="m 83.581268,147.63225 c -1.316699,-1.31761 -3.067499,-2.04362 -4.932865,-2.04444 -3.843893,0 -6.972035,3.12714 -6.97357,6.97085 0,1.22866 0.320569,2.428 0.930751,3.4852 l -0.989303,3.61235 3.696785,-0.96935 c 1.018513,0.55546 2.165323,0.84818 3.332347,0.84864 h 0.0029 5.3e-5 c 3.843232,0 6.971824,-3.12769 6.973464,-6.97122 0,-1.86281 -0.724085,-3.61434 -2.040625,-4.93203 z m -4.932865,10.72588 h -0.0027 c -1.040232,-5.3e-4 -2.060306,-0.27982 -2.950047,-0.80778 l -0.211772,-0.12553 -2.19374,0.57516 0.585681,-2.1381 -0.137927,-0.21919 c -0.580258,-0.9226 -0.886592,-1.98879 -0.886116,-3.08357 0.0027,-3.19476 2.601251,-5.79384 5.79837,-5.79384 1.548236,5.3e-4 3.003365,0.60412 4.097761,1.69927 1.094316,1.09514 1.696535,2.55097 1.696085,4.0993 -0.0026,3.19484 -2.601463,5.79428 -5.796015,5.79428 z"
       fill="#ffffff" />
  </g>
</svg>
